<svg xmlns="http://www.w3.org/2000/svg" viewBox="0 0 200 200.63"><defs><style>.cls-1{fill:#f58345;}.cls-2{fill:#bbd758;}.cls-3{fill:#fff;}.cls-4{fill:#cae861;}.cls-5{fill:#d8dbdb;}.cls-6{fill:#96989c;}.cls-7{fill:#4c4d4f;}.cls-8{fill:#373737;}</style></defs><title>Ресурс 1</title><g id="Слой_2" data-name="Слой 2"><g id="Layer_1" data-name="Layer 1"><path class="cls-1" d="M93.94,36.15A27,27,0,0,1,118.81,9.06l-10-5.2-3.12-1.65a19.61,19.61,0,0,0-18.41.18l-1.71.88L53.59,20.44,8.82,44.56A16.8,16.8,0,0,0,0,59.56v82.71A16.18,16.18,0,0,0,6.51,155c.26-11.7,11.88-19.87,17.58-23.18A49,49,0,0,1,7.88,106.09a46.83,46.83,0,0,1-1.06-5.53A49.23,49.23,0,0,1,33.29,50.21,42.67,42.67,0,0,1,38.17,48a51.15,51.15,0,0,1,5.35-1.65,49.32,49.32,0,0,1,46.94,13,46.33,46.33,0,0,1,3.67,4.12l-.19-27.29ZM194.28,84.06a26.87,26.87,0,0,1-21,10.38l-30.24.24c-6.94,9.18-18.29,13.88-33.88,14l-4.71.06,2.06-4.29a57.43,57.43,0,0,0,3.47-12,26.83,26.83,0,0,1-5.4-3.28,49.23,49.23,0,0,1-11.75,37.08c3.86,5.14,8.4,8.86,13.27,10.14,8.76,2.31,19.26.79,26.71-6.52a17.77,17.77,0,0,1,3.55-14.54,18.24,18.24,0,0,1,28.45,22.82,17.74,17.74,0,0,1-12.61,6.58C139.51,159,119.82,165.16,99.92,160c-1.29-.33-2.57-.73-3.85-1.17l7.44,40.12a19.11,19.11,0,0,0,3.29-1.42l1.71-.88,32-17.19,44.76-24.12c5.65-3,9.59-8.94,9.53-15l-.48-56.26Z"/><path class="cls-2" d="M141,56.58c-2.1-1.77-6.12-5.85-6.18-10.87V43h.26l26.39-.22-.94,3.48a23,23,0,0,1-5.9,10.1l.07,10.24V67c.53-.18,1.06-.37,1.57-.59a20,20,0,0,0,2.34-1.22,19.3,19.3,0,1,0-29.26-16.56v.21A19.36,19.36,0,0,0,141,66.4V65.18l0-8.6Zm53-.34-.15-20.92a21.11,21.11,0,0,0-21.24-20.88l-42.71.34-9.23.07A21.11,21.11,0,0,0,99.77,36.09l.24,32A21,21,0,0,0,114.19,87.8l2.35.82-.41,2.47a76.8,76.8,0,0,1-2.71,11.59c12-.88,20.59-5.06,25.65-12.53l.88-1.29,33.24-.29a21.11,21.11,0,0,0,20.88-21.24L194,56.24ZM174.49,31a2.2,2.2,0,0,1,.54-.41l9.22-4.81a2.27,2.27,0,0,1,2.87,3.4,2.19,2.19,0,0,1-.74.64l-9.22,4.77a2.44,2.44,0,0,1-1.09.27A2.24,2.24,0,0,1,174.49,31Zm-64-5.23,9.22,4.81a2.3,2.3,0,0,1,.95,3.09,2.43,2.43,0,0,1-2,1.18,2.44,2.44,0,0,1-1.09-.27l-9.22-4.77a2.32,2.32,0,0,1-1.21-2.15,2.27,2.27,0,0,1,.25-.94A2.32,2.32,0,0,1,110.46,25.77Zm-5,26.52a2.23,2.23,0,0,1-2.2-1.73,2.35,2.35,0,0,1-.07-.54,2.12,2.12,0,0,1,2.27-2.27l9.77,0A2.25,2.25,0,0,1,117.49,50a2.26,2.26,0,0,1-2.22,2.27ZM119.53,68.4,111,71.72a1.57,1.57,0,0,1-.72.16l-.31,0a2,2,0,0,1-.45-3.83L118,64.68A2,2,0,0,1,120.13,68,1.88,1.88,0,0,1,119.53,68.4Zm18.31,10.3-.06-6.23V70.94a24.91,24.91,0,0,1-13.43-17.17,24.15,24.15,0,0,1-.53-4.92,24.86,24.86,0,0,1,23.56-25l1.05,0A24.87,24.87,0,0,1,169.6,35.33a24.6,24.6,0,0,1,3.88,13.08A24.86,24.86,0,0,1,161.77,69.7c-.62.39-1.26.75-1.91,1.08v.27l0,7.49c.06,6.23-5.46,6.29-5.46,6.29l-11,.11a5.8,5.8,0,0,1-2-.33c-3.55-1.28-3.6-5.91-3.6-5.91Zm48.46-8.1a2,2,0,0,1-1.88,1.28,1.57,1.57,0,0,1-.72-.16l-8.52-3.32a2,2,0,0,1-1.12-2.6l.13-.25a2,2,0,0,1,2.47-.87L185.18,68a2,2,0,0,1,1.13,2.58v0Zm3-18.31-9.81,0A2.24,2.24,0,0,1,177.22,50a2.3,2.3,0,0,1,.4-1.3,2.26,2.26,0,0,1,1.87-1l9.77,0a2,2,0,0,1,1.81.82l.13.18a2.54,2.54,0,0,1,.33,1.26l0,.26A2.23,2.23,0,0,1,189.26,52.29ZM146.5,53.82l.06,13h2.59V66L149,53.6l1.16-.83.05,0a12,12,0,0,0,3-3.45c.19-.31.37-.62.53-.92l-10.48,0h-2.15A15.82,15.82,0,0,0,145.34,53l1.16.82Z"/><path class="cls-3" d="M169.6,35.33A24.87,24.87,0,0,0,148.43,23.8c-.35,0-.7,0-1.05,0a24.81,24.81,0,0,0-9.6,47.1v1.53l.06,6.23s0,4.63,3.6,5.9a5.84,5.84,0,0,0,2,.33l11-.11s5.52-.06,5.46-6.29l0-7.49v-.27c.65-.33,1.29-.69,1.91-1.08A24.89,24.89,0,0,0,173.48,48.4a24.59,24.59,0,0,0-3.88-13.07ZM143.3,48.4l10.48,0c-.16.3-.35.61-.53.92a11.84,11.84,0,0,1-3,3.45l-.05,0-1.16.83.1,12.37v.87h-2.59l-.06-13L145.34,53a15.68,15.68,0,0,1-4.19-4.58Zm15.3,16.75a20,20,0,0,1-2.34,1.22c-.51.22-1,.42-1.57.59v-.43l-.07-10.24a22.68,22.68,0,0,0,5.9-10.1l.94-3.48-26.39.22h-.26v2.76c.06,5,4.08,9.1,6.18,10.87l.06,8.58v1.22a19.36,19.36,0,0,1-11.71-17.58v-.21A19.31,19.31,0,1,1,158.6,65.15Z"/><path class="cls-4" d="M119.68,30.58l-9.22-4.81a2.3,2.3,0,0,0-3.09.95,2.13,2.13,0,0,0-.25.94,2.32,2.32,0,0,0,1.21,2.15l9.22,4.77a2.44,2.44,0,0,0,1.09.27,2.17,2.17,0,0,0,1-.24,2.23,2.23,0,0,0,.07-4Zm-3,21.16a2.15,2.15,0,0,0,.84-1.77,2.25,2.25,0,0,0-2.27-2.27l-9.77,0A2.12,2.12,0,0,0,103.17,50a2.42,2.42,0,0,0,.07.54,2.24,2.24,0,0,0,2.2,1.73l9.81,0A2.21,2.21,0,0,0,116.64,51.74Zm1.41,12.94L109.53,68a2,2,0,0,0-1.12,2.6A2,2,0,0,0,110,71.83l.31,0a1.57,1.57,0,0,0,.72-.16l8.52-3.32a2,2,0,0,0,.61-.39,2,2,0,0,0-2.09-3.33Zm58-29.83a2.44,2.44,0,0,0,1.09-.27l9.22-4.77a2.28,2.28,0,1,0-2.13-4L175,30.58a2.74,2.74,0,0,0-.54.41,2.25,2.25,0,0,0,1.58,3.86ZM191.2,48.76l-.13-.18a2,2,0,0,0-1.81-.82l-9.77,0a2.26,2.26,0,0,0-1.87,1,2.3,2.3,0,0,0-.4,1.3,2.23,2.23,0,0,0,2.23,2.27l9.81,0a2.25,2.25,0,0,0,2.25-2l0-.26A2.64,2.64,0,0,0,191.2,48.76Zm-6,19.24-8.52-3.32a2,2,0,0,0-2.47.87l-.13.25a2,2,0,0,0,1.12,2.6l8.52,3.32a1.57,1.57,0,0,0,.72.16,2,2,0,0,0,1.88-1.28v0A2,2,0,0,0,185.18,68Z"/><path class="cls-5" d="M76.68,110.77l-.11.22.14-.19Zm-12.74-2.86-.76.26A13.11,13.11,0,0,0,57.26,112a7.54,7.54,0,0,0-1.72,5.28,23.91,23.91,0,0,0,2.55.31,19.84,19.84,0,0,0,6.12-.47,18.2,18.2,0,0,0,10.86-7.72C72,107.2,68.35,106.57,63.94,107.91Z"/><path class="cls-6" d="M135.25,136a31,31,0,0,1-7.43,4.61l6.62,10.29a44.47,44.47,0,0,0,10.36-7.21,18.51,18.51,0,0,1-5.43-3,19,19,0,0,1-4.12-4.69Zm22.8-18.58a12,12,0,0,0-16.84,1.72,11.15,11.15,0,0,0-1.35,2.12,11.9,11.9,0,0,0-.16,10.18,12.18,12.18,0,0,0,9.83,7.12,11.86,11.86,0,0,0,9.18-3,11.53,11.53,0,0,0,1.32-1.38A12,12,0,0,0,158.05,117.46ZM55.59,53.09a41,41,0,0,0-37.17,58.29l3.23-1.18a35.67,35.67,0,0,0,8.56,9.71c9.92,7.65,21.68,7.13,30.11,5.19l1.19-.29-.09,0a5.66,5.66,0,0,0,.59-.22l.26-.08a2.73,2.73,0,0,0,1.83-3.34,2.44,2.44,0,0,0-2.38-1.39l-.06,0,.27,0c-1,.07-1.91.09-2.74.07h-.58c-.55,0-1.09,0-1.64-.1a23.62,23.62,0,0,1-12.78-5.17A30.13,30.13,0,0,1,30.37,116s8.53-3.29,9-10.47c0,0,.94-13.59,16.65-10.94a11.44,11.44,0,0,1,4.86-5.71c2.18-1.24,5.22-1.92,9.38-.93,0,0,.89,0,2.24-.09,3.21-.25,9.06-1.2,12-4.67a22.4,22.4,0,0,1-.66,5.75,18.15,18.15,0,0,1-2.62,6,14.39,14.39,0,0,1-1.17,1.46,20.39,20.39,0,0,1-3.2,14.12l-.14.28,0,0-.14.19a16.55,16.55,0,0,1-1.47,2.23l-.35.25a3.62,3.62,0,0,0-.83,1l0,.09a2.28,2.28,0,0,0,.14,2.53c.83,1,2.49.88,3.73-.18l0,0,.13,0c.84-.68,1.63-1.38,2.36-2.1A33.31,33.31,0,0,0,86,107.52c8.66-15,2.24-31.8,2.24-31.8l3.3-1.48A41.07,41.07,0,0,0,55.59,53.09Zm-16.65,44-1.76-4.47C35.83,89,32.71,87.5,29,89.21a6.34,6.34,0,0,0-3.41,8.24l1.53,4.29-4,1.47-1.53-4.29A10.86,10.86,0,1,1,41.83,91l1.71,4.29ZM79.53,79.62l-1.76-4.47c-1.35-3.59-4.47-5.12-8.18-3.41A6.34,6.34,0,0,0,66.18,80l1.71,4.35-4,1.47-1.71-4.36a10.86,10.86,0,1,1,20.24-7.88l1.71,4.29ZM57.31,103A24.73,24.73,0,0,1,56,105.11l1.19-.56,6.51-3.1,1.24-.59-1.11-.13a42.79,42.79,0,0,1-5-1,20.8,20.8,0,0,1-1.51,3.3Z"/><path class="cls-7" d="M92.12,74l-.64.29-3.3,1.48s6.42,16.82-2.24,31.8a33.55,33.55,0,0,1-5.67,7.24c-.73.71-1.53,1.41-2.36,2.1l-.13.05,0,0c-1.23,1.06-2.9,1.14-3.73.18a2.28,2.28,0,0,1-.14-2.53,17.34,17.34,0,0,1-9.12,4.71c-.61.12-1.22.22-1.8.28l-1,.1-.27,0,.06,0a2.42,2.42,0,0,1,2.38,1.39,2.72,2.72,0,0,1-1.83,3.34l-.26.08c-.18.07-.37.15-.59.22l.09,0-1.19.29c-8.43,1.94-20.2,2.46-30.11-5.19a36,36,0,0,1-8.56-9.71l-3.23,1.18.16.36.1.21c.17.34.41.83.74,1.44l.29.54c.2.37.41.73.63,1.09q.15.27.33.54a52.78,52.78,0,0,0,4.39,6.14c7.08,8.49,20.06,18.31,40.13,12.92,1.13-.3,2.28-.65,3.45-1.06.83-.28,1.66-.6,2.51-.93a67.11,67.11,0,0,0,6.8-3.13,38.31,38.31,0,0,0,6.43-4.93,44.58,44.58,0,0,0,3.21-3.31c.4-.46.8-.93,1.19-1.42l.07-.09c7.12-9,13.39-24.11,3.28-45.82Zm-47.94,40.5A24.7,24.7,0,0,0,56,105.11c.51-.75,1-1.47,1.31-2.12a20.83,20.83,0,0,0,1.51-3.31,42,42,0,0,0,5,1l1.11.13c7.59.83,12.23-1.37,15.07-4.48a14.39,14.39,0,0,0,1.17-1.46,18.15,18.15,0,0,0,2.62-6,22.43,22.43,0,0,0,.66-5.75c-2.94,3.48-8.79,4.42-12,4.67-1.35.11-2.24.09-2.24.09-4.16-1-7.2-.31-9.38.93A11.49,11.49,0,0,0,56,94.56C40.29,91.91,39.35,105.5,39.35,105.5c-.47,7.18-9,10.47-9,10.47a30.17,30.17,0,0,0,13.83-1.5Z"/><path class="cls-8" d="M199.82,35.26a27,27,0,0,0-27.17-26.7l-52,.41c-.62,0-1.23,0-1.83.08A27,27,0,0,0,94,36.14l.19,27.3A49.28,49.28,0,0,0,43.53,46.32,50.42,50.42,0,0,0,38.18,48a40.3,40.3,0,0,0-4.88,2.24A49.21,49.21,0,0,0,6.82,100.56a46.83,46.83,0,0,0,1.06,5.53,49,49,0,0,0,16.21,25.76C18.39,135.16,6.77,143.33,6.51,155c-.15,6.76,3.5,14.71,14.3,23.57l1.07-12,.27-3.08L23.35,150a3,3,0,0,1,2.41-2.58,3.21,3.21,0,0,1,.82-.06,2.93,2.93,0,0,1,2.65,3.18l-1.44,15.9L24.7,200.57l-5.23.05h0l84.24-.76-.17-.93L96.1,158.82c1.28.44,2.57.84,3.85,1.17,19.9,5.18,39.59-1,52.29-15.25a17.76,17.76,0,0,0,12.61-6.58,18.24,18.24,0,0,0-28.45-22.82,17.78,17.78,0,0,0-3.55,14.54c-7.45,7.3-18,8.83-26.71,6.52-4.87-1.28-9.41-5-13.27-10.14a49.15,49.15,0,0,0,11.75-37.08,26.38,26.38,0,0,0,5.4,3.28,57.43,57.43,0,0,1-3.47,12l-2.06,4.29,4.71-.06c15.59-.12,26.94-4.82,33.88-14l30.21-.25A27,27,0,0,0,200,67.26l-.18-32Zm-26.64,53.3-33.24.29-.88,1.29c-5.06,7.47-13.65,11.65-25.65,12.53a79.35,79.35,0,0,0,2.71-11.59l.41-2.47-2.35-.82A21,21,0,0,1,100,68.08l-.24-32a21.11,21.11,0,0,1,20.88-21.24l9.23-.07,42.72-.33a21.11,21.11,0,0,1,21.24,20.88L194,56.24l.08,11.08a21.12,21.12,0,0,1-20.88,21.24Zm-32,30.63A12.06,12.06,0,0,1,160,134.28a11.53,11.53,0,0,1-1.32,1.38,11.9,11.9,0,0,1-9.18,3,12.06,12.06,0,0,1-6.34-2.61,12.21,12.21,0,0,1-3.49-4.51,11.9,11.9,0,0,1,.16-10.18,12.59,12.59,0,0,1,1.36-2.13ZM135.25,136a18.19,18.19,0,0,0,9.56,7.69,44.89,44.89,0,0,1-10.36,7.21l-6.62-10.29a31.46,31.46,0,0,0,7.42-4.61Zm-46.41-16.3-.07.09c-.4.49-.79,1-1.19,1.42a44.58,44.58,0,0,1-3.21,3.31,37.84,37.84,0,0,1-6.43,4.93,70.66,70.66,0,0,1-6.8,3.13c-.85.33-1.69.65-2.51.93-1.17.4-2.32.75-3.45,1.06-20.07,5.39-33.05-4.43-40.13-12.92a50.48,50.48,0,0,1-4.39-6.14l-.33-.54c-.23-.39-.44-.75-.63-1.09l-.29-.54c-.33-.61-.57-1.1-.74-1.44l-.1-.21-.16-.36A41,41,0,0,1,91.47,74.25l.64-.29c10.12,21.72,3.85,36.86-3.27,45.78Z"/><path d="M27.76,84.85a10.87,10.87,0,0,0-6.18,14.06l1.53,4.29,4-1.47-1.52-4.29A6.35,6.35,0,0,1,29,89.2c3.71-1.71,6.82-.18,8.18,3.41l1.76,4.47,4.59-1.76L41.82,91A10.86,10.86,0,0,0,27.76,84.85Zm36.12.94,4-1.47L66.17,80a6.35,6.35,0,0,1,3.41-8.24c3.71-1.71,6.82-.18,8.18,3.41l1.76,4.47,4.59-1.76L82.4,73.56a10.85,10.85,0,1,0-20.22,7.88l1.7,4.35Zm1.06,15.06-1.23.59-6.51,3.1L56,105.1a24.7,24.7,0,0,1-11.83,9.36A23.62,23.62,0,0,0,57,119.63c.54.05,1.09.09,1.64.1h.58a26,26,0,0,0,2.74-.07l1-.1c.59-.07,1.19-.16,1.8-.28a17.38,17.38,0,0,0,9.12-4.71l.05-.09a3.49,3.49,0,0,1,.83-1,2.8,2.8,0,0,1,.35-.25A16.55,16.55,0,0,0,76.58,111l.11-.22.14-.28A20.44,20.44,0,0,0,80,96.35c-2.85,3.13-7.5,5.33-15.09,4.5Zm-.74,16.27a20.45,20.45,0,0,1-6.12.47c-.82-.06-1.67-.16-2.55-.31A7.55,7.55,0,0,1,57.25,112a13.25,13.25,0,0,1,5.92-3.82l.76-.26c4.4-1.34,8.1-.71,11.12,1.48A18.11,18.11,0,0,1,64.2,117.12Zm-37.61,30.2a3.17,3.17,0,0,0-.82.06A3,3,0,0,0,23.36,150l-1.2,13.51-.27,3.08-1.07,12-1.93,21.73v.29h.59l5.23,0,3.09-34.16,1.44-15.9a2.92,2.92,0,0,0-2.65-3.17Z"/></g></g></svg>