<svg xmlns="http://www.w3.org/2000/svg" viewBox="0 0 189.71 200.25"><defs><style>.cls-1{fill:#bbd758;}.cls-2{fill:#dbdbdb;}.cls-3{fill:#a6a8ab;}.cls-4{fill:#009435;}.cls-5{fill:#e6e7e8;}.cls-6{fill:#4b4e49;}.cls-7{fill:#a4cc40;}.cls-8{fill:#5b5e58;}.cls-9{fill:#b4db53;}.cls-10{fill:#b5b7ba;}.cls-11{fill:#373737;}</style></defs><title>icon3</title><g id="Слой_2" data-name="Слой 2"><g id="Layer_1" data-name="Layer 1"><path class="cls-1" d="M101,199.23H88.72A19,19,0,0,0,101,199.23Zm12.1-65.86c.22,1.16.41,2.37.57,3.6C113.52,135.74,113.32,134.54,113.1,133.37Zm67.64-89.48L103.87,2.27a19,19,0,0,0-18,0L9,43.89A16.83,16.83,0,0,0,0,58.51v83.23a16.64,16.64,0,0,0,9,14.62l16.13,8.73A74.5,74.5,0,0,1,8.86,119c0-23.71,11.5-45.06,29.74-59.77A14.85,14.85,0,0,1,53.45,44.65H64.38a95.38,95.38,0,0,1,15.89-4.34,14.86,14.86,0,0,1,29.65,1.37v3h26.75a14.87,14.87,0,0,1,14.86,14.86V161c11.05-11.22,17.78-25.91,17.78-42,0-.59-.18-6.78,3.33-10.4,3.15-3.27,9-3.27,12,.06,3.27,3.69,2.68,9.93,2.62,10.64a73.25,73.25,0,0,1-12.12,40.15l5.64-3a16.46,16.46,0,0,0,9-14.62V58.51a16.65,16.65,0,0,0-9-14.62ZM38.59,154.19V84c-8.06,9.77-12,21.18-12,35A58.61,58.61,0,0,0,38.59,154.19ZM131,142.93a36.74,36.74,0,0,0-.34-5A35.18,35.18,0,0,1,131,142.93Zm-.33-5a33.77,33.77,0,0,0-1-4.74A36.88,36.88,0,0,1,130.7,138Z"/><path class="cls-2" d="M180.14,112.61a2.5,2.5,0,0,0-3.21.12c-1.37,1.43-1.72,4.76-1.66,6.12,0,19.71-9.11,37.51-23.72,50.21v6.77a80.26,80.26,0,0,0,10.35-9.26c12.09-12.9,19.38-29.5,19.38-47.59.17-1.73.11-5.06-1.14-6.37ZM14.81,119c0,20.19,9.08,38.52,23.78,51.93v-7.43C27.42,151.4,20.7,135.88,20.7,119S25.87,88.59,36.57,77.3c.1-.15.78-1.08,2-2.5V67C23.89,80.45,14.81,98.78,14.81,119Z"/><path class="cls-3" d="M59.4,142.93a35.85,35.85,0,0,1,35.85-35.85,35.28,35.28,0,0,1,20.93,6.84l13.1-15.75H44.53v86.2a8.89,8.89,0,0,0,5.9,8.38l3.41-4.1,1.92-2.31,2-2.38.69-.83L61,180.07l2-2.36,2-2.36,5.56-6.68A35.37,35.37,0,0,1,59.4,142.93Zm71.58.89A35.54,35.54,0,0,1,102,178L98,182.64l-2.48,2.92-2.45,2.88-3.77,4.44-.35.41h47.71a8.91,8.91,0,0,0,8.49-6.19,9.07,9.07,0,0,0,.43-2.73V126.68L131,143.82Z"/><path class="cls-4" d="M136.68,50.6H109.93v8.92a14.13,14.13,0,0,1-.13,1.85,17.84,17.84,0,1,1-29.47,0,14.13,14.13,0,0,1-.13-1.85V50.6H53.45a8.92,8.92,0,0,0-8.82,7.71,9.73,9.73,0,0,0-.09,1.22v32.7H145.61V59.53A8.93,8.93,0,0,0,136.68,50.6Z"/><path class="cls-5" d="M103.83,40.05a8.91,8.91,0,0,0-17.37-.66,9.12,9.12,0,0,0-.31,2.3V59.53a8.92,8.92,0,0,0,17.84,0V41.69A8.85,8.85,0,0,0,103.83,40.05Z"/><path class="cls-6" d="M108.27,121.41a4,4,0,0,1,.89.83l7-8.32a35.28,35.28,0,0,0-20.93-6.84A35.85,35.85,0,0,0,59.4,142.93a35.34,35.34,0,0,0,11.06,25.74l8.74-10.4a19,19,0,0,1-1.72-21.4,23.22,23.22,0,0,1,3.09-4c.24-.24,1.31.48,1,1-1.72,6.18-.89,10.46,1.19,14.57.18.06,1,.42,1.07.12.42-12.72,7.07-20.63,15-26C103.21,121.17,107,120.7,108.27,121.41ZM102,178a35.54,35.54,0,0,0,29-34.18Z"/><path class="cls-7" d="M108.27,121.41c-1.31-.71-5-.24-9.51,1.13-7.91,5.41-14.57,13.32-15,26-.12.3-.89-.06-1.07-.12-2.08-4.1-2.91-8.38-1.19-14.57.36-.54-.71-1.25-1-1a23.65,23.65,0,0,0-3.09,4,19,19,0,0,0,1.72,21.4l30-36A4.4,4.4,0,0,0,108.27,121.41Z"/><path class="cls-8" d="M100.54,178.3A12.13,12.13,0,0,0,102,178l29-34.18.05-.36v-.54a35.55,35.55,0,0,0-14.86-29l-7,8.32c1.42,1.86,3,6.09,3.94,11.13.22,1.16.41,2.37.57,3.6.1.82.18,1.65.25,2.48s.11,1.67.13,2.51,0,1.68,0,2.51-.08,1.65-.17,2.47-.19,1.61-.33,2.39-.31,1.54-.52,2.28a20.66,20.66,0,0,1-.72,2.14,16.84,16.84,0,0,1-.93,2A19.34,19.34,0,0,1,85,163.2a18.89,18.89,0,0,1-5.83-4.93l-8.74,10.4a35.32,35.32,0,0,0,24.79,10.05,31,31,0,0,0,5.29-.42ZM102,178l29-34.19Zm-1.42.29A12.13,12.13,0,0,0,102,178,12.57,12.57,0,0,1,100.54,178.3Z"/><path class="cls-9" d="M113.92,139.45c-.06-.83-.15-1.66-.25-2.48q-.23-1.84-.57-3.6c-1-5-2.52-9.27-3.94-11.13l-30,36A18.75,18.75,0,0,0,85,163.2a19.35,19.35,0,0,0,26.34-7.49,16,16,0,0,0,.93-2c.27-.69.51-1.4.72-2.14s.38-1.5.52-2.28.25-1.58.33-2.39.14-1.64.17-2.47,0-1.67,0-2.51S114,140.29,113.92,139.45Z"/><path class="cls-10" d="M95.25,178.72a35.28,35.28,0,0,1-24.79-10.05l-5.56,6.68-2,2.36-2,2.36-2.54,3.06-.69.83-2,2.38-1.92,2.31-3.41,4.1a8.88,8.88,0,0,0,3,.53H89l.35-.41,3.77-4.44,2.45-2.88L98,182.63,102,178a12.13,12.13,0,0,1-1.43.3,30.05,30.05,0,0,1-5.29.43Zm34-80.56-13.1,15.75a35.56,35.56,0,0,1,14.86,29v.54l-.05.36,14.62-17.14V98.16Z"/><path class="cls-11" d="M184.6,108.63c-3-3.33-8.8-3.33-11.95-.06-3.51,3.63-3.33,9.81-3.33,10.4,0,16.09-6.72,30.79-17.78,42V59.52a14.87,14.87,0,0,0-14.86-14.86H109.93v-3a14.86,14.86,0,0,0-29.65-1.37,95.38,95.38,0,0,0-15.89,4.34H53.45A14.86,14.86,0,0,0,38.6,59.2C20.36,73.91,8.86,95.26,8.86,119A74.5,74.5,0,0,0,25.11,165.1a84.66,84.66,0,0,0,13.47,13.63v5.64a14.87,14.87,0,0,0,14.86,14.86h83.23a14.87,14.87,0,0,0,14.86-14.86v-1.2a84.37,84.37,0,0,0,23.55-23.75,73.25,73.25,0,0,0,12.12-40.15C187.27,118.56,187.87,112.31,184.6,108.63Zm-33,67.2v-6.77c14.61-12.69,23.72-30.5,23.72-50.21-.06-1.37.3-4.7,1.66-6.12a2.52,2.52,0,0,1,3.21-.12c1.25,1.31,1.31,4.64,1.13,6.36,0,18.09-7.29,34.69-19.38,47.59a79.51,79.51,0,0,1-10.34,9.27Zm-6,8.54a8.93,8.93,0,0,1-8.92,8.92H53.45a8.93,8.93,0,0,1-8.92-8.91V98.18H145.6ZM38.59,67V74.8c-1.24,1.42-1.92,2.35-2,2.5C25.87,88.6,20.7,102.21,20.7,119s6.73,32.43,17.89,44.5v7.43C23.89,157.49,14.81,139.16,14.81,119S23.89,80.45,38.59,67Zm8.89-14.13a9,9,0,0,1,3-1.79,8.89,8.89,0,0,1,3-.52H80.2v8.92a14.13,14.13,0,0,0,.13,1.85,17.84,17.84,0,1,0,29.48,0,14.13,14.13,0,0,0,.13-1.85V50.6h26.75a8.91,8.91,0,0,1,8.92,8.92v32.7H44.53V59.52a9.87,9.87,0,0,1,.09-1.22A8.92,8.92,0,0,1,47.48,52.91ZM86.15,41.69a8.74,8.74,0,0,1,.31-2.3A8.92,8.92,0,0,1,104,41.68V59.52a8.92,8.92,0,0,1-17.84,0ZM38.59,154.19a58.61,58.61,0,0,1-12-35.22c0-13.77,3.89-25.18,12-34.95Z"/></g></g></svg>