<svg xmlns="http://www.w3.org/2000/svg" viewBox="0 0 187.78 199.99"><defs><style>.cls-1{fill:#fcb017;}.cls-2{fill:#e6e7e8;}.cls-3{fill:#b1b3b3;}.cls-4{fill:#373737;}.cls-5{fill:#808184;}.cls-6{fill:#ffce13;}.cls-7{fill:#6d6e70;}.cls-8{fill:#ffe99e;}.cls-9{fill:#fff;}</style></defs><title>icon5</title><g id="Слой_2" data-name="Слой 2"><g id="Layer_1" data-name="Layer 1"><path class="cls-1" d="M127.66,6.29V29.46a12.43,12.43,0,0,1,2.94,8.07c-.11,5-3.4,9.38-8.83,12.61l26,65a17,17,0,0,1,30.3,7,16.55,16.55,0,0,1-3.13,12.75,48.28,48.28,0,0,1,.34,6.23A94.29,94.29,0,0,0,127.66,6.29Zm23.76,36.83a4.29,4.29,0,1,1-4.29,4.29A4.29,4.29,0,0,1,151.42,43.12ZM140.89,71.65l-1.35-11.71-11.18-1.47,11.18-1.53,1.35-11.71,1.41,11.71,11.18,1.53L142.3,59.94Zm22.88,17.12-2,16.65-2-16.65L144,86.65l15.82-2.12,2-16.65,2,16.65,15.88,2.12ZM62.71,36.35a12.32,12.32,0,0,1,2.88-7.53V6.41a1.37,1.37,0,0,1,.35-.24,4.72,4.72,0,0,1-.35-1.82A94.32,94.32,0,0,0,3.33,119a17,17,0,0,1,31.12-1.15l.83-1.62c-1-7.25,1.58-15.89,12.6-24.7l.15-.29c-3.54-4.24-6.56-1.37-8.09-3.35s2.24-7.59,2.24-7.59a3.43,3.43,0,0,1,2.47-1.53c2.94-.17,5.76,1.38,8.08,3.26L69.92,48.41a22.41,22.41,0,0,1-3.09-2.64A13.24,13.24,0,0,1,62.71,36.35ZM40.89,53.71A4.29,4.29,0,1,1,36.6,58,4.29,4.29,0,0,1,40.89,53.71ZM16.24,90.88a4.29,4.29,0,1,1,4.29-4.29A4.29,4.29,0,0,1,16.24,90.88ZM31.83,74.82,29.12,97.23l-2.7-22.41L5.13,72l21.29-2.82,2.71-22.47,2.71,22.47L53.13,72Z"/><path class="cls-2" d="M22.22,141.44A16.85,16.85,0,0,1,12,140.06c-.32-.15-.63-.31-.94-.48a41.42,41.42,0,0,0,1.39,11.54l5.57-.85.52-.08,5.1-.78a28.64,28.64,0,0,1-1.34-7.52,2.37,2.37,0,0,1,0-.45ZM21,114.1a11.15,11.15,0,0,0-12.93,9A10.58,10.58,0,0,0,8,124.8a11,11,0,0,0,3.67,8.35,11.33,11.33,0,0,0,14.93.23,11,11,0,0,0,3.69-6.49c0-.32.09-.64.11-1A11.15,11.15,0,0,0,21,114.1Zm137.23,27.31a29.06,29.06,0,0,1-1.36,8l4.84.74,6.34,1a41.35,41.35,0,0,0,1.39-11.53,17,17,0,0,1-5.34,1.87A16.76,16.76,0,0,1,158.27,141.41Zm14.15-18.31a11.26,11.26,0,0,0-21.88-1,10.84,10.84,0,0,0-.27,4.79,11.11,11.11,0,0,0,7.58,8.64,11.43,11.43,0,0,0,5.35.38,11.26,11.26,0,0,0,5.65-2.72,11,11,0,0,0,3.71-8.42,11.34,11.34,0,0,0-.14-1.64Zm-52.06,13.14-14.47-.94A11.1,11.1,0,0,1,101,134a12.4,12.4,0,0,1-6.65-11.76l0-.38-2.69-.24,0,.56a12.39,12.39,0,0,1-13.12,11.53l-14.47-.94a13,13,0,0,1-4.88-1.35,12.25,12.25,0,0,1-5.11-5c0,.73-.07,1.47-.07,2.21A38.05,38.05,0,0,0,70.44,160a38.46,38.46,0,0,0,5.16,3,37.41,37.41,0,0,0,4.5,1.81,38.88,38.88,0,0,0,12,1.95l.59,0A38.37,38.37,0,0,0,99.8,166a37.71,37.71,0,0,0,6.34-1.9,40.33,40.33,0,0,0,4.16-1.93l0,0c.51-.28,1-.57,1.5-.86a38.13,38.13,0,0,0,18.21-28.77c-.24.25-.48.49-.75.73a12.53,12.53,0,0,1-8.94,3Zm-17.92,15-.06,0-.2.13h0a15.28,15.28,0,0,1-5.07,2.2c-.36.08-.72.15-1.08.2A15.87,15.87,0,0,1,93,154a18.41,18.41,0,0,1-4.5-.83,24.89,24.89,0,0,1-5.14-2.32,22.25,22.25,0,0,1-2.91-2l-.42-.36a19.67,19.67,0,0,1-7-11.4l38.88,1.76a18.85,18.85,0,0,1-9.44,12.42Zm-21.9-48.35A12.6,12.6,0,0,1,92.07,116l2.69.24v-.16a12.33,12.33,0,0,1,13.12-11.53l14.47.94h.12A38.1,38.1,0,0,0,64.83,102c.41,0,.82,0,1.23,0Z"/><path class="cls-3" d="M102.18,151.47h0ZM81.3,149.53l.35.23-.34-.25Zm15.84-4.44a13.38,13.38,0,0,0-4.19-1.5c-3.74-.71-7.11-.3-9.32,1.72A7.18,7.18,0,0,0,82,147.53a19.56,19.56,0,0,0,8.17,3.88l.18,0a17,17,0,0,0,11-1.73l.14-.08a11.1,11.1,0,0,0-1.69-2.5,10.78,10.78,0,0,0-2.61-2Z"/><path d="M122.48,105.54h-.12l-14.47-.94a12.34,12.34,0,0,0-13.12,11.53v.16L92.07,116a12.61,12.61,0,0,0-11.53-13.1L66.07,102c-.41,0-.83,0-1.23,0a12.35,12.35,0,0,0-7.61,3l-.1.08a12.27,12.27,0,0,0-3.86,6.47,13.23,13.23,0,0,0-.32,2l-.41,6.06a12.38,12.38,0,0,0,1.54,6.79,12.13,12.13,0,0,0,5.11,5,12.85,12.85,0,0,0,4.88,1.35l14.47.94a12.39,12.39,0,0,0,13.12-11.53l0-.56,2.69.24,0,.38A12.37,12.37,0,0,0,101,133.93a11.13,11.13,0,0,0,4.88,1.35l14.47.94a12.38,12.38,0,0,0,8.94-3.06c.26-.23.51-.48.75-.73a12.35,12.35,0,0,0,3.43-7.75l.41-6.06a12.6,12.6,0,0,0-11.41-13.08ZM83.89,126.41A6.64,6.64,0,0,1,79,128.12l-14.47-.94a6.92,6.92,0,0,1-6.41-7.24l.41-6.06a6.86,6.86,0,0,1,2.29-4.71,6.64,6.64,0,0,1,4.94-1.71l14.47.94a7.27,7.27,0,0,1,2.71.76,6.91,6.91,0,0,1,3.71,6.47l-.41,6.06A7,7,0,0,1,83.89,126.41Zm44.53-8.06-.41,6.06a7,7,0,0,1-2.29,4.71,6.64,6.64,0,0,1-4.94,1.71l-14.47-.94a7,7,0,0,1-6.41-7.29l.41-6.06a6.84,6.84,0,0,1,7.24-6.41l14.47.94a7.27,7.27,0,0,1,2.71.76,6.79,6.79,0,0,1,3.06,3.25,7.63,7.63,0,0,1,.46,1.29,8.16,8.16,0,0,1,.17,2Z"/><path class="cls-4" d="M178,122.14a16.82,16.82,0,0,0-19.5-13.63,17,17,0,0,0-10.8,6.59,16.53,16.53,0,0,0,4.9,24.25c.46,9.67-5,17.89-12,22.6-4.29,2.84-10.38,3.6-17,2.78l-.44-2.63a45.6,45.6,0,0,0,13.35-22.63,44.77,44.77,0,0,0-.65-24.18,45.82,45.82,0,0,0-19-25.16C98.58,50.12,66.15,75.37,55.77,85a28.49,28.49,0,0,0-3-2.91c-2.32-1.88-5.14-3.43-8.08-3.26a3.43,3.43,0,0,0-2.47,1.53S38.42,86,39.94,87.93,44.49,87,48,91.28l.09.1-.23.18c-11,8.8-13.56,17.45-12.6,24.7,1.48,11.17,11.3,19,11.3,19l.13-.91a45.9,45.9,0,0,0,15.51,28.81l-.16.61c-8.58,2-16.8,1.7-22.18-1.87-7-4.7-12.45-12.92-12-22.59a16.5,16.5,0,0,0,6.56-21.46,16.92,16.92,0,0,0-32,4.27,16.55,16.55,0,0,0,3.14,12.77c-2.11,17.65,5.75,35.13,21.68,45.78a52.93,52.93,0,0,0,7.12,3.94,58.09,58.09,0,0,0,20.77,5.12L52.48,200h77.06l-1.75-10.43a57.85,57.85,0,0,0,18.33-4.92,52.93,52.93,0,0,0,7.12-3.94c14.06-9.4,21.83-24.12,22-39.59a48.28,48.28,0,0,0-.34-6.23A16.47,16.47,0,0,0,178,122.14Zm-159.56,28-.52.08-5.57.85A41.38,41.38,0,0,1,11,139.57c.31.17.62.33.94.48a17.19,17.19,0,0,0,4.44,1.41,17,17,0,0,0,5.83,0v.44a29.56,29.56,0,0,0,1.34,7.52l-5.08.79Zm8.09-16.81a11.34,11.34,0,0,1-14.93-.23A11,11,0,0,1,8,124.79a10.58,10.58,0,0,1,.14-1.68,11.24,11.24,0,0,1,22.26,2.8c0,.32-.06.64-.11,1a11,11,0,0,1-3.69,6.49Zm85.27,27.85c-.49.3-1,.59-1.5.86l0,0a36.53,36.53,0,0,1-4.16,1.93,37.34,37.34,0,0,1-13.42,2.66l-.59,0a37.74,37.74,0,0,1-4.53-.28,38.13,38.13,0,0,1-7.5-1.67A37.41,37.41,0,0,1,75.6,163,38.29,38.29,0,0,1,54,128.59c0-.74,0-1.48.07-2.21a12.55,12.55,0,0,1-1.54-6.79l.41-6.06a12.08,12.08,0,0,1,.32-2,12.24,12.24,0,0,1,3.86-6.47l.1-.08a12.3,12.3,0,0,1,7.61-3,38.1,38.1,0,0,1,57.65,3.55,12.6,12.6,0,0,1,11.41,13.1l-.41,6.06a12.37,12.37,0,0,1-3.43,7.75,38.17,38.17,0,0,1-18.22,28.77Zm56.26-10.11-6.34-1-4.84-.74a29.13,29.13,0,0,0,1.36-8h0a16.86,16.86,0,0,0,11.21-1.83A41.35,41.35,0,0,1,168.1,151.11Zm.75-18a11.33,11.33,0,0,1-11,2.34,11.78,11.78,0,0,1-2.37-1.07,11,11,0,0,1-5.21-7.57,10.84,10.84,0,0,1,.27-4.79,11.26,11.26,0,0,1,21.88,1,11.47,11.47,0,0,1,.14,1.64,11,11,0,0,1-3.71,8.42ZM80,148.52l.42.36a24,24,0,0,0,2.91,2,23.66,23.66,0,0,0,5.14,2.32A18.41,18.41,0,0,0,93,154a15.87,15.87,0,0,0,3.06-.14c.36-.05.71-.12,1.08-.2a15.28,15.28,0,0,0,5.07-2.2h0l.2-.13.06,0a18.92,18.92,0,0,0,9.45-12.41L73,137.12a19.61,19.61,0,0,0,7,11.4Zm3.63-3.21c2.21-2,5.57-2.43,9.32-1.72a13.29,13.29,0,0,1,4.19,1.5,10.3,10.3,0,0,1,2.59,2,10.47,10.47,0,0,1,1.69,2.5l-.14.08a17,17,0,0,1-11,1.73l-.18,0A19.56,19.56,0,0,1,82,147.53a7.44,7.44,0,0,1,1.65-2.22Zm-2.32,4.2.34.25-.35-.23Zm-3.65-30.16-.47,4.47,4.53.53.53-4.29a10.07,10.07,0,0,0-20-2.36l-.59,4.24,3.88.53.59-4.24A5.82,5.82,0,0,1,72.47,113C76.24,113.18,78.07,115.82,77.66,119.35Zm36.64-7.11a10.06,10.06,0,0,0-11.18,8.82l-.53,4.29,3.88.53.53-4.29a5.82,5.82,0,0,1,6.35-5.24c3.76.18,5.59,2.82,5.18,6.35l-.47,4.47,4.53.53.53-4.29A10,10,0,0,0,114.3,112.24Z"/><path class="cls-5" d="M127.42,6.18A93.26,93.26,0,0,0,93.89,0,95,95,0,0,0,71,2.82c-1.82.47-3.65.94-5.41,1.53A4.83,4.83,0,0,0,66,6.17a1.1,1.1,0,0,0-.35.24V28.82a19.48,19.48,0,0,1,3.53-3.41l.88-.59C76.19,20.53,85.6,18.11,96,18.11H97c9.12.18,17.82,2.29,23.94,5.88h.41l.71.59a22.34,22.34,0,0,1,5.59,4.87V6.29A.52.52,0,0,0,127.42,6.18Z"/><path class="cls-6" d="M111,37.71c-1.88-1.06-6.94-2.53-14.65-2.53S83.6,36.59,81.71,37.71c1.88,1.06,6.94,2.53,14.65,2.53S109.13,38.77,111,37.71Zm8.29-7.83h-.06l-.71-.47c-5.29-3.29-13.24-5.29-21.71-5.41h-1c-9.41,0-18.06,2.29-23.18,6.06l-.71.59c-2.29,1.94-3.35,3.88-3.41,5.82A7.15,7.15,0,0,0,71,41.71a23.15,23.15,0,0,0,8.23,5.08,50,50,0,0,0,17.12,3.15h1.24c9.52,0,17.21-2.27,21.94-5.37,3.25-2.13,5.1-4.65,5.17-7.1S122.83,32.18,119.3,29.88ZM75.24,37.71c0-6.24,11.35-8.41,21.06-8.41s21.06,2.18,21.06,8.41-11.29,8.41-21.06,8.41S75.24,43.94,75.24,37.71Z"/><path class="cls-7" d="M127.66,29.46a22,22,0,0,0-5.59-4.87l-.71-.59H121c-6.12-3.59-14.82-5.71-23.94-5.88H96c-10.35,0-19.76,2.41-25.94,6.71l-.88.59a19.48,19.48,0,0,0-3.53,3.41,12.32,12.32,0,0,0-2.88,7.53,13.14,13.14,0,0,0,4.12,9.41,21.2,21.2,0,0,0,3.09,2.64c6.21,4.46,15.91,7.22,26.38,7.42H97.6c9.72,0,18.23-2.14,24.17-5.68,5.42-3.23,8.71-7.62,8.83-12.61A12.43,12.43,0,0,0,127.66,29.46ZM96.36,49.94a50.15,50.15,0,0,1-17.12-3.15A23.29,23.29,0,0,1,71,41.71a7.13,7.13,0,0,1-2.47-5.24c.06-1.94,1.12-3.88,3.41-5.82l.71-.59C77.78,26.3,86.42,24,95.84,24h1c8.47.12,16.41,2.12,21.71,5.41l.71.47h.06c3.53,2.29,5.41,5,5.41,7.59s-1.92,5-5.17,7.1c-4.73,3.1-12.43,5.37-21.94,5.37Z"/><path class="cls-8" d="M152.65,139.35a16.53,16.53,0,0,1-4.9-24.25l-26-65c-5.94,3.54-14.45,5.68-24.17,5.68H96.31c-10.47-.2-20.17-3-26.38-7.42L52.74,82.09a28.45,28.45,0,0,1,3,2.91c10.37-9.61,42.8-34.87,61.12,5.15a45.82,45.82,0,0,1,19,25.16,44.87,44.87,0,0,1,.65,24.18,45.69,45.69,0,0,1-13.35,22.63l.44,2.63c6.64.81,12.74.06,17-2.78,7-4.73,12.44-13,12-22.62Zm-105.93-5-.13.91s-9.82-7.85-11.3-19l-.83,1.62a16.5,16.5,0,0,1-6.56,21.46c-.45,9.66,5,17.88,12,22.59,5.38,3.57,13.6,3.85,22.18,1.87l.16-.61A46,46,0,0,1,46.72,134.39ZM48,91.29l-.15.29.23-.18ZM96.3,46.12c9.76,0,21.06-2.18,21.06-8.41S106,29.3,96.3,29.3s-21.06,2.18-21.06,8.41S86.6,46.12,96.3,46.12Zm.06-10.94c7.71,0,12.76,1.47,14.65,2.53-1.88,1.06-7,2.53-14.65,2.53S83.6,38.77,81.71,37.71C83.6,36.59,88.66,35.18,96.36,35.18Z"/><path class="cls-9" d="M82.89,109.18a7,7,0,0,0-2.71-.76l-14.47-.94a6.6,6.6,0,0,0-4.94,1.71,6.8,6.8,0,0,0-2.29,4.71L58.07,120a6.92,6.92,0,0,0,6.41,7.24l14.47.94a6.6,6.6,0,0,0,4.94-1.71,6.92,6.92,0,0,0,2.29-4.71l.41-6.06A6.89,6.89,0,0,0,82.89,109.18Zm-.65,10.88-.53,4.29-4.53-.53.47-4.47c.41-3.53-1.41-6.18-5.18-6.35a5.79,5.79,0,0,0-6.35,5.24l-.59,4.24L61.65,122l.59-4.24a10.07,10.07,0,0,1,20,2.35Zm45.53-5a6.75,6.75,0,0,0-3.06-3.25,7,7,0,0,0-2.71-.76l-14.47-.94a6.85,6.85,0,0,0-7.24,6.41l-.41,6.06a7,7,0,0,0,6.41,7.29l14.47.94a6.6,6.6,0,0,0,4.94-1.71A6.92,6.92,0,0,0,128,124.4l.41-6.06a7.35,7.35,0,0,0-.19-2,6.26,6.26,0,0,0-.44-1.28Zm-4.64,8.34-.53,4.29-4.53-.53.47-4.47c.41-3.53-1.41-6.18-5.18-6.35a5.79,5.79,0,0,0-6.35,5.24l-.53,4.29-3.88-.53.53-4.29a10.07,10.07,0,0,1,20,2.35Zm-94-76.7L26.42,69.18,5.13,72l21.29,2.82,2.71,22.42,2.7-22.42L53.13,72l-21.3-2.82ZM163.77,84.53l-2-16.65-2,16.65L144,86.65l15.82,2.12,2,16.64,2-16.64,15.89-2.12ZM142.3,56.94l-1.41-11.7-1.35,11.7-11.18,1.53,11.18,1.47,1.35,11.71,1.41-11.71,11.18-1.47Z"/><circle class="cls-9" cx="40.89" cy="58" r="4.29"/><circle class="cls-9" cx="151.42" cy="47.41" r="4.29"/><circle class="cls-9" cx="16.24" cy="86.59" r="4.29"/></g></g></svg>