<svg xmlns="http://www.w3.org/2000/svg" viewBox="0 0 187.29 200.07"><defs><style>.cls-1{fill:#20a0db;}.cls-2{fill:#b3b3b3;}.cls-3{fill:#c4c4c4;}.cls-4{fill:#aaabb0;}.cls-5{fill:#d1d2d4;}.cls-6{fill:#aaaaab;}.cls-7{fill:#e8e8e8;}.cls-8{fill:#fff;}.cls-9{fill:#ffe687;}.cls-10{fill:#c9c9c9;}.cls-11{fill:#d0d2d3;}.cls-12{fill:#818385;}.cls-13{fill:#b8b9ba;}.cls-14{fill:#373737;}.cls-15{fill:#49b7eb;}</style></defs><title>icon4</title><g id="Слой_2" data-name="Слой 2"><g id="Layer_1" data-name="Layer 1"><path class="cls-1" d="M93.65,1.06A96.91,96.91,0,0,0,73.41,3.19a55.05,55.05,0,0,1,6.26,7.52,65.66,65.66,0,0,1,11.12-.93c38.86,0,58.53,22.65,58.53,67.37v9.37l10.13-1.36,2-16.56,2,16.56,15.8,2.11-15.8,2.11-2,16.56-2-16.56L149.3,88c0,13.48,0,31.44-.08,49l5.39,5.39a8.25,8.25,0,0,1,8.62,1.66,7.9,7.9,0,0,1,2.32,5.76,88.57,88.57,0,0,0,21.74-58.08C187.29,41.68,145.39,1.06,93.65,1.06Zm55.6,41a2.93,2.93,0,1,1,2.93-2.93A2.93,2.93,0,0,1,149.25,42ZM165.05,56,163.7,67.08,162.41,56l-10.59-1.4,10.59-1.4L163.7,42l1.35,11.12,10.54,1.4Zm7.61,50.45a2.93,2.93,0,1,1,2.93-2.93A2.93,2.93,0,0,1,172.66,106.41ZM40.11,26.3a12.86,12.86,0,0,1,2.61-2.18l2.52-1.58a12.25,12.25,0,0,1,3.26-1.38,45.29,45.29,0,0,1,6.4-12A94.05,94.05,0,0,0,32,23.46,34.14,34.14,0,0,1,40.11,26.3ZM12.67,46.17A88.22,88.22,0,0,0,0,91l13-1.7,1.64-13.75,1.64,13.75L29.38,91l-13,1.76-1.64,13.7-1.64-13.7L0,91v.82A88.51,88.51,0,0,0,19,146.6,8,8,0,0,1,20.78,144a8.19,8.19,0,0,1,8.7-1.62l2.74-2.74c0-26.2,0-52.88,0-62.48,0-2.43.11-4.86.3-7.29l-.77-.5C25.33,65.15,16.33,56.66,12.67,46.17ZM26.33,83a2.93,2.93,0,1,1,2.93-2.93A2.93,2.93,0,0,1,26.33,83Zm-7.25,37.05-1.35,11.06-1.29-11.06-10.59-1.4,10.59-1.4,1.29-11.12,1.35,11.12,10.59,1.4Z"/><path class="cls-2" d="M77.19,181.1a95,95,0,0,1-22.73-6.91A8.26,8.26,0,0,1,53,176.24l-.34.33a96.57,96.57,0,0,0,28.23,8.05,19.38,19.38,0,0,1-2.31-2A17.53,17.53,0,0,1,77.19,181.1Zm52.93-5.77-1.36.55a95,95,0,0,1-22.46,5.77,19,19,0,0,1-3.79,3.37,97.68,97.68,0,0,0,27.36-6.4c.89-.35,1.79-.73,2.68-1.11a8.11,8.11,0,0,1-1.63-1.23,7.44,7.44,0,0,1-.8-.95ZM90.78,9.78a64.64,64.64,0,0,0-11.12.93c.6.86,1.18,1.76,1.74,2.68s1,1.76,1.52,2.68a62.66,62.66,0,0,1,7.8-.49c30.14,0,47.09,14.55,51.5,44.32l3,.32,2.88.31-2.56,2.17L142.83,65c.37,3.82.56,7.85.56,12.12,0,12.35,0,33.32-.07,54.48a16.5,16.5,0,0,1,2.3,1.89l3.6,3.6c0-17.59.07-35.56.08-49V77.17c0-44.74-19.66-67.39-58.52-67.39ZM34.24,69.71,33,70.12l-.4-.26c-.19,2.42-.3,4.85-.3,7.29,0,9.6,0,36.28,0,62.48l2.87-2.87L38,133.83c0-24.23,0-47.8,0-56.74a85.05,85.05,0,0,1,.52-9.38,18.67,18.67,0,0,1-3.09,1.57c-.41.15-.81.3-1.23.43Z"/><path class="cls-3" d="M128.76,122.13l-1.39-.9a22.7,22.7,0,0,1-3.48,9.57,17.8,17.8,0,0,1,4.86-1.9,19.09,19.09,0,0,1,8.24-.06,54.65,54.65,0,0,0-8.23-6.71Zm0,49.93a8.2,8.2,0,0,1-.12-1.32,7.2,7.2,0,0,1,.12-1.32,7.71,7.71,0,0,1,.54-1.83l-8.91-8.91A17.51,17.51,0,0,1,115.18,146a17.77,17.77,0,0,1,2.19-8.58,34.09,34.09,0,0,1-6.46,3.53V153.6a8.23,8.23,0,0,1,0,15.41v.31a18.66,18.66,0,0,1-4.61,12.32,95,95,0,0,0,22.46-5.77l1.36-.55a7.85,7.85,0,0,1-1.25-2.74c0-.16-.08-.34-.11-.52ZM55.4,124.39c-.94.73-1.84,1.49-2.73,2.27-.65.57-1.29,1.15-1.91,1.75.64,0,1.27,0,1.91.06A18.34,18.34,0,0,1,59,130.18,27.36,27.36,0,0,1,55.4,124.39ZM73,169.33V169a8.25,8.25,0,0,1-5.33-7.71,8.09,8.09,0,0,1,2.46-5.85A7.66,7.66,0,0,1,73,153.6V140.69a37.75,37.75,0,0,1-6.6-3.56,17.2,17.2,0,0,1,2.39,9,17.48,17.48,0,0,1-5.21,12.58l-8.91,8.91a8,8,0,0,1,.6,3c0,.23,0,.46,0,.68a8,8,0,0,1-.81,2.89A95,95,0,0,0,77.2,181.1,18.42,18.42,0,0,1,75,177.67,18.65,18.65,0,0,1,73,169.33Z"/><path class="cls-4" d="M124.84,116.65a2.84,2.84,0,0,0-2.87,1.61,3,3,0,0,0-.29,1.09c-.61,8.22-5.75,12.93-11.46,15.63.12.45.25.91.34,1.37a19.33,19.33,0,0,1,.36,3.66v1a34.09,34.09,0,0,0,6.46-3.53,17.4,17.4,0,0,1,3-4,16.69,16.69,0,0,1,3.51-2.65,22.84,22.84,0,0,0,3.48-9.57c.06-.47.12-.93.16-1.42A2.94,2.94,0,0,0,124.84,116.65Zm-64.21,5a2.82,2.82,0,0,0-.35-.64,2.93,2.93,0,0,0-5.21,2.58c0,.09.14.39.33.83A26.75,26.75,0,0,0,59,130.2a16.76,16.76,0,0,1,4.66,3.26,18.23,18.23,0,0,1,2.82,3.67,38.12,38.12,0,0,0,6.6,3.56V140a20.16,20.16,0,0,1,.16-2.35,18.26,18.26,0,0,1,.64-3.06C63.7,129.73,60.79,122.11,60.63,121.63Z"/><path class="cls-5" d="M115,115.39c-1.11-.37-2.24-.71-3.38-1l-1.55-.41a44.61,44.61,0,0,1-36.51.94c-1.16.36-2.31.74-3.44,1.17A56.78,56.78,0,0,0,60.28,121a3.06,3.06,0,0,1,.35.64c.16.48,3.07,8.1,13.21,13a18.9,18.9,0,0,1,31.5-7.93,18.47,18.47,0,0,1,4.87,8.31c5.71-2.7,10.85-7.41,11.46-15.63a3.09,3.09,0,0,1,.29-1.09l-.51-.26A59.23,59.23,0,0,0,115,115.39ZM83.7,110.45a36.79,36.79,0,0,0,42.25-25l-.17-.09L123,83.92c.14,2.24-2.75,4.57-6.71,5.35-3.15.62-6.07.06-7.5-1.27l-6.14,3.2L105.29,79l1.23-5.62-4.68-4L99,67H85l-.49.43-2.41,2.09-4.74,4.16,1.29,5.91,2.63,12.35L73.3,87.69C72,89.25,68.9,90,65.5,89.28c-3-.6-5.45-2.11-6.34-3.79l-1,.52-1.94,1A36.5,36.5,0,0,0,83.7,110.45ZM110,92.07A18.06,18.06,0,0,1,100.26,105a19,19,0,0,1-7.9,1.93,18.5,18.5,0,0,1-5.77-.8h0A21,21,0,0,1,80.25,103a19.09,19.09,0,0,1-7.67-10.77L110,92.07Z"/><path class="cls-6" d="M93.59,97.28c-5.24-1-9.69.23-11.12,5.15a21,21,0,0,0,18.93.19C100.13,99.36,98,98.19,93.59,97.28ZM64.15,82.82l-5,2.64c.89,1.68,3.3,3.19,6.34,3.79,3.4.67,6.52,0,7.8-1.59L70.11,86Zm55.6-.58-6,3.16-5,2.6c1.43,1.33,4.34,1.89,7.5,1.27,4-.78,6.85-3.1,6.71-5.35Z"/><path class="cls-7" d="M52.67,96.53v30.13c.89-.78,1.79-1.54,2.73-2.27-.19-.45-.3-.74-.33-.83A2.93,2.93,0,0,1,60.28,121a57.49,57.49,0,0,1,9.83-4.92c1.13-.43,2.27-.81,3.44-1.17A43.51,43.51,0,0,1,52.67,96.53ZM110.07,114c.52.13,1,.26,1.55.41,1.14.31,2.27.65,3.38,1a57.9,57.9,0,0,1,6.47,2.61l.51.26a2.84,2.84,0,0,1,2.87-1.61,2.9,2.9,0,0,1,2.69,3.16c0,.48-.1,1-.16,1.42.47.29.93.59,1.39.9V96.94a43.84,43.84,0,0,1-18.7,17Zm12.84-66.08v.8l2,4.12,2.75,5.56,1,.11V47.88Zm-8.49,5L116.31,49l.75-1.51V42H111.2V58.41l.53,0ZM99.5,59.65l5.5-.59.35,0V47.88H99.5Zm-7.79,1.46h.4l-.2-.17Zm-3.92-.89,3.76.41-.13-.11,2.23-.24V53.73H87.79ZM80.24,48.76a5.6,5.6,0,0,1-1.76.12c-.66,0-1.48,0-2.4-.08V59l2.75.29,3.1.34V48.21l-.29.43Zm-10.89,4.1,2.75,5.68.29,0V48.4a40.65,40.65,0,0,1-5.12-1.11l-.65-.2.26.54Zm-10.84.87H52.67v5.2l3.52-.4Z"/><path class="cls-8" d="M142.84,65l-5.17,4.39-4.68,4L134.22,79l2.69,12.23-4.42-2.3a42.71,42.71,0,0,1-3.72,8v25.19a54.68,54.68,0,0,1,8.24,6.72,17.59,17.59,0,0,1,6.32,2.72c0-21.16.07-42.13.07-54.48,0-4.27-.2-8.3-.56-12.12ZM47.05,91.9l2.63-12.35L51,73.64l-4.74-4.16-4.69-4.06a20.4,20.4,0,0,1-3,2.29A87.57,87.57,0,0,0,38,77.09c0,8.94,0,32.51,0,56.74l.37-.37a17.77,17.77,0,0,1,12.37-5c.62-.6,1.26-1.18,1.91-1.75V96.53a43.43,43.43,0,0,1-2.94-6.06L47.05,91.9Zm81.71-33.43,2.88.3,1.39.14,1.46.15,7.72.83c-4.41-29.77-21.36-44.32-51.5-44.32a62.66,62.66,0,0,0-7.8.49,38.3,38.3,0,0,1,4,11.5,29,29,0,0,1,.39,4.27,25.89,25.89,0,0,1-.91,7.31,27.19,27.19,0,0,1-4,8.38l-.47.68V59.56l5.85.64V53.72h5.85v6.55l5.85-.63V47.88h5.85V59l5.85-.61V42H117v5.5l2.61-5.27,0,0,.06.12,3.16,6.35v-.8h5.85V58.47ZM59,43.79l-.41.29-2.52,1.58a12.49,12.49,0,0,1-1.31.68A13,13,0,0,1,51,47.43a43.72,43.72,0,0,1-4.81,12.21l2.06-.22,1.23-.13.22,0,3-.34v-5.2h5.84l.43-.88,3.53-7.3c-.92-.4-1.83-.84-2.75-1.34C59.48,44.08,59.24,43.93,59,43.79ZM72.4,58.56l3.69.38V48.79c-1.09-.07-2.33-.19-3.69-.4Zm4.41-41.38c-.52-.88-1.06-1.72-1.61-2.52S74,12.93,73.37,12.15a60.48,60.48,0,0,0-5.2-5.88c-7,2-11.23,9.66-13.39,14.83q.42.11.84.24a13.44,13.44,0,0,1,2.29.94,31.27,31.27,0,0,1,3.67-5.06,30.29,30.29,0,0,1,7.17-5.91l1.59,1.82.07,0s-3.58,1.4-6.91,6.22a27.53,27.53,0,0,0-2.68,5l.06.06a12.37,12.37,0,0,1,1.69,2l12.52-5.4,1,1.64L63.91,29.26a12.18,12.18,0,0,1,.54,2.28,26.29,26.29,0,0,0,6.68.63A16.84,16.84,0,0,0,79.31,30l.59,2.4a30,30,0,0,1-7.49,2.31,32.26,32.26,0,0,1-6.28.44H66c-.54,0-1-.05-1.52-.09a14.17,14.17,0,0,1-.34,1.57A12.7,12.7,0,0,1,63,39.36c.53.27,1,.53,1.58.76s.91.39,1.36.56a33.24,33.24,0,0,0,6.44,1.76c.68.12,1.34.21,2,.28a35.84,35.84,0,0,0,4.07.24,22.44,22.44,0,0,0,1.24-2.37,19.91,19.91,0,0,0,1.82-7.94,22.38,22.38,0,0,0-.31-4.18A33,33,0,0,0,76.81,17.18ZM36.11,60.7l.54-.06,1.64-.17a18.49,18.49,0,0,0,1.84-2.2,35,35,0,0,0,5-11.49c-.28-.1-.55-.2-.82-.32a25.5,25.5,0,0,1-1.53,2.87,28.56,28.56,0,0,1-4.92,6A25.83,25.83,0,0,1,34.3,58c-.29.19-.57.38-.87.56l-1.52-1.7a12.29,12.29,0,0,0,3.19-2.17A22.6,22.6,0,0,0,41.32,44.6a12.79,12.79,0,0,1-1.92-2c-.15-.19-.28-.39-.42-.59l-13.52,5.9-1-1.58,13-7.13a12.38,12.38,0,0,1-.43-1.47C26.88,35.2,21.24,39.1,21.24,39.1l-.59-2.4A30.66,30.66,0,0,1,36.77,34a12.56,12.56,0,0,1,.46-2.59,30,30,0,0,0-10.73-2.9,36.5,36.5,0,0,0-7.85.16A20.36,20.36,0,0,0,17,39.56C18.48,51,29.1,60.12,33.3,63.26l.51.37a13.38,13.38,0,0,0,2.54-1.48c.25-.19.5-.38.74-.59l-.54-.47Zm7.43-22.24a6.78,6.78,0,0,0,3,2.54,7.2,7.2,0,0,0,2,.55,6.92,6.92,0,0,0,3.16-.31,7,7,0,0,0,1.3-.61l.89-.56,1.63-1a7.51,7.51,0,0,0,.9-.67,6.76,6.76,0,0,0,1.73-2.33,6.87,6.87,0,0,0-.4-6.37,7.65,7.65,0,0,0-1.35-1.54A6.93,6.93,0,0,0,54,26.8l-.23-.08a6.81,6.81,0,0,0-1.87-.26,6.72,6.72,0,0,0-1.1.1,6.23,6.23,0,0,0-1,.23,6.74,6.74,0,0,0-1.5.67l-.28.18L45.79,29a6.72,6.72,0,0,0-.67.48,6.8,6.8,0,0,0-1.84,2.33,7,7,0,0,0-.55,4.45A6.39,6.39,0,0,0,43.54,38.46Z"/><path class="cls-9" d="M128.76,64.42l-3-.32a3.36,3.36,0,0,1-2.69-1.81l-.18-.35-.26-.52,0,0-.13-.26-.19-.39-2.62-5.29-2.63,5.41-.13.27-.3.62-.21.41A3.4,3.4,0,0,1,113.72,64l-2.52.27-5.56.6.69.59L108.11,67l3.5,3a3.13,3.13,0,0,1,1,2.93L111,80.24l7.2-3.57a2.51,2.51,0,0,1,.89-.33h0a4.17,4.17,0,0,1,.71-.07,3.44,3.44,0,0,1,1.64.41l7.08,3.69L126.89,73a3,3,0,0,1,1-2.93l.88-.75L131.53,67l1.78-1.52.55-.47Zm-56.36,0-2.11-.23A3.36,3.36,0,0,1,67.6,62.4L67,61.11,66,59l-1.76-3.6-2.72,5.68-.62,1.29a3.42,3.42,0,0,1-2.34,1.73l-.35.08-2.46.27-1.4.15-1.64.18-2.58.28.41.35L52.3,67l3.94,3.34a3.31,3.31,0,0,1,1,1.88,2.91,2.91,0,0,1,0,1.1L55.6,80.78l2.25-1.19.13-.07L62.68,77a3.27,3.27,0,0,1,1.64-.41A3.44,3.44,0,0,1,66,77L73,80.78,71.4,73.29a3.07,3.07,0,0,1,1-3l1.12-1L76.22,67,78,65.44l.4-.35-2.28-.25-3.68-.4Z"/><path class="cls-10" d="M97.22,65.44l-.29-.25-3.28-2.78-1.54-1.3h-.4L87.79,64.5l-1.08.94L85,67H99Zm-9.93-33.6a29,29,0,0,0-.39-4.27,38.3,38.3,0,0,0-4-11.5c-.48-.92-1-1.81-1.52-2.68s-1.14-1.82-1.74-2.68A55.67,55.67,0,0,0,73.4,3.19c-.84-.85-1.67-1.62-2.47-2.31L69.88,0,68.53.23c-5.93,1-10.38,4.71-13.64,8.92a45.29,45.29,0,0,0-6.4,12,12.25,12.25,0,0,0-3.26,1.38l-2.52,1.58a12.6,12.6,0,0,0-2.61,2.18A34.14,34.14,0,0,0,32,23.45a40.16,40.16,0,0,0-16-.22l-1.35.23L14,24.69a26.53,26.53,0,0,0-1.37,21.47c3.65,10.49,12.66,19,19.1,23.19l.77.5.4.26,1.29-.41c.42-.13.83-.28,1.23-.44a18.67,18.67,0,0,0,3.09-1.57,19.88,19.88,0,0,0,3-2.29l-2.18-1.89-.23-.2-2-1.76-.74.59a13.08,13.08,0,0,1-2.54,1.48l-.51-.37C29.1,60.11,18.48,51,17,39.55a20.37,20.37,0,0,1,1.61-10.87,36.5,36.5,0,0,1,7.85-.16,30.55,30.55,0,0,1,10.73,2.9A12.8,12.8,0,0,0,36.77,34a30.66,30.66,0,0,0-16.12,2.68l.59,2.4s5.64-3.89,15.82-1.34a11.65,11.65,0,0,0,.43,1.47l-13,7.13,1,1.58L39,42c.14.2.27.4.42.59a12.36,12.36,0,0,0,1.92,2A22.78,22.78,0,0,1,35.1,54.72a12.29,12.29,0,0,1-3.19,2.17l1.52,1.7c.3-.18.58-.37.87-.56a26.63,26.63,0,0,0,3.57-2.75,28.24,28.24,0,0,0,4.92-6,23.2,23.2,0,0,0,1.53-2.87c.27.12.54.22.82.32a35,35,0,0,1-5,11.49,18.49,18.49,0,0,1-1.84,2.2l1.4-.15,2.8-.3,3.68-.39A43.83,43.83,0,0,0,51,47.41a12.6,12.6,0,0,0,3.78-1.09c.44-.2.88-.43,1.31-.68l2.52-1.58.41-.29.72.42c.92.5,1.83.94,2.75,1.34l1.29-2.67L64.2,42l.64,1.36L66,45.66l.67,1.41.65.2a40.65,40.65,0,0,0,5.12,1.11c1.36.21,2.6.33,3.69.4.92.06,1.74.08,2.4.08a5.72,5.72,0,0,0,1.76-.12l1.4-.12.29-.43.48-.66a27.19,27.19,0,0,0,4-8.38,26,26,0,0,0,.91-7.31ZM53,40.62a5.92,5.92,0,0,1-1.3.61,6.93,6.93,0,0,1-3.16.31,7.2,7.2,0,0,1-2-.55,6.82,6.82,0,0,1-2.35-1.7,6.64,6.64,0,0,1-.64-.84,6.75,6.75,0,0,1-.83-2.15,7,7,0,0,1,.55-4.45,6.8,6.8,0,0,1,1.84-2.33,5.42,5.42,0,0,1,.67-.48L48,27.64l.28-.18a6.74,6.74,0,0,1,1.5-.67,6.51,6.51,0,0,1,1-.23,6.72,6.72,0,0,1,1.1-.1,7.28,7.28,0,0,1,1.87.26l.23.08a6.73,6.73,0,0,1,4.15,9.25,6.93,6.93,0,0,1-2.63,3l-1.63,1Zm11.63-.51c-.53-.23-1-.49-1.58-.76a12.7,12.7,0,0,0,1.09-2.71,14.17,14.17,0,0,0,.34-1.57c.46,0,1,.07,1.52.09h.15a30.76,30.76,0,0,0,6.28-.44,29.84,29.84,0,0,0,7.49-2.31L79.3,30a16.71,16.71,0,0,1-8.18,2.14,26.76,26.76,0,0,1-6.68-.63,13,13,0,0,0-.54-2.28L76.08,22.7l-1-1.64-12.52,5.4a11.6,11.6,0,0,0-1.69-2.05l-.06-.06a27.53,27.53,0,0,1,2.68-5c3.33-4.82,6.91-6.22,6.91-6.22l-.05-.05-1.59-1.82a30.09,30.09,0,0,0-7.17,5.91,30.67,30.67,0,0,0-3.67,5.06,13.44,13.44,0,0,0-2.29-.94c-.28-.08-.55-.17-.84-.24,2.15-5.17,6.4-12.85,13.39-14.83a59.28,59.28,0,0,1,5.2,5.88c.61.79,1.22,1.62,1.83,2.51s1.09,1.65,1.61,2.52a33.14,33.14,0,0,1,4.37,11.3,22.32,22.32,0,0,1,.31,4.18,20.3,20.3,0,0,1-1.82,7.94A22.44,22.44,0,0,1,78.44,43a35.84,35.84,0,0,1-4.07-.24c-.62-.07-1.28-.17-2-.28A33.24,33.24,0,0,1,66,40.67c-.46-.17-.92-.35-1.37-.56Z"/><path class="cls-11" d="M22.85,157.25a12,12,0,0,0,.32,16.59,12.24,12.24,0,0,0,11,3.11,11.62,11.62,0,0,0,5.59-2.79L22.85,157.25ZM79,169.57a12.9,12.9,0,0,0,3.8,9l.47.43a12.95,12.95,0,0,0,14.39,2.15,13.15,13.15,0,0,0,2.85-1.85,13,13,0,0,0,4.58-9.68H79Zm82.23-12.23-16.93,16.93a11.74,11.74,0,0,0,5.58,2.75,12.19,12.19,0,0,0,10.95-3.12,12,12,0,0,0,.4-16.56Z"/><path class="cls-12" d="M52.67,134.28a12.4,12.4,0,0,0-8.59,2,10.71,10.71,0,0,0-1.53,1.25L38,142.09,34.06,146,38,150l13,13,8.49-8.49a11.83,11.83,0,0,0-6.85-20.24Zm52.09,2.7a13.07,13.07,0,0,0-12.7-10.08,13.12,13.12,0,0,0-13,13v13.19h26.1V140c0-.36,0-.71,0-1.06A12.82,12.82,0,0,0,104.76,137Zm36.71.63A11.87,11.87,0,0,0,133,134.1a12.08,12.08,0,0,0-4.21.76,12,12,0,0,0-4.27,19.73l8.49,8.49,17-17-8.49-8.5Z"/><path class="cls-13" d="M46.49,166.73,38,158.25l-2.12-2.11-.8-.8-2.86-2.86-4.35-4.34a1.91,1.91,0,0,0-1.4-.59,2,2,0,0,0-1.52.59,2.09,2.09,0,0,0,0,2.87l21.13,21.13a2.17,2.17,0,0,0,2.93,0,2,2,0,0,0,.33-.45h0a2,2,0,0,0,.25-1,2.25,2.25,0,0,0-.59-1.46l-2.5-2.48ZM108,158.91H76a2.13,2.13,0,0,0-1.64.7,2.39,2.39,0,0,0-.76,1.7,2.37,2.37,0,0,0,2.4,2.4h32a2.4,2.4,0,1,0,0-4.8Zm51-10.65a1.65,1.65,0,0,0-1.4-.7,2.19,2.19,0,0,0-1.52.59L135,169.28a1.84,1.84,0,0,0-.48.78,2.17,2.17,0,0,0-.11.69,2.25,2.25,0,0,0,.59,1.46,1.9,1.9,0,0,0,.95.5,2.17,2.17,0,0,0,1.86-.41l.12-.1,1.07-1.07.86-.85,2.05-2.05,4.22-4.21,3-3,2.62-2.61,7.31-7.29a2.26,2.26,0,0,0,.28-.35,2,2,0,0,0-.29-2.52Z"/><path class="cls-14" d="M80.24,103a20.74,20.74,0,0,0,5,2.65c.43.17.88.33,1.36.47h0c.35.1.72.2,1.1.29a18.38,18.38,0,0,0,4.67.51,19,19,0,0,0,7.9-1.93A18.06,18.06,0,0,0,110,92.07l-37.45.12A19.09,19.09,0,0,0,80.24,103Zm13.35-5.68c4.41.91,6.54,2.08,7.81,5.34a21,21,0,0,1-18.93-.19C83.9,97.51,88.35,96.26,93.59,97.28ZM37.11,61.56l2,1.76.23.2,2.18,1.89,4.69,4.06L51,73.63l-1.29,5.91L47.06,91.89l2.68-1.42A44.06,44.06,0,0,0,73.56,114.9a44.4,44.4,0,0,0,55.21-18,42.71,42.71,0,0,0,3.72-8l4.42,2.3L134.22,79,133,73.34l4.68-4L142.84,65l2.69-2.28,2.56-2.17-2.88-.31-3-.32-7.72-.83-1.46-.15-1.39-.14-2.88-.3-1-.11L125,52.8l-2-4.12-3.16-6.35-.06-.12,0,0-2.61,5.27L116.32,49l-1.89,3.81-2.69,5.5-.53,0-5.85.61-.35,0-5.5.59-5.85.63-2.22.24.12.11-3.75-.41L82,59.57l-3.1-.34-2.75-.29-3.69-.38-.29,0-2.75-5.68-2.47-5.22-.26-.54L66,45.68l-1.11-2.35L64.23,42l-.44.91L62.5,45.55,59,52.85l-.43.88-2.33,4.8-3.51.4-3,.34-.22,0-1.23.13-2.06.22L42.51,60l-2.8.3-1.4.15-1.64.17-.54.06.45.39.53.46Zm30.49.84a3.31,3.31,0,0,0,2.69,1.81l2.11.23,3.69.4,2.28.25-.4.35L76.23,67l-2.7,2.36-1.12,1a3.06,3.06,0,0,0-1,3l1.64,7.49L66,77a3.44,3.44,0,0,0-1.64-.41,3.27,3.27,0,0,0-1.64.41L58,79.52l-.13.07-2.25,1.19,1.64-7.49a2.91,2.91,0,0,0,0-1.1,3.22,3.22,0,0,0-1-1.88L52.31,67l-1.8-1.52-.41-.35,2.58-.28,1.64-.18,1.4-.15,2.46-.27.35-.08a3.42,3.42,0,0,0,2.34-1.73l.62-1.29,2.72-5.68L66,59l1,2.07.62,1.29Zm49.33-1.29.13-.27,2.63-5.41,2.62,5.29.19.39.13.26,0,0,.26.52.18.35a3.31,3.31,0,0,0,2.69,1.81l3,.32,5.09.55-.55.47-1.78,1.52-2.76,2.35-.88.75a3,3,0,0,0-1,2.93l1.64,7.37-7.08-3.69a3.44,3.44,0,0,0-1.64-.41,4.27,4.27,0,0,0-.71.07h0a2.64,2.64,0,0,0-.89.33L111,80.22l1.64-7.37a3.14,3.14,0,0,0-1-2.93l-3.5-3-1.78-1.52-.69-.59,5.56-.6,2.52-.27a3.43,3.43,0,0,0,2.69-1.81l.21-.44.31-.59Zm-24.82,0,1.53,1.3,3.28,2.78.29.25L99,67l2.83,2.4,4.68,4L105.28,79l-2.69,12.23,6.14-3.2,5-2.6,6-3.16,3.2,1.68,2.83,1.48.17.09A36.86,36.86,0,0,1,56.23,87l1.94-1,1-.52,5-2.64,6,3.16,3.18,1.69,7.94,4.22L78.6,79.54l-1.29-5.91,4.74-4.16,2.41-2.09L85,67l1.76-1.52,1.08-.93,3.92-3.4.2-.17.2.18Zm-23.28,85a17.2,17.2,0,0,0-2.39-9,18,18,0,0,0-2.82-3.67A16.76,16.76,0,0,0,59,130.2a18.34,18.34,0,0,0-6.28-1.71,17.41,17.41,0,0,0-1.91-.06,17.77,17.77,0,0,0-12.37,5l-3.3,3.3-2.87,2.87-2.74,2.74a8.17,8.17,0,0,0-8.7,1.62,8,8,0,0,0-1.74,2.61,7.86,7.86,0,0,0,.08,6.13l-.1.1a17.87,17.87,0,0,0,0,25.22,17.87,17.87,0,0,0,12.64,5.21,17.6,17.6,0,0,0,2.52-.2v9.5H28a3.75,3.75,0,0,0,0,7.5H50.35a3.74,3.74,0,0,0,3.75-3.75,3.78,3.78,0,0,0-3.75-3.75h-6.2V178.22l.12-.1.16-.16a8,8,0,0,0,3.11.63,7.49,7.49,0,0,0,5.16-2l.34-.33a8.26,8.26,0,0,0,1.44-2.05,8,8,0,0,0,.81-2.89c0-.23,0-.45,0-.68a7.91,7.91,0,0,0-.6-3l8.91-8.91a17.61,17.61,0,0,0,5.2-12.59ZM23.17,173.84a12,12,0,0,1-.32-16.59l16.91,16.91A11.49,11.49,0,0,1,34.17,177a12.24,12.24,0,0,1-11-3.11ZM49,172.14a2.17,2.17,0,0,1-2.93,0L24.93,151a2.09,2.09,0,0,1,0-2.87,2,2,0,0,1,1.52-.59,1.88,1.88,0,0,1,1.4.59l4.35,4.34,2.86,2.86.8.8L38,158.25l8.5,8.48,2.5,2.49a2.33,2.33,0,0,1,.59,1.46,2,2,0,0,1-.25,1h0A2.2,2.2,0,0,1,49,172.14ZM51,163,38,150,34.06,146,38,142.09l4.54-4.54a11.3,11.3,0,0,1,1.53-1.25,12.53,12.53,0,0,1,8.59-2,11.64,11.64,0,0,1,6.85,3.27,12,12,0,0,1,0,17L51,163Zm59.88-9.41V140a18.47,18.47,0,0,0-.36-3.66c-.09-.46-.21-.92-.34-1.37a18.42,18.42,0,0,0-4.87-8.31,18.9,18.9,0,0,0-31.5,7.93A19.85,19.85,0,0,0,73,140V153.6a7.86,7.86,0,0,0-2.87,1.86,8.09,8.09,0,0,0-2.46,5.85A8.23,8.23,0,0,0,73,169v.31a19,19,0,0,0,4.14,11.77,17.53,17.53,0,0,0,1.41,1.57,19.38,19.38,0,0,0,2.31,2A18.68,18.68,0,0,0,87,187.54v4.55H80.29a4,4,0,0,0,0,8h24a4,4,0,0,0,0-8H97.62v-4.66a19,19,0,0,0,4.89-2.35,19.49,19.49,0,0,0,6.13-6.73,18.71,18.71,0,0,0,2.27-9V169a8.24,8.24,0,0,0,0-15.42Zm-10.43,25.65a12.79,12.79,0,0,1-2.85,1.85A13,13,0,0,1,92,182.38a12.77,12.77,0,0,1-5-1A13.37,13.37,0,0,1,83.24,179c-.16-.14-.32-.28-.47-.43a12.84,12.84,0,0,1-3.8-9h26.1A13.06,13.06,0,0,1,100.48,179.25ZM79,140v-.08a13.12,13.12,0,0,1,13-13,12.82,12.82,0,0,1,9.25,3.86,13.14,13.14,0,0,1,3.76,8.18c0,.35.05.71.05,1.06v13.05H79Zm-3,23.76a2.37,2.37,0,0,1-2.4-2.4,2.41,2.41,0,0,1,.76-1.7,2.13,2.13,0,0,1,1.64-.7h32a2.4,2.4,0,1,1,0,4.8Zm76.32,19.55a17.88,17.88,0,0,0,12.58-30.49,7.91,7.91,0,0,0-1.7-8.67,8.26,8.26,0,0,0-8.62-1.66l-9-9a16.5,16.5,0,0,0-2.3-1.89,17.76,17.76,0,0,0-6.32-2.72,18.78,18.78,0,0,0-8.24.06,17.8,17.8,0,0,0-4.86,1.9,16.53,16.53,0,0,0-3.51,2.65,17.33,17.33,0,0,0-3,4,17.77,17.77,0,0,0-2.19,8.58,17.47,17.47,0,0,0,5.21,12.64l8.91,8.91a8.25,8.25,0,0,0-.66,3.15,7.2,7.2,0,0,0,.12,1.32l.11.53a7.85,7.85,0,0,0,1.25,2.74,7.35,7.35,0,0,0,.81,1,7.43,7.43,0,0,0,1.63,1.23,7.87,7.87,0,0,0,3.94,1.05,8.28,8.28,0,0,0,3.13-.62l.09.09.18.16v14.36h-6.2a3.75,3.75,0,0,0,0,7.5h22.36a3.75,3.75,0,0,0,0-7.5h-6.2V183a14.5,14.5,0,0,0,2.49.22ZM136,172.7a2,2,0,0,1-.95-.5,2.33,2.33,0,0,1-.59-1.46,2.22,2.22,0,0,1,.11-.69,1.91,1.91,0,0,1,.48-.78l21.13-21.13a2.24,2.24,0,0,1,1.52-.59,1.65,1.65,0,0,1,1.4.7,2,2,0,0,1,.28,2.52,2.26,2.26,0,0,1-.28.35l-7.31,7.29L149.14,161l-3,3-4.22,4.21-2,2.05-.86.85-1.07,1.07-.12.1a2.1,2.1,0,0,1-1.85.41Zm-11.48-35.09a12,12,0,0,1,17,0L150,146.1l-17,17-8.49-8.49a12,12,0,0,1,0-17ZM149.84,177a11.7,11.7,0,0,1-5.58-2.75l16.93-16.93a12,12,0,0,1-.4,16.56A12.24,12.24,0,0,1,149.84,177Z"/><path class="cls-15" d="M163.41,85.16l-2-16.56-2,16.56L149.3,86.52V88l10.13,1.36,2,16.56,2-16.56,15.8-2.11Zm-145.68,21-1.29,11.12-10.59,1.4,10.59,1.41,1.29,11.06,1.35-11.06,10.59-1.41-10.59-1.4ZM162.42,56l1.29,11.12L165.05,56l10.54-1.41-10.54-1.4L163.71,42l-1.29,11.12-10.59,1.4ZM14.69,106.41l1.64-13.7L29.38,91l-13-1.7L14.69,75.51,13.05,89.26,0,91H0l13,1.75Z"/><circle class="cls-15" cx="172.66" cy="103.48" r="2.93"/><circle class="cls-15" cx="26.33" cy="80.07" r="2.93"/><circle class="cls-15" cx="149.25" cy="39.1" r="2.93"/></g></g></svg>