<svg xmlns="http://www.w3.org/2000/svg" viewBox="0 0 191.73 198.77"><defs><style>.cls-1{fill:#64c9d7;}.cls-2{fill:#addfe6;}.cls-3{fill:#3cbfd1;}.cls-4{fill:#6d6e70;}.cls-5{fill:#9cdde6;}.cls-6{fill:#fff;}.cls-7{fill:#808184;}.cls-8{fill:#231f20;}.cls-9{fill:#b1b3b3;}.cls-10{fill:#e6e7e8;}.cls-11{fill:#a6ce42;}.cls-12{fill:#373737;}</style></defs><title>Ресурс 1</title><g id="Слой_2" data-name="Слой 2"><g id="Layer_1" data-name="Layer 1"><path class="cls-1" d="M127.65,6.3V29.61a12.66,12.66,0,0,1,2.88,8c-.11,5-3.4,9.34-8.82,12.56l7.46,18.64a47.5,47.5,0,0,1,11.36.28l-1.05-9.13L128.3,58.41l11.18-1.47,1.35-11.71,1.41,11.71,11.18,1.47-11.18,1.53-1.11,9.21a86.2,86.2,0,0,1,19.34,5.45c1.43-3.53,4.11-8.39,8.36-9.66a3.29,3.29,0,0,1,2.82.59s5.47,4,4.71,6.35-4.62.71-6.49,6.06c9.31,3.09,14.79,7.49,17.82,12.28A94,94,0,0,0,127.65,6.3Zm-65,30.06a12.4,12.4,0,0,1,2.88-7.56V6.42a1.37,1.37,0,0,1,.35-.24,4.81,4.81,0,0,1-.35-1.8A94.28,94.28,0,0,0,18.18,149.83L23,140.48,47.84,72.7,31.76,74.83,29.05,97.24,26.34,74.83,5.05,72l21.29-2.82,2.71-22.47,2.71,22.47,16.56,2.2,3.2-8.73,9.36,3.44,9-17.65a21.83,21.83,0,0,1-3.13-2.67,13.23,13.23,0,0,1-4.1-9.42ZM35.47,167.83l.69.28c-1.22-.85-2.41-1.75-3.56-2.68C33.54,166.24,34.5,167.05,35.47,167.83Z"/><path class="cls-2" d="M36.16,168.11c8.94,6.25,19.69,10.45,30.69,13a46.08,46.08,0,0,1-3.12-4.13A194.86,194.86,0,0,1,36.16,168.11Zm21.06-5.47A16.57,16.57,0,0,1,49.61,152c-.11-.52-.19-1-.25-1.57l-26.47-9.73.06-.17-4.77,9.35a95.61,95.61,0,0,0,14.43,15.6q1.72,1.4,3.56,2.68a194.86,194.86,0,0,0,27.57,8.83A46.77,46.77,0,0,1,57.22,162.64ZM86.72,63a16.82,16.82,0,0,1,19.5,13.63,16.31,16.31,0,0,1-.13,6.12l2.33.86c4.24-9.9,12.16-13.85,20.75-14.78l-7.46-18.64c-5.95,3.53-14.46,5.68-24.18,5.68H96.24c-10.45-.2-20.13-2.95-26.34-7.39l-9,17.65,13.92,5.12A17,17,0,0,1,86.72,63Zm15.83,98.72L99.89,169,81.09,162a26.63,26.63,0,0,0,18,13.09c4,.83,8.45.06,13-1.84L114,162l-11.44-.3Z"/><path class="cls-3" d="M119.35,29.89h-.06l-.71-.47c-5.29-3.29-13.24-5.29-21.71-5.41h-.94c-9.41,0-18.06,2.29-23.18,6.06l-.88.59c-2.29,2-3.35,3.88-3.35,5.82A7.15,7.15,0,0,0,71,41.72a23.19,23.19,0,0,0,8.28,5.1A50,50,0,0,0,96.34,50h1.24c9.47,0,17.16-2.25,21.9-5.33,3.29-2.14,5.17-4.68,5.21-7.14s-1.87-5.24-5.34-7.59ZM75.18,37.71c0-6.24,11.35-8.41,21.06-8.41s21.06,2.18,21.06,8.41S106,46.12,96.24,46.12,75.18,44,75.18,37.71Zm35.76,0c-1.88-1.06-6.94-2.53-14.65-2.53s-12.82,1.41-14.65,2.53c1.88,1.06,6.94,2.53,14.65,2.53S109.06,38.77,110.94,37.71Z"/><path class="cls-4" d="M127.65,29.61l-.06-.07a22,22,0,0,0-5.65-4.95l-.71-.59h-.35c-6.12-3.59-14.82-5.71-23.94-5.88H95.88c-10.35,0-19.76,2.41-25.94,6.71l-.88.59a18.65,18.65,0,0,0-3.47,3.31l-.06.07a12.38,12.38,0,0,0-2.88,7.56,13.17,13.17,0,0,0,4.11,9.41,21.21,21.21,0,0,0,3.13,2.67c6.21,4.44,15.89,7.19,26.34,7.39h1.29c9.72,0,18.23-2.14,24.18-5.68,5.42-3.22,8.71-7.59,8.82-12.56A12.67,12.67,0,0,0,127.65,29.61ZM96.35,50a50.15,50.15,0,0,1-17.07-3.13A23.33,23.33,0,0,1,71,41.72a7.13,7.13,0,0,1-2.47-5.24c0-1.94,1.06-3.82,3.35-5.82l.88-.59C77.88,26.31,86.52,24,95.94,24h.94c8.47.12,16.41,2.12,21.71,5.41l.71.47h.06c3.47,2.35,5.41,5,5.35,7.59s-1.92,5-5.21,7.14C114.76,47.7,107.07,50,97.6,50Z"/><path class="cls-5" d="M96.24,29.3c-9.71,0-21.06,2.18-21.06,8.41s11.35,8.41,21.06,8.41,21.06-2.18,21.06-8.41S105.94,29.3,96.24,29.3Zm.05,10.94c-7.71,0-12.76-1.47-14.65-2.53,1.82-1.12,6.94-2.53,14.65-2.53s12.76,1.47,14.65,2.53C109.06,38.77,104,40.24,96.29,40.24Z"/><path class="cls-6" d="M47.84,72.7l.48-1.32-16.56-2.2-2.7-22.47L26.35,69.18,5.06,72l21.29,2.82,2.71,22.41,2.7-22.41Zm93-27.46L139.47,57l-11.18,1.47L139.47,60l1.05,9.13.6.08L142.23,60l11.18-1.53L142.23,57Z"/><circle class="cls-6" cx="40.82" cy="58.01" r="4.29"/><circle class="cls-6" cx="151.35" cy="47.42" r="4.29"/><circle class="cls-6" cx="16.18" cy="86.59" r="4.29"/><path class="cls-6" d="M59.75,108.71l3.62-.12q-1.08-3-2.08-6Zm-4.1,16.41a3.25,3.25,0,0,1-1.08,1.6,101.48,101.48,0,0,1,15.13-2.13l-.16-.29c-1.4-3.26-2.73-6.57-4-9.89l-7.26.25-2.62,10.46Zm48.23-36.94A17,17,0,0,1,92.32,95.9a16.82,16.82,0,0,1-19.5-13.63,16.37,16.37,0,0,1,0-5.5L58.19,71.39l-3.13-1.15-9.56,26-15,40.91,19.34,7.11a17,17,0,0,1,32.94.6,16.48,16.48,0,0,1-1.46,11l3.42,1.26,10.47-26.8a3,3,0,0,1-2.94,1.28,95.94,95.94,0,0,0-44.35,3,4.43,4.43,0,0,1-.88.12,3,3,0,0,1-.88-5.77c2-.62,4-1.17,6-1.67l-.14,0a2.93,2.93,0,0,1-2.12-3.59l2.51-10a2.88,2.88,0,0,1-.63-1.7,3,3,0,0,1,1.77-2.81l4.59-18.25A3,3,0,0,1,61,88.64a3,3,0,0,1,2.88,2.12A264.51,264.51,0,0,0,75,121.94a2.93,2.93,0,0,1-.07,2.44,100.92,100.92,0,0,1,18.36,1.39,2.94,2.94,0,0,1,2.42,3.31l5.53-14.15.23-.87a46.23,46.23,0,0,1,2.57-6.52,23.46,23.46,0,0,1,1.23-3.57,58.5,58.5,0,0,1,1.37-14.8Zm-8.7,25.65a3,3,0,0,1-2.88,2.24,2.84,2.84,0,0,1-.71-.06c-1.67-.42-3.8-.81-6-1.19l-.74,7a3,3,0,0,1-2.94,2.59H81.6A2.92,2.92,0,0,1,79,121.18l.78-7.35c-2.27-.39-4.41-.77-6.13-1.18A2.93,2.93,0,1,1,75,106.94c1.51.38,3.39.73,5.39,1.08l.73-6.9a2.93,2.93,0,1,1,5.83.65L86.2,109c2.53.43,4.93.85,6.82,1.3A2.93,2.93,0,0,1,95.18,113.83Z"/><path class="cls-7" d="M127.35,6.18A93.26,93.26,0,0,0,93.82,0,95,95,0,0,0,70.94,2.82c-1.82.48-3.65,1-5.41,1.54v0a4.77,4.77,0,0,0,.35,1.8,1.1,1.1,0,0,0-.35.24V28.8l.06-.07a18.64,18.64,0,0,1,3.47-3.31l.88-.59c6.18-4.29,15.59-6.71,25.94-6.71h1.06c9.12.18,17.82,2.29,23.94,5.88h.35l.71.59a22.14,22.14,0,0,1,5.65,4.95V6.3A.45.45,0,0,0,127.35,6.18ZM51.53,62.65l-3.2,8.73-.48,1.32L23,140.48l-.06.17,26.47,9.73a16.62,16.62,0,0,1,0-3.15,16.15,16.15,0,0,1,.51-2.94l-19.34-7.11,15-40.91,9.56-26,3.13,1.15,14.64,5.38a16.12,16.12,0,0,1,.74-2.85,17.52,17.52,0,0,1,1.25-2.71L60.9,66.09l-9.37-3.44Zm53.69,22.92a17,17,0,0,1-1.34,2.62l2.7,1c.24-1,.5-1.92.8-2.82s.66-1.91,1-2.79l-2.33-.86A15.5,15.5,0,0,1,105.22,85.57ZM87.55,161.3l-4.43-.11.52-1.33,1.07-2.74-3.42-1.26a18.08,18.08,0,0,1-1.6,2.54l-.11.16A24.69,24.69,0,0,0,81.09,162L99.89,169l2.66-7.27-3.14-.08-11.86-.3Z"/><path class="cls-8" d="M187.68,90.23c-3-4.78-8.51-9.19-17.82-12.28,1.87-5.35,5.7-3.62,6.49-6.06s-4.71-6.35-4.71-6.35a3.29,3.29,0,0,0-2.82-.59c-4.25,1.27-6.93,6.13-8.36,9.66a86.2,86.2,0,0,0-19.34-5.45l-.6-.08a47.48,47.48,0,0,0-11.36-.28c-8.59.92-16.51,4.88-20.75,14.78-.38.88-.72,1.81-1,2.79s-.56,1.83-.8,2.82A58,58,0,0,0,105.2,104a35.05,35.05,0,0,1,8.64-12.13c.8-.73,1.66-1.45,2.59-2.15s1.94-1.4,3-2.06a43.89,43.89,0,0,1,15-5.57c1.59-.29,3.24-.54,5-.71.06,0,32.91-3.35,43.9,20.7a46.27,46.27,0,0,1,3.36,6c.5,1.09,1,2.2,1.39,3.35.26.64.49,1.31.7,2,2.12-5.7,4.07-15-1.13-23.18Z"/><path class="cls-9" d="M135.18,150.24h0Zm20.88-1.94v0l-.34.25Zm-.7-2c-1.88-3.91-6.1-4.85-11-3.93a12.12,12.12,0,0,0-6.28,3l11,4.29A20.72,20.72,0,0,0,155.36,146.29Zm-6.25,3.38-11-4.29a10.34,10.34,0,0,0-2.2,3,16.81,16.81,0,0,0,13.18,1.27Z"/><path class="cls-10" d="M69.66,164.76a17.19,17.19,0,0,1-5.75.22,41.19,41.19,0,0,0,5.57,10.25l9.77-5.74a28.73,28.73,0,0,1-4.2-6.9A17.14,17.14,0,0,1,69.66,164.76Zm-1.18-5.52a11,11,0,0,0,2.57-.89A11.14,11.14,0,0,0,73.26,157c.25-.21.5-.42.73-.65a11.19,11.19,0,0,0,1.91-2.43,11,11,0,0,0,1.27-7.8,11.26,11.26,0,0,0-22,.18,10.76,10.76,0,0,0-.19,3.06,10.17,10.17,0,0,0,.2,1.44,11,11,0,0,0,.45,1.51l.18.48a11,11,0,0,0,6.3,6,11.16,11.16,0,0,0,6.35.49Zm114.66-35.87a37.82,37.82,0,0,0-6-16.89H134.46L131.52,95.6l-6.71,10.88-2.09.12-3.16.19-3.16.19-3.51.21a37.93,37.93,0,0,0-5.78,20.18,39.61,39.61,0,0,0,.24,4.25,37.43,37.43,0,0,0,2.54,10A38.31,38.31,0,0,0,127.21,161c.93.5,1.89,1,2.87,1.39q1.15.5,2.34.93a38,38,0,0,0,12.81,2.21c1.07,0,2.14-.06,3.19-.14a38.06,38.06,0,0,0,5.78-.93l.2,0,.22-.05a39.61,39.61,0,0,0,4.17-1.32,38.12,38.12,0,0,0,24.56-35.63,37.57,37.57,0,0,0-.21-4ZM124,115.12c-3.76.18-5.59,2.82-5.18,6.35l.47,4.47-3.82.45-.71.08-.53-4.29c0-.25,0-.51,0-.76a10,10,0,0,1,2.67-7.27,9.89,9.89,0,0,1,4.08-2.66,10.4,10.4,0,0,1,2.12-.49,10.06,10.06,0,0,1,11.18,8.82l.53,4.29-3.88.53-.53-4.29a5.8,5.8,0,0,0-6.35-5.23Zm35.69,29.94a22.52,22.52,0,0,1-2.75,2.59,24,24,0,0,1-2.91,2c-.62.37-1.33.76-2.12,1.14a18.41,18.41,0,0,1-10.72,1.85,14.75,14.75,0,0,1-4.65-1.56q-.67-.36-1.35-.81h0l-.26-.18a18.91,18.91,0,0,1-9.45-12.41l30.7-1.39,8.18-.37a18.76,18.76,0,0,1-4.66,9.16Zm12.13-23.82-.59-4.24a5.82,5.82,0,0,0-6.35-5.24c-3.76.18-5.59,2.82-5.18,6.35l.47,4.47-4.53.53-.53-4.29a10.07,10.07,0,0,1,20-2.36l.59,4.24ZM87.66,68.53a11.31,11.31,0,0,0-8.77,7.35,10.89,10.89,0,0,0-.58,2.91,11.39,11.39,0,0,0,.12,2.53,11.26,11.26,0,0,0,19.94,4.85,11.13,11.13,0,0,0,2.29-5.44,10.56,10.56,0,0,0-.07-3.17,11.15,11.15,0,0,0-12.93-9Z"/><path class="cls-11" d="M73.65,112.65c1.72.41,3.86.79,6.13,1.18L79,121.18a2.92,2.92,0,0,0,2.59,3.24h.29a3,3,0,0,0,2.94-2.59l.74-7c2.23.38,4.35.77,6,1.19a2.84,2.84,0,0,0,.71.06,2.92,2.92,0,0,0,.7-5.77c-1.89-.45-4.3-.87-6.82-1.3l.76-7.23a2.93,2.93,0,1,0-5.83-.65l-.73,6.9c-2-.34-3.88-.7-5.39-1.08a2.93,2.93,0,1,0-1.33,5.71Zm19.59,13.12a101.82,101.82,0,0,0-18.36-1.39,2.92,2.92,0,0,0,.07-2.44A266.32,266.32,0,0,1,63.83,90.76a3,3,0,0,0-5.7.12l-4.59,18.25a3,3,0,0,0-1.77,2.81,2.88,2.88,0,0,0,.63,1.7l-2.51,10A2.93,2.93,0,0,0,52,127.23l.14,0q-3,.73-6,1.67a3,3,0,0,0-1.94,3.71A3,3,0,0,0,47,134.71a4.43,4.43,0,0,0,.88-.12,96,96,0,0,1,44.35-3,3.06,3.06,0,0,0,2.94-1.28,2.77,2.77,0,0,0,.47-1.13v-.1a2.94,2.94,0,0,0-2.42-3.31ZM61.29,102.53c.66,2,1.36,4,2.08,6l-3.62.12Zm-6.73,24.19a3.14,3.14,0,0,0,1.08-1.6l2.62-10.47,7.26-.25q1.91,5,4,9.89l.16.29A102.82,102.82,0,0,0,54.56,126.72Z"/><path class="cls-12" d="M190.93,128.83a46.29,46.29,0,0,0-1.28-12.41c-.25-1-.52-2-.83-3-.21-.67-.44-1.34-.7-2-.42-1.14-.88-2.26-1.39-3.35a44.51,44.51,0,0,0-3.36-6c-11-24-43.85-20.7-43.9-20.7-1.75.17-3.41.41-5,.71a44,44,0,0,0-15,5.57c-1.08.66-2.08,1.35-3,2.06s-1.79,1.42-2.59,2.15A35.33,35.33,0,0,0,105.21,104a23.46,23.46,0,0,0-1.23,3.57,45.75,45.75,0,0,0-2.57,6.52c-.09.29-.15.58-.23.87l-5.53,14.15v.1a3.08,3.08,0,0,1-.47,1.13L84.7,157.12l-1.07,2.74-.52,1.33,4.43.11,11.86.3,3.14.08L114,162l-1.89,11.31c-4.58,1.91-9.08,2.67-13,1.84a26.62,26.62,0,0,1-18-13.09,24.69,24.69,0,0,1-1.51-3.48l.11-.16a16.61,16.61,0,0,0,3.06-13.5,17,17,0,0,0-32.94-.6,17.06,17.06,0,0,0-.51,2.94,16.61,16.61,0,0,0,.05,3.15c.06.52.14,1.05.25,1.57a16.55,16.55,0,0,0,7.61,10.69,47.23,47.23,0,0,0,6.51,14.3,48.05,48.05,0,0,0,3.12,4.13,49.13,49.13,0,0,0,27.45,16.11,46.58,46.58,0,0,0,8.06,1.06c1.84.09,3.7.08,5.56,0l-.09.54h77.06l-9.38-35.41,15.5.35a202.22,202.22,0,0,0-.06-34.88ZM62.12,158.76a11.09,11.09,0,0,1-6.3-6l-.18-.48a11,11,0,0,1-.45-1.51,11.87,11.87,0,0,1-.2-1.44,10.76,10.76,0,0,1,.19-3.06,11.26,11.26,0,0,1,22-.18,11,11,0,0,1-1.27,7.8A11.19,11.19,0,0,1,74,156.32c-.23.23-.48.44-.73.65A11.14,11.14,0,0,1,71,158.36a11.48,11.48,0,0,1-2.57.89,11.35,11.35,0,0,1-6.35-.49Zm7.36,16.48A41.37,41.37,0,0,1,63.91,165a17.19,17.19,0,0,0,5.75-.22A17,17,0,0,0,75,162.61a29.26,29.26,0,0,0,4.2,6.9l-9.76,5.73ZM158.79,163a36.13,36.13,0,0,1-4.17,1.32l-.22.05-.2,0a39.35,39.35,0,0,1-5.78.93c-1,.09-2.11.14-3.19.14a38.06,38.06,0,0,1-12.81-2.21c-.79-.28-1.58-.59-2.34-.93-1-.42-1.94-.88-2.87-1.39a38.22,38.22,0,0,1-17.32-19.32,37.43,37.43,0,0,1-2.54-10,37.31,37.31,0,0,1-.24-4.25,38,38,0,0,1,5.78-20.18l3.51-.21,3.16-.19,3.16-.19,2.09-.12,6.71-10.88,2.94,10.88h42.65a38,38,0,0,1,6,16.89,37.52,37.52,0,0,1,.21,4A38.14,38.14,0,0,1,158.79,163Zm-33.32-25.34a19,19,0,0,0,5.91,9.94,18.42,18.42,0,0,0,3.54,2.47l.26.18h0q.67.45,1.35.81a14.67,14.67,0,0,0,4.65,1.56,18.4,18.4,0,0,0,10.72-1.85c.79-.38,1.5-.77,2.12-1.14a22.25,22.25,0,0,0,2.91-2,25,25,0,0,0,2.75-2.59,18.75,18.75,0,0,0,4.66-9.17l-8.18.37-30.7,1.39Zm23.64,12a16.81,16.81,0,0,1-13.18-1.27,11,11,0,0,1,2.2-3,12.12,12.12,0,0,1,6.28-3c4.84-.92,9.07,0,11,3.93a20.29,20.29,0,0,1-6.25,3.39Zm6.6-1.14.34-.25v0Zm8.23-40.88a10.06,10.06,0,0,0-8.82,11.18l.53,4.29,4.53-.53-.47-4.47c-.41-3.53,1.41-6.18,5.18-6.35a5.79,5.79,0,0,1,6.35,5.24l.59,4.24,3.88-.53-.59-4.24A10.08,10.08,0,0,0,163.94,107.65Zm-33.59,12.71.53,4.29,3.88-.53-.53-4.29A10.06,10.06,0,0,0,123.05,111a10.55,10.55,0,0,0-2.12.49,10,10,0,0,0-6.75,9.93c0,.25,0,.5,0,.76l.53,4.29.71-.08,3.82-.45-.47-4.47c-.41-3.53,1.41-6.18,5.18-6.35a5.79,5.79,0,0,1,6.35,5.23Zm-38-24.46a17,17,0,0,0,12.9-10.34,16.62,16.62,0,0,0,1-9A16.82,16.82,0,0,0,86.72,63a17,17,0,0,0-11.9,8.25,16.64,16.64,0,0,0-1.25,2.71,17,17,0,0,0-.74,2.85,16.37,16.37,0,0,0,0,5.5A16.82,16.82,0,0,0,92.32,95.9Zm-14-17.11a10.72,10.72,0,0,1,2-5.57,11.17,11.17,0,0,1,20.4,7.5,10.5,10.5,0,0,1-.78,2.88,11,11,0,0,1-1.51,2.56,11.14,11.14,0,0,1-20.06-7.37Z"/></g></g></svg>