<svg xmlns="http://www.w3.org/2000/svg" viewBox="0 0 149.57 34.71"><defs><style>.cls-1{fill:#fff;}</style></defs><title>Ресурс 1</title><g id="Слой_2" data-name="Слой 2"><g id="Layer_1" data-name="Layer 1"><path class="cls-1" d="M13.5,7.15C5.68,7.15,0,13,0,21S5.66,34.71,13.78,34.71a13.15,13.15,0,0,0,9.92-3.92,2.89,2.89,0,0,0,.85-1.94,2.2,2.2,0,0,0-2.31-2.25,2.63,2.63,0,0,0-1.88.85,9.1,9.1,0,0,1-6.58,2.75A8.15,8.15,0,0,1,5.5,22.59H23.17c1.92,0,2.86-.9,2.86-2.75a10.21,10.21,0,0,0-.11-1.71C25,11.26,20.33,7.15,13.5,7.15Zm0,4.3c4.25,0,7,2.7,7.14,7.06H5.5A7.9,7.9,0,0,1,13.5,11.45Z"/><path class="cls-1" d="M42.9,7.15A9.62,9.62,0,0,0,34.45,12V10.28c0-2.71-2.1-2.85-2.52-2.85a2.53,2.53,0,0,0-2.59,2.85V31.47a2.71,2.71,0,1,0,5.39,0V20.11c0-4.94,2.8-8.39,6.81-8.39s5.77,2.55,5.77,7.79v12a2.7,2.7,0,1,0,5.38,0V17.82C52.69,12.66,50.12,7.15,42.9,7.15Z"/><path class="cls-1" d="M77.05,7.43a2.81,2.81,0,0,0-2.68,2.15L67,28.1,59.69,9.58A2.84,2.84,0,0,0,57,7.43,2.65,2.65,0,0,0,54.26,10a3.67,3.67,0,0,0,.34,1.52l8.47,20c1,2.41,2.66,2.92,3.88,2.92s2.87-.51,3.88-2.92l8.52-20.1A4,4,0,0,0,79.69,10,2.52,2.52,0,0,0,77.05,7.43Z"/><path class="cls-1" d="M92.71,7.15a15.35,15.35,0,0,0-9,2.7A2.47,2.47,0,0,0,82.48,12a2.09,2.09,0,0,0,2.09,2.14,2.84,2.84,0,0,0,1.6-.57,10.6,10.6,0,0,1,6-2c4,0,6.26,2,6.26,5.56v.58c-8.93,0-18,1.09-18,8.87,0,5.59,4.78,8.1,9.52,8.1a10.06,10.06,0,0,0,8.72-4.33v1.36a2.47,2.47,0,0,0,2.53,2.75,2.43,2.43,0,0,0,2.41-2.75V17.44C103.64,11,99.56,7.15,92.71,7.15Zm4.64,14.51h1.13V22.9c0,4.53-2.89,7.47-7.36,7.47-1.21,0-5.17-.29-5.17-3.92C86,22.15,92.46,21.66,97.35,21.66Z"/><path class="cls-1" d="M117.66,12.32a2.17,2.17,0,0,0,2.48-2.2,2.2,2.2,0,0,0-2.48-2.26h-4.84V3a2.68,2.68,0,1,0-5.33,0V26.23c0,5.37,2.65,8.21,7.66,8.21a8.48,8.48,0,0,0,3.39-.62A2.41,2.41,0,0,0,120,31.69a2.08,2.08,0,0,0-2.15-2.15,3.74,3.74,0,0,0-1,.17,4.11,4.11,0,0,1-1.11.16c-2,0-3-1.33-3-4.19V12.32Z"/><path class="cls-1" d="M135.47,7.15c-8.15,0-14,5.78-14,13.73a13.68,13.68,0,0,0,4,9.93,14.15,14.15,0,0,0,10,3.9c8,0,14.1-5.95,14.1-13.83S143.64,7.15,135.47,7.15Zm0,23c-5.59,0-8.51-4.67-8.51-9.27,0-6.33,4.41-9.22,8.51-9.22s8.5,2.89,8.5,9.22S139.56,30.15,135.47,30.15Z"/></g></g></svg>