<?xml version="1.0" encoding="utf-8"?>
<!-- Generator: Adobe Illustrator 22.1.0, SVG Export Plug-In . SVG Version: 6.00 Build 0)  -->
<svg version="1.1" id="Layer_1" xmlns="http://www.w3.org/2000/svg" xmlns:xlink="http://www.w3.org/1999/xlink" x="0px" y="0px"
	 viewBox="0 0 200 200" style="enable-background:new 0 0 200 200;" xml:space="preserve">
<style type="text/css">
	.st0{fill:#FFCE13;}
	.st1{fill:#ABABAB;}
	.st2{fill:#E6D0BA;}
	.st3{fill:#635647;}
	.st4{fill:#373634;}
	.st5{fill:#38322B;}
	.st6{fill:#A37C49;}
	.st7{fill:#373737;}
	.st8{fill:#E6D8CA;}
	.st9{fill:#E6B07A;}
	.st10{fill:#614626;}
	.st11{fill:#543D21;}
	.st12{fill:#966F4B;}
	.st13{fill:#9C734D;}
	.st14{fill:#73532D;}
	.st15{fill:#B8916C;}
	.st16{fill:#402E19;}
	.st17{fill:#F7925F;}
</style>
<g>
	<g>
		<path class="st0" d="M148.5,13.2l-2.3,33.1l0.5,3.8c0.1,0.3,0.3,0.6,0.4,0.9c2.4-0.5,4.7-1,7.1-1.6h0.1c3.2-2.2,6.5-3.4,10-3.6
			c8.4-0.4,12.4,3.5,14.4,6.8c4.7,8.2,1.2,20.9-2.9,27.3c-7.4,11.6-21.1,19.9-38.8,23.4c-3.5,3.8-7.7,7.1-12.4,9.8
			c16.7,4.4,33,13,33.7,13.4c0.3,0.2,0.6,0.4,0.9,0.7l2.6-0.3c1.8-0.2,3.6,1.2,3.8,3c0.2,1.4-0.5,2.6-1.6,3.3l11,19.2
			c1.1,1.9,0.7,4.1-0.7,5.5l0,0c0.5,0.9,0.9,1.8,1.4,2.7c15-16.9,24.1-38.9,24.1-62.9C199.8,61.2,179.1,29.6,148.5,13.2L148.5,13.2z
			 M58.5,102.4C47.3,99.7,32,93.5,23.4,79.8c-4-6.3-7.6-18.8-3.1-27c1.8-3.2,5.6-7.1,13.5-7.1h1c3,0.1,5.7,1,8.4,2.3
			c1.6,0.4,4.6,1.1,8.9,2l0.4-2.8c0-0.6,0.2-1.2,0.4-1.7L52.8,45l-3.3-30.4C20.2,31.4,0.5,62.2,0.5,97.6c0,24.4,9.3,46.6,24.7,63.6
			l4.2-13.6c0.1-0.2,0.2-0.4,0.3-0.6c-0.6-0.5-1-1.3-1.1-2.1c-0.2-1.9,1.2-3.6,3-3.8l2.6-0.3c11-14.6,30.2-23.4,40.8-27.4
			c-4.8-2.6-9.2-6-13-10L58.5,102.4z"/>
	</g>
	<path class="st1" d="M111.9,132.3l13.2-12c-2.6-0.8-5.3-1.4-7.9-1.9c-0.8-0.2-1.5-0.6-2-1.3c-1.2,0.4-2.4,0.9-3.7,1.2
		c-9.3,2.3-18.6,1.8-27.2-0.9c-0.4,0.1-3.6,1.1-8.3,2.9l15.1,14.2L111.9,132.3z"/>
	<path class="st2" d="M69,137c-3.2-2.8-5.8-6.1-7.7-9.7c-0.5,0.3-1.1,0.6-1.6,0.9l7.4,9L69,137z M77.1,136.1L66,124.8
		c-1.5,0.8-3.1,1.6-4.7,2.5c1.9,3.6,4.5,6.9,7.7,9.7L77.1,136.1z"/>
	<path class="st1" d="M83.3,100c2.7,2,5.9,3.3,9.7,3.1c1.5-0.1,2.5-0.7,2.8-3l0-0.6l-6.4-2.1L83.3,100z M102.8,99.6
		c0,0.3,0.1,0.7,0.1,0.9c0.6,2,1.8,2.5,3.2,2.5c3.9,0.2,7.1-1.1,9.9-3.2l-6.1-2.6L102.8,99.6z M102.4,81.2h-0.7
		c-9.1-0.1-26.3-1.7-40.2-10.6c-0.5-0.2-1-0.6-1.5-1h-0.2l-1.4-1.2c0.2,3.5,0.6,6.8,1.5,8.4c2.2,3.9,9.6,3.7,11.5,6.3
		c0.8,1,2.3,4.6,4.6,8.5c0.6,1,1.3,2.1,2.1,3l0.5,0.7c2.8-3.5,7.1-7.1,13.6-8.7c2.1-0.5,4.5,2.1,7,1.9h0.5c2.9,0.2,5.6-2.3,7.9-1.7
		c6.1,1.6,10.2,5.1,13,8.4l0.5-0.6c0.8-1,1.5-2.1,2.1-3.2c2.3-3.8,3.7-7.2,4.5-8.2c1.9-2.6,9.3-2.4,11.5-6.3
		c0.7-1.3,1.1-3.7,1.4-6.3c-0.9,0.5-1.7,1-2.6,1.5C125.5,78.3,115.2,80.9,102.4,81.2z"/>
	<g>
		<path class="st3" d="M142,69.7L142,69.7c-0.5,0.3-1,0.6-1.5,0.8c-0.2,2.7-0.6,5.1-1.4,6.3c-2.2,3.9-9.6,3.7-11.5,6.3
			c-0.8,1-2.1,4.5-4.5,8.2c-0.6,1-1.3,2.1-2.1,3.2l-0.5,0.6c1.1,1.3,1.9,2.6,2.6,3.7c0.9,1.6,1.5,2.9,1.8,3.8l0,0.1
			c1.7-1.3,3.5-2.9,5.1-4.6c1.6-1.7,3.1-3.5,4.4-5.4l0.4-0.6c1.6-2.4,3.1-4.9,4.3-7.8C139.2,84.3,141.7,77.7,142,69.7L142,69.7
			L142,69.7z M78.6,95.3l-0.5-0.7c-0.8-1-1.4-2.1-2.1-3c-2.3-3.8-3.8-7.4-4.6-8.5c-1.9-2.6-9.3-2.4-11.5-6.3c-0.9-1.6-1.3-5-1.5-8.4
			c0,0-0.1-0.1-0.3-0.2c-0.3-0.3-0.6-0.5-1-0.8l0,0l-0.3-0.2c-0.2,8.5,2.3,15.3,2.3,15.3c2.8,10,8.7,16.6,15,20.8l0.2-0.4
			c0.3-0.9,0.9-2.2,1.8-3.7C76.7,98,77.6,96.7,78.6,95.3z M121,102.1l-5.1-2.2c-2.7,2.1-6,3.4-9.9,3.2c-1.4-0.1-2.6-0.6-3.2-2.5
			c-0.1-0.3-0.1-0.6-0.1-0.9l-0.2,0.1c-1.2-1.1-2.6-2.7-3.1-4.1c-0.3,1.4-2.3,2.8-3.5,3.9l-0.1,0l0,0.6c-0.3,2.3-1.3,3-2.8,3
			c-3.8,0.2-7-1.1-9.7-3.1l-5.2,2.2l-3,1.3l-0.5,0.2c8.4,5.5,17.4,7.1,21.1,7.5v0.1c0,0,0.3,0,1,0.1c0.5,0.1,0.8,0.1,0.8,0.1v-0.1
			c1.2,0.1,2.7,0.1,4.4,0v0.1c0,0,0.6,0,1.8-0.1c0.3-0.1,0.6-0.1,0.8-0.1c0.7-0.1,1.4-0.2,2.3-0.3c2.7-0.5,6.3-1.6,10.2-3.3l0.6-0.3
			c1-0.5,2-1,3-1.6c0.4-0.2,0.8-0.5,1.2-0.7c0.8-0.5,1.6-0.9,2.5-1.5l-0.1,0L121,102.1L121,102.1z"/>
	</g>
	<path class="st4" d="M91.2,134.6l-15.1-14.2c-2.9,1.1-6.4,2.6-10.1,4.5l11.1,11.3L91.2,134.6z M123.5,131c4.2-1.8,8.7-4.2,12.6-7
		c-3.5-1.3-7.2-2.6-11-3.7l-13.2,12L123.5,131z"/>
	<path class="st5" d="M125,102.8L125,102.8c-0.4-1-0.9-2.3-1.8-3.8c-0.7-1.2-1.5-2.5-2.6-3.7c-2.8-3.4-6.9-6.8-13-8.4
		c-2.3-0.6-5,1.9-7.9,1.7h-0.5c-2.5,0.1-4.9-2.4-7-1.9c-6.4,1.6-10.7,5.2-13.6,8.7c-1.1,1.3-1.9,2.6-2.6,3.8
		c-0.9,1.6-1.4,2.9-1.8,3.7l-0.2,0.4c-0.1,0.2-0.1,0.5-0.1,0.6l0.6-0.2l0.5-0.2l3-1.3l5.2-2.2l6.2-2.6l6.4,2.1l0.1,0
		c1.2-1.1,3.2-2.5,3.5-3.9c0.4,1.3,1.8,2.9,3.1,4.1l0.2-0.1l7.1-2.3l6.1,2.6l5.1,2.2l3.1,1.3l0.1,0l1.2,0.5
		C125.3,103.7,125.2,103.3,125,102.8z"/>
	<g>
		<path class="st6" d="M141,58.9l-0.2,0l0,0l0,0c-12.2,2.1-25,3-38,3c-17.8,0-33.1-1.8-44.3-3.7l0,0h0l-0.1,0L56.7,58l1.2,1.1
			l0.2,0.1l0.1,0.1l0,0l0.1,0.1c1.3,1.2,2.7,2.3,4,3.3h0.1l1,0.8c0.5,0.5,1.1,1,1.7,1.2c13.1,8.5,30.1,9.5,36.8,9.6l0.4,0.2l0.1-0.2
			c11.7-0.2,21.2-2.7,32.6-8.5c2.2-1.1,4.1-2.2,6-3.5l0.6-0.4l0,0l0.3-0.2c1.4-1,2.9-2.2,4.5-3.7C144.4,58.4,142.7,58.6,141,58.9
			L141,58.9z M59.3,41.8l7.6,0l33.3-0.2l31.7-0.2l7.8,0l0.2-3.5l1.9-27.9C129.2,4.3,115.1,1,100.1,1C84.3,1,69.3,4.7,56,11.1l3,27
			L59.3,41.8z"/>
	</g>
	<path class="st7" d="M178.7,52.6c-1.9-3.3-6-7.2-14.4-6.8c-3.4,0.1-6.7,1.4-10,3.6h-0.1c-2.4,0.5-4.7,1.1-7.1,1.6
		c-0.1-0.3-0.3-0.6-0.4-0.9l-0.5-3.8l2.3-33.1c-1.1-0.6-2.2-1.1-3.3-1.7c-1.1-0.5-2.2-1.1-3.3-1.6l-1.9,27.9l-0.2,3.5l-7.8,0
		l-31.7,0.2l-33.3,0.2l-7.6,0l-0.4-3.7l-3-27c-1.1,0.5-2.2,1-3.3,1.5c-1.1,0.6-2.2,1.3-3.2,1.9L52.8,45c0,0.2,0.1,0.4,0.1,0.6
		c-0.2,0.5-0.4,1.1-0.4,1.7L52,50.1c-4.3-0.9-7.3-1.6-8.9-2c-2.7-1.4-5.4-2.2-8.4-2.3h-1c-7.9,0-11.7,3.8-13.5,7.1
		c-4.5,8.2-0.9,20.7,3.1,27c8.7,13.7,23.9,19.9,35.1,22.6l3.6,0.9c3.8,4.1,8.2,7.4,13,10c-10.6,4-29.9,12.8-40.8,27.4l5-0.5l5.1-0.6
		c1.7-1.7,3.6-3.4,5.5-4.9c3.1-2.5,6.5-4.7,9.8-6.6c0.5-0.3,1.1-0.6,1.6-0.9c1.6-0.9,3.1-1.7,4.7-2.5c3.7-1.8,7.2-3.3,10.1-4.5
		c4.7-1.8,7.9-2.8,8.3-2.9c8.5,2.7,17.8,3.1,27.2,0.9c1.3-0.3,2.4-0.8,3.7-1.2c0.5,0.6,1.2,1.1,2,1.3c2.6,0.5,5.3,1.2,7.9,1.9
		c3.8,1.1,7.5,2.4,11,3.7l0.3,0.1l1.3,0.5c3.4,1.3,6.4,2.6,9.1,3.8l1.2-0.1l7-0.8l4.2-0.5c-0.3-0.3-0.5-0.5-0.9-0.7
		c-0.8-0.4-17-8.9-33.7-13.4c4.7-2.7,8.9-5.9,12.4-9.8c17.7-3.6,31.4-11.8,38.8-23.4C179.8,73.4,183.4,60.7,178.7,52.6L178.7,52.6z
		 M29.1,76.1c-3.5-5.5-5.5-15-2.8-20c1.3-2.3,3.7-3.5,7.4-3.5h0.7c1.8,0.1,3.4,0.6,5.1,1.4l-0.1,0.2l1.2,0.3
		c2.9,1.4,5.8,3.6,8.6,6.1v0.1c-0.5,3.2-0.8,6.5-0.6,9.8c-0.3,3.2-0.2,6.5,0.2,9.7c0.2,1.8,0.6,3.6,1.1,5.7c0.6,2.5,1.4,5.1,2.5,7.6
		C44,90.3,34.8,85,29.1,76.1z M58.3,58.2L58.3,58.2L58.3,58.2l0.1,0c11.1,1.9,26.5,3.7,44.3,3.7c13,0,25.8-1,38-3l0,0l0,0l0.2,0
		c1.7-0.3,3.4-0.5,5.1-0.9c-1.6,1.5-3.1,2.7-4.5,3.7l-0.3,0.2l0,0l-0.6,0.4c-1.9,1.3-3.8,2.4-6,3.5c-11.4,5.8-20.8,8.3-32.6,8.5
		l-0.1,0.2l-0.4-0.2c-6.7-0.1-23.6-1.2-36.8-9.6c-0.6-0.3-1.1-0.8-1.7-1.2l-1-0.8h-0.1c-1.3-1-2.7-2.1-4-3.3l-0.1-0.1l0,0l-0.1-0.1
		l-0.2-0.1L56.7,58L58.3,58.2z M139.2,84.3c-1.3,3-2.8,5.5-4.3,7.8l-0.4,0.6c-2.9,4.2-6.1,7.5-9.5,10.1c0.2,0.5,0.3,0.9,0.4,1.1
		l-1.2-0.5c-0.8,0.6-1.6,1-2.5,1.5c-0.4,0.2-0.8,0.5-1.2,0.7c-1,0.6-2,1.1-3,1.6l-0.6,0.3c-3.9,1.8-7.5,2.8-10.2,3.3
		c-0.9,0.1-1.7,0.3-2.3,0.3c-0.3,0-0.6,0-0.8,0.1c-1.2,0.1-1.8,0.1-1.8,0.1v-0.1c-1.7,0.1-3.2,0.1-4.4,0v0.1c0,0-0.3,0-0.8-0.1
		c-0.6-0.1-1-0.1-1-0.1v-0.1c-3.6-0.4-12.7-2-21.1-7.5l-0.6,0.2c0-0.1,0.1-0.3,0.1-0.6c-6.3-4.3-12.2-10.8-15-20.8
		c0,0-2.5-6.9-2.3-15.3l0.3,0.2l0,0c0.3,0.3,0.6,0.5,1,0.8c0.1,0.1,0.3,0.2,0.3,0.2l1.4,1.2H60c0.5,0.4,1,0.8,1.5,1
		c13.9,8.9,31.1,10.4,40.2,10.6h0.7c12.8-0.3,23.1-2.9,35.6-9.2c0.9-0.5,1.8-1,2.6-1.5c0.4-0.3,0.9-0.5,1.4-0.8l0.1,0l0.1,0
		C141.7,77.7,139.2,84.3,139.2,84.3z M170,76.1c-6.5,10-17.2,15.5-26.7,18.4c5.4-9.1,8-19.9,6.8-30.8c2.4-2.3,5.2-5.1,8.7-9l0.2-0.2
		c1.9-1.2,3.7-1.8,5.6-1.9c4.1-0.2,6.7,0.9,8.1,3.4C175.6,60.9,173.6,70.6,170,76.1L170,76.1z"/>
	<path class="st8" d="M48.9,180.2l-21.7,8.5V200h27.2v-16.8C52.5,182.3,50.7,181.3,48.9,180.2L48.9,180.2z M48.9,180.2
		c1.8,1,3.6,2,5.5,3v-5.1L48.9,180.2z"/>
	<path class="st9" d="M113.2,197.9l-6.1-4.1l-33.9-23.1l-11.9,4.7h-0.1V200h52.7L113.2,197.9z"/>
	<g>
		<path class="st10" d="M44.4,139.7l1.6-0.2l21.1-2.3l-7.4-9c-3.3,1.9-6.6,4.1-9.8,6.6C48,136.3,46.1,138,44.4,139.7z M52.5,93.4
			c-1.1-2.5-1.9-5-2.5-7.6c-0.5-2.1-0.9-3.9-1.1-5.7c-0.4-3.2-0.5-6.5-0.2-9.7c-0.1-3.4,0.1-6.7,0.6-9.8v-0.1
			c-2.8-2.5-5.7-4.7-8.7-6.1l-1.2-0.3l0-0.2c-1.7-0.8-3.3-1.2-5.1-1.4h-0.7c-3.7,0-6.1,1.2-7.4,3.5c-2.7,4.9-0.7,14.5,2.8,20
			C34.8,85,44,90.3,52.5,93.4z M170,76.1c3.6-5.6,5.6-15.2,2.7-20.1c-1.4-2.5-4-3.6-8.1-3.4c-1.9,0.1-3.6,0.6-5.6,1.9l-0.2,0.2
			c-3.4,3.9-6.3,6.7-8.7,9c1.2,11-1.4,21.8-6.8,30.8C152.9,91.6,163.6,86.1,170,76.1L170,76.1z M175,152.3l-11-19.2
			c-0.4,0.3-0.9,0.4-1.4,0.5l-0.9,0.1l-0.8,0.1l0.2,2.2l0.5,7l0.3,3.5l-7.5,0.7l-0.8-11.1l-0.1-1.5l-3.1,0.3l0.1,1.1l0.9,16.5
			l-7.5,0.9l-1-17.4l0-0.4l-3,0.3l0,0l1,12.7l-7.5,0.7l-0.9-12.6l-3.8,0.4l-6.6,0.7l-18.6,2l-0.5,0.1l0.1,0.4l0.1,0.4l0.5,3.4
			l0.4,3.1l0,0.3l0.9,6.8l0.2,1.6l-2.1,0.3l-5.1,0.6l-17.8,2.1l-0.5-7.6l-0.1-1.9l0-0.1v0c-2.8,0.8-6,1.9-9.5,3.2
			c-2.9,1.1-6,2.3-9.1,3.8c-6.7,3.1-14,6.9-21,11.9l-2-3.4c0,0,12-9.4,32.2-16.3c2.9-1,5.9-1.9,9.1-2.8l-0.1-1.5l-0.1-1l0-0.7
			l-1.1,0.1l-10.3,1.1c-8.8,3.6-20.8,8.7-31,13.6l-1.9,0.9l-3,9L28.3,178l-0.1,0.2l-0.4,0l-4.1,0.3l4.4-14.4l2.9-9.4
			c0,0,3.4-1.6,8.3-3.9c3.3-1.5,7.2-3.2,11.2-4.9l-9.3,1l-8.7,1l-0.4,0c-0.9,0-1.7-0.3-2.3-0.9c-0.1,0.2-0.2,0.4-0.3,0.6l-4.2,13.6
			L18.4,183c-0.2,0.7-0.2,1.3-0.1,1.9l2.1-0.8l21.5-8.5l12.5-5l3.4-1.3l3.5-1.4l0.3-0.1l10.8-4.3c0.2-0.1,0.3-0.1,0.5-0.1
			c0.2,0,0.3-0.1,0.5-0.1l33.8-2.2c5.5-0.7,11.2-1.3,16.8-1.9c1.2-0.1,2.3-0.2,3.5-0.4c1.2-0.1,2.3-0.2,3.4-0.3
			c15.5-1.5,29.7-2.5,37-3c3.3-0.2,5.2-0.3,5.2-0.3c0.5,0.8,0.9,1.6,1.3,2.4C175.6,156.4,176.1,154.2,175,152.3L175,152.3z
			 M83.8,143.1l0.2,1.7l1.3-0.3c0.6-0.1,1.2-0.3,1.9-0.4l-0.2-1.6l-0.1-0.6l-3.2,0.3l0.1,0.6L83.8,143.1z M84.7,150l0.4,3.3l7.8-1.1
			l4.9-0.7l-0.4-3.4l0-0.3l-0.3-3.2l-0.4-3.4l0-0.3l-4.3,0.5l0,0.3l0.5,3.3l0.4,2.6l0.1,0.9l0.1,0.9l-3.1,0.3l-2.3,0.3l-0.1-0.7
			l-0.3-1.9c-0.9,0.2-2,0.5-3.2,0.8L84.7,150L84.7,150z"/>
	</g>
	<path class="st11" d="M168,159.6l0.9-0.2l3.2-0.7l0.2,0.5v0c0.3,0.6,0.8,1.9,1.4,3.6c2.7,6.9,7.9,21.9,9.9,37.4h5.6
		c-2.4-11.1-6.6-26-13.5-39.5c-0.5-0.9-0.9-1.8-1.4-2.7l0,0c-0.4-0.8-0.9-1.6-1.3-2.4c0,0-1.9,0.1-5.2,0.3c-7.3,0.5-21.4,1.5-37,3
		c-1.1,0.1-2.2,0.2-3.4,0.3c-1.1,0.1-2.3,0.2-3.5,0.4c-5.6,0.6-11.3,1.2-16.8,1.9l16.8-1.1l3.5-0.2l3.4-0.2l1.1-0.1
		c1.8-0.1,3,1,3.5,2.5c0.1,0.3,0.2,0.5,0.2,0.8c0.1,1.9-1.3,3.5-3.2,3.6l-1.6,0.1l-3.4,0.2L124,167l-2.9,0.2
		c0.9,0.8,1.9,1.9,2.9,3.1c1.1,1.3,2.3,2.9,3.5,4.7c0.5,0.8,1.1,1.6,1.6,2.6c0,0-0.6-0.4-1.6-1.1c-0.9-0.6-2.1-1.3-3.5-2.2
		c-3.3-2-7.9-4.6-12.4-6.6l-2.1,0.1c2.2,2.1,4.8,5.3,7.5,10c0,0-8.2-5.6-16.5-9.4l-16.6,1.1l0,0l33.8,23l0.4,0.3
		c0.6,0.4,1.1,1.1,1.3,1.8l1.9,5.4h3l-0.3-0.6l-3.3-7.4l-4.7-10.3l6.8-3.3l1.2,2.7l3.5,7.6l0.7,1.5l2.7,6l0.6,1.4l-0.6,0.4l-3.4,1.8
		L127,200h8.5l-4.5-9.9l5.9-2.9l0.9-0.4l0,0.1l6,13.1h10.8c-1-5.4-2.6-11.9-5-18.7c-1.4-4.1-3-8.3-5.1-12.6c0.5,0.6,4,4.8,8,10.9
		c3.6,5.5,7.6,12.6,10.3,20.4h14.6c-1-9.7-3.3-22-8.2-32.9c-1.1-2.4-2.3-4.8-3.7-7L168,159.6L168,159.6L168,159.6z M147.2,182.6
		l3.5,7.8l-6.7,3.6l-3.7-8.2l-5.1-11.3l6.8-3.3L147.2,182.6z"/>
	<g>
		<path class="st12" d="M128.1,190.2l-0.7-1.5l-3.5-7.6l-1.2-2.7l-6.8,3.3l4.7,10.3l3.3,7.4l0.3,0.6h2.7l0.5-0.2l3.4-1.8l0.6-0.4
			l-0.6-1.4L128.1,190.2z M137.8,186.8l-0.9,0.4l-5.9,2.9l4.5,9.9h8.3L137.8,186.8L137.8,186.8z M147.2,182.6l-5.2-11.4l-6.8,3.3
			l5.1,11.3l3.7,8.2l6.7-3.6L147.2,182.6z"/>
	</g>
	<path class="st13" d="M170.4,166c-0.4,0.4-0.8,0.8-1.3,1.2c4.9,10.9,7.2,23.2,8.2,32.9h6.3c-2.1-15.5-7.3-30.4-9.9-37.4
		C172.6,163.8,171.5,164.9,170.4,166z M172.3,159.1c-0.4,0.1-0.7,0.2-1.1,0.3l-2.2,0.2c0.6,2.1,1.1,4.3,1.4,6.5
		c1.1-1.1,2.2-2.2,3.3-3.3C173,161,172.5,159.7,172.3,159.1L172.3,159.1z M167.9,159.6l-2.4,0.6c1.4,2.2,2.6,4.6,3.7,7
		c0.4-0.4,0.9-0.8,1.3-1.2c-0.3-2.2-0.9-4.4-1.4-6.5L167.9,159.6L167.9,159.6z M168.9,159.4l0,0.2l2.2-0.2c0.4,0,0.8-0.1,1.1-0.3
		l-0.2-0.5L168.9,159.4L168.9,159.4z M168,159.6l-0.1,0l1.1-0.1l0-0.2L168,159.6z"/>
	<g>
		<path class="st14" d="M137.7,124.6l-1.3-0.5l-0.3-0.1c-3.9,2.8-8.4,5.2-12.6,7l6.5-0.7l5.1-0.6l11.7-1.3
			C144.2,127.3,141.1,126,137.7,124.6z M79.1,146c-3.2,0.8-6.3,1.8-9.1,2.8c-20.2,6.9-32.2,16.3-32.2,16.3l2,3.4
			c7-4.9,14.2-8.8,21-11.9c3.2-1.4,6.2-2.7,9.1-3.8c3.4-1.3,6.6-2.4,9.5-3.2l-0.1-1.6L79.1,146z M87.6,146.5l-0.1-0.6l-0.3-1.8
			c-0.6,0.1-1.3,0.2-1.9,0.4c-0.4,0.1-0.9,0.2-1.3,0.3l0.1,0.7l0.1,1l0.2,1.6c1.2-0.3,2.3-0.6,3.2-0.8l-0.1-0.5L87.6,146.5
			L87.6,146.5z M50.4,145.9c-4.1,1.7-8,3.4-11.2,4.9c-4.9,2.2-8.3,3.9-8.3,3.9l-2.9,9.4l-4.4,14.4l4.1-0.3l0.4,0l0.1-0.2l3.4-10.4
			l3-9c0.6-0.3,1.3-0.6,1.9-0.9c10.2-4.9,22.2-10,31-13.6L50.4,145.9L50.4,145.9z"/>
	</g>
	<g>
		<path class="st15" d="M103.8,147.9l0-0.3l-0.4-3.1l-0.5-3.4l-0.1-0.4l-0.1-0.4l-4.9,0.5l-1.2,0.1l0,0.3l0.4,3.4l0.3,3.2l0,0.3
			l0.4,3.4l-4.9,0.7l-7.8,1.1l-0.4-3.3l-0.2-1.8l-0.2-1.6l-0.1-1l-0.1-0.7l-0.2-1.7l0-0.2l-0.1-0.6l-0.5,0.1l-4.3,0.5l0,0.7l0.1,1
			l0.1,1.5l0.1,2l0.1,1.6v0l0,0.1l0.1,1.9l0.5,7.7l17.8-2.1l5.1-0.6l2.1-0.3l-0.2-1.6L103.8,147.9z M87.2,144.1l0.3,1.8l0.1,0.6
			l0,0.3l0.1,0.5l0.3,1.9l0.1,0.6l2.3-0.3l3.1-0.3l-0.1-0.9l-0.1-0.9l-0.4-2.6l-0.5-3.3l0-0.3l-5.4,0.6l0.1,0.6L87.2,144.1z
			 M161.6,143.1l-0.5-7l-0.2-2.2l-6.2,0.7l-1.3,0.1l0.1,1.5l0.8,11.1l7.5-0.7L161.6,143.1z M139.8,136.1l-0.5,0.1l-7.1,0.8l0.9,12.6
			l7.5-0.7L139.8,136.1L139.8,136.1z M150.3,135l-7.5,0.8l0,0.4l1,17.4l7.5-0.9l-0.9-16.5L150.3,135z"/>
	</g>
	<g>
		<path class="st16" d="M144.5,168.6c2.1,4.3,3.7,8.5,5.1,12.6c2.4,6.9,4,13.3,5,18.7h8.2c-2.7-7.8-6.7-14.9-10.3-20.4
			C148.4,173.4,145,169.2,144.5,168.6L144.5,168.6z M132,159.6l-1.1,0.1l-3.4,0.2l-3.5,0.2l-16.8,1.1l-33.8,2.2
			c-0.2,0-0.3,0.1-0.5,0.1c-0.2,0-0.3,0-0.5,0.1l-10.8,4.3l-0.3,0.1l-3.5,1.4l-3.4,1.3l-12.5,5l-21.5,8.5l-2.1,0.8l0,0l-1.7,0.7
			c-1.8,0.8-2.7,2.8-1.9,4.4c0.7,1.8,2.7,2.7,4.4,1.9l1.3-0.5v8.5h6.9v-11.2l21.7-8.5l5.5-2.2V200h6.8v-24.6h0.1l11.9-4.7l33.9,23.1
			l6.1,4.1l0.7,2.1h7.3l-1.9-5.4c-0.2-0.7-0.7-1.3-1.3-1.8l-0.4-0.3l-33.8-23l0,0l16.6-1.1c8.3,3.8,16.5,9.4,16.5,9.4
			c-2.7-4.7-5.4-7.9-7.5-10l2.1-0.1c4.5,2,9,4.6,12.4,6.6c1.4,0.8,2.6,1.6,3.5,2.2c1,0.7,1.6,1.1,1.6,1.1c-0.5-0.9-1.1-1.8-1.6-2.6
			c-1.2-1.8-2.4-3.4-3.5-4.7c-1-1.2-2-2.3-2.9-3.1l2.9-0.2l3.5-0.2l3.4-0.2l1.6-0.1c1.9-0.1,3.3-1.8,3.2-3.6c0-0.3-0.1-0.5-0.2-0.8
			C135,160.6,133.7,159.5,132,159.6L132,159.6z M161.8,126.8l-2.6,0.3l-4.2,0.5l-7,0.8l-1.2,0.1l-11.7,1.3l-5.1,0.6l-6.5,0.7
			l-11.6,1.3l-20.7,2.3l-14.1,1.5L69,137l-2,0.2L46,139.5l-1.6,0.2l-5.1,0.6l-5,0.5l-2.6,0.3c-1.9,0.2-3.2,1.9-3,3.8
			c0.1,0.9,0.5,1.6,1.1,2.1c0.6,0.6,1.4,0.9,2.3,0.9l0.4,0l8.7-1l9.3-1l17.2-1.9l10.3-1.1l1.1-0.1l4.3-0.5l0.5-0.1l3.1-0.3l5.4-0.6
			l4.3-0.5l1.2-0.1l4.9-0.5l0.5-0.1l18.6-2l6.6-0.7l3.8-0.4l7.1-0.8l0.5-0.1l3-0.3l7.5-0.8l3.1-0.3l1.3-0.1l6.2-0.7l0.8-0.1l0.9-0.1
			c0.5-0.1,1-0.2,1.4-0.5c1.1-0.7,1.8-1.9,1.6-3.3C165.4,128,163.6,126.6,161.8,126.8L161.8,126.8z"/>
	</g>
	<path class="st17" d="M124.8,201.2l2.2-1.2h-2.7L124.8,201.2z"/>
</g>
</svg>
