<?xml version="1.0" encoding="utf-8"?>
<!-- Generator: Adobe Illustrator 22.1.0, SVG Export Plug-In . SVG Version: 6.00 Build 0)  -->
<svg version="1.1" id="Layer_1" xmlns="http://www.w3.org/2000/svg" xmlns:xlink="http://www.w3.org/1999/xlink" x="0px" y="0px"
	 viewBox="0 0 200 200" style="enable-background:new 0 0 200 200;" xml:space="preserve">
<style type="text/css">
	.st0{fill:#F58345;}
	.st1{fill:#BBD758;}
	.st2{fill:#FFFFFF;}
	.st3{fill:#CAE861;}
	.st4{fill:#D8DBDB;}
	.st5{fill:#96989C;}
	.st6{fill:#4C4D4F;}
	.st7{fill:#373737;}
</style>
<g>
	<path class="st0" d="M93.9,35.7c-0.1-14.3,10.9-26,24.9-27.1l-10.1-5.2l-3.1-1.6c-5.7-3-12.8-2.9-18.4,0.2l-1.7,0.9L53.6,20
		L8.8,44.1c-5.7,3-8.9,8.9-8.8,15v82.7c0,5,2.5,9.6,6.5,12.8c0.3-11.7,11.9-19.9,17.6-23.2c-7.7-6.4-13.6-15.3-16.2-25.8
		c-0.5-1.8-0.8-3.7-1.1-5.5c-2.8-20.8,8.1-41,26.5-50.3c1.5-0.8,3.2-1.6,4.9-2.2c1.7-0.7,3.5-1.2,5.3-1.7c17.5-4.4,35.1,1.2,46.9,13
		c1.3,1.3,2.5,2.7,3.7,4.1L93.9,35.7L93.9,35.7z M194.3,83.6c-4.9,6.3-12.5,10.3-21,10.4L143,94.2c-6.9,9.2-18.3,13.9-33.9,14
		l-4.7,0.1l2.1-4.3c0-0.1,1.9-4.1,3.5-12c-1.9-0.9-3.8-2-5.4-3.3c1.4,13.7-3.1,27.1-11.8,37.1c3.9,5.1,8.4,8.9,13.3,10.1
		c8.8,2.3,19.3,0.8,26.7-6.5c-1-5,0.2-10.3,3.6-14.5c6.2-7.7,17.6-8.9,25.4-2.6c7.9,6.3,9.2,17.7,3,25.4c-3.2,4-7.8,6.2-12.6,6.6
		c-12.7,14.3-32.4,20.4-52.3,15.3c-1.3-0.3-2.6-0.7-3.8-1.2l7.4,40.1c1.1-0.4,2.2-0.8,3.3-1.4l1.7-0.9l32-17.2l44.8-24.1
		c5.6-3,9.6-8.9,9.5-15L194.3,83.6L194.3,83.6z"/>
</g>
<g>
	<path class="st1" d="M141,56.1c-2.1-1.8-6.1-5.8-6.2-10.9v-2.8h0.3l26.4-0.2l-0.9,3.5c-0.1,0.3-1.7,6.2-5.9,10.1l0.1,10.2v0.4
		c0.5-0.2,1.1-0.4,1.6-0.6c0.8-0.3,1.6-0.8,2.3-1.2c5.7-3.4,9.4-9.6,9.4-16.7c-0.1-10.7-8.8-19.3-19.5-19.1
		c-10.6,0.1-19.1,8.7-19.1,19.3l0,0.2c0.1,7.9,4.9,14.7,11.7,17.6l0-1.2L141,56.1L141,56.1z M194,55.8l-0.1-20.9
		c-0.1-11.6-9.6-21-21.2-20.9l-42.7,0.3l-9.2,0.1c-11.6,0.1-21,9.6-20.9,21.2l0.2,32c0.1,8.9,5.8,16.8,14.2,19.7l2.3,0.8l-0.4,2.5
		c-0.8,5.1-1.8,8.9-2.7,11.6c12-0.9,20.6-5.1,25.7-12.5l0.9-1.3l33.2-0.3c11.6-0.1,21-9.7,20.9-21.2L194,55.8L194,55.8z M174.5,30.6
		c0.2-0.2,0.3-0.3,0.5-0.4l9.2-4.8c1.1-0.6,2.5-0.1,3.1,1c0.4,0.8,0.3,1.8-0.2,2.5c-0.2,0.3-0.4,0.5-0.7,0.6l-9.2,4.8
		c-0.4,0.2-0.7,0.3-1.1,0.3c-0.8,0-1.6-0.5-2-1.2C173.6,32.3,173.8,31.2,174.5,30.6L174.5,30.6z M110.5,25.3l9.2,4.8
		c1.1,0.6,1.5,2,0.9,3.1c-0.2,0.4-0.6,0.7-1,0.9c-0.3,0.1-0.6,0.2-1,0.2c-0.4,0-0.7-0.1-1.1-0.3l-9.2-4.8c-0.8-0.4-1.3-1.3-1.2-2.1
		c0-0.3,0.1-0.6,0.3-0.9C108,25.2,109.3,24.7,110.5,25.3z M105.4,51.8c-1.1,0-2-0.7-2.2-1.7c0-0.2-0.1-0.3-0.1-0.5
		c0-1.3,0.9-2.4,2.3-2.3l9.8,0c1.3,0,2.3,1,2.3,2.3c0,0.7-0.3,1.3-0.8,1.8c-0.4,0.3-0.9,0.5-1.4,0.5L105.4,51.8z M119.5,68l-8.5,3.3
		c-0.2,0.1-0.5,0.2-0.7,0.2l-0.3-0.1c-0.7-0.1-1.3-0.5-1.6-1.2c-0.4-1,0.1-2.2,1.1-2.6l8.5-3.3c1-0.4,2.2,0.1,2.6,1.1
		c0.3,0.8,0.1,1.7-0.5,2.2C120,67.7,119.8,67.9,119.5,68z M137.8,78.3l-0.1-6.2v-1.5c-6.8-3.3-11.8-9.6-13.4-17.2
		c-0.3-1.6-0.5-3.2-0.5-4.9c-0.1-13.3,10.4-24.4,23.6-25c0.4,0,0.7,0,1.1,0c8.9-0.1,16.7,4.6,21.2,11.5c2.4,3.8,3.8,8.3,3.9,13.1
		c0.1,9-4.6,16.9-11.7,21.3c-0.6,0.4-1.3,0.8-1.9,1.1v0.3l0,7.5c0.1,6.2-5.5,6.3-5.5,6.3l-11,0.1c-0.8,0-1.4-0.1-2-0.3
		C137.9,82.9,137.8,78.3,137.8,78.3L137.8,78.3z M186.3,70.2c-0.3,0.8-1.1,1.3-1.9,1.3c-0.2,0-0.5,0-0.7-0.2l-8.5-3.3
		c-1-0.4-1.5-1.6-1.1-2.6l0.1-0.3c0.5-0.8,1.5-1.2,2.5-0.9l8.5,3.3C186.2,68,186.7,69.1,186.3,70.2L186.3,70.2L186.3,70.2z
		 M189.3,51.9l-9.8,0c-1.2,0-2.3-1-2.2-2.3c0-0.5,0.1-0.9,0.4-1.3c0.4-0.6,1.1-1,1.9-1l9.8,0c0.8,0,1.4,0.3,1.8,0.8l0.1,0.2
		c0.2,0.4,0.3,0.8,0.3,1.3l0,0.3C191.4,51,190.4,51.9,189.3,51.9z M146.5,53.4l0.1,13h2.6l0-0.9L149,53.2l1.2-0.8l0.1,0
		c1.3-0.9,2.2-2.2,3-3.5c0.2-0.3,0.4-0.6,0.5-0.9l-10.5,0l-2.1,0c1.2,2.1,3.3,3.9,4.2,4.6L146.5,53.4L146.5,53.4z"/>
</g>
<path class="st2" d="M169.6,34.9c-4.4-7-12.3-11.6-21.2-11.5c-0.4,0-0.7,0-1.1,0c-13.2,0.7-23.7,11.7-23.6,25c0,1.7,0.2,3.3,0.5,4.9
	c1.6,7.6,6.7,13.9,13.4,17.2V72l0.1,6.2c0,0,0.1,4.6,3.6,5.9c0.6,0.2,1.2,0.3,2,0.3l11-0.1c0,0,5.5-0.1,5.5-6.3l0-7.5v-0.3
	c0.6-0.3,1.3-0.7,1.9-1.1c7.1-4.4,11.8-12.3,11.7-21.3C173.4,43.2,172,38.7,169.6,34.9L169.6,34.9z M143.3,48l10.5,0
	c-0.2,0.3-0.4,0.6-0.5,0.9c-0.8,1.3-1.7,2.5-3,3.5l-0.1,0l-1.2,0.8l0.1,12.4l0,0.9h-2.6l-0.1-13l-1.2-0.8c-0.9-0.7-3-2.5-4.2-4.6
	L143.3,48L143.3,48z M158.6,64.7c-0.8,0.4-1.5,0.9-2.3,1.2c-0.5,0.2-1,0.4-1.6,0.6v-0.4l-0.1-10.2c4.3-3.9,5.9-9.8,5.9-10.1l0.9-3.5
	l-26.4,0.2h-0.3v2.8c0.1,5,4.1,9.1,6.2,10.9l0.1,8.6l0,1.2c-6.8-2.9-11.6-9.7-11.7-17.6l0-0.2c0-10.5,8.6-19.2,19.1-19.3
	c10.6-0.1,19.4,8.5,19.5,19.1C168,55.1,164.2,61.3,158.6,64.7L158.6,64.7z"/>
<g>
	<path class="st3" d="M119.7,30.1l-9.2-4.8c-1.1-0.6-2.5-0.1-3.1,1c-0.2,0.3-0.2,0.6-0.3,0.9c0,0.9,0.4,1.7,1.2,2.1l9.2,4.8
		c0.4,0.2,0.7,0.3,1.1,0.3c0.3,0,0.7-0.1,1-0.2c0.4-0.2,0.8-0.5,1-0.9C121.2,32.1,120.8,30.7,119.7,30.1z M116.6,51.3
		c0.5-0.4,0.9-1.1,0.8-1.8c0-1.3-1-2.3-2.3-2.3l-9.8,0c-1.4-0.1-2.3,1-2.3,2.3c0,0.2,0,0.4,0.1,0.5c0.2,1,1.1,1.7,2.2,1.7l9.8,0
		C115.8,51.8,116.3,51.6,116.6,51.3z M118.1,64.2l-8.5,3.3c-1,0.4-1.5,1.6-1.1,2.6c0.3,0.7,0.9,1.1,1.6,1.2l0.3,0.1
		c0.2,0,0.5,0,0.7-0.2l8.5-3.3c0.2-0.1,0.4-0.2,0.6-0.4c0.6-0.5,0.8-1.4,0.5-2.2C120.3,64.4,119.1,63.8,118.1,64.2z M176.1,34.4
		c0.4,0,0.7-0.1,1.1-0.3l9.2-4.8c0.3-0.2,0.5-0.4,0.7-0.6c0.5-0.7,0.6-1.6,0.2-2.5c-0.6-1.1-1.9-1.5-3.1-1l-9.2,4.8
		c-0.2,0.1-0.4,0.3-0.5,0.4c-0.7,0.7-0.9,1.7-0.4,2.7C174.5,34,175.3,34.4,176.1,34.4L176.1,34.4z M191.2,48.3l-0.1-0.2
		c-0.4-0.5-1-0.9-1.8-0.8l-9.8,0c-0.8,0-1.5,0.4-1.9,1c-0.3,0.4-0.4,0.8-0.4,1.3c-0.1,1.2,1,2.3,2.2,2.3l9.8,0c1.2,0,2.1-0.9,2.3-2
		l0-0.3C191.5,49.1,191.4,48.7,191.2,48.3z M185.2,67.6l-8.5-3.3c-0.9-0.4-2,0-2.5,0.9l-0.1,0.3c-0.4,1,0.1,2.2,1.1,2.6l8.5,3.3
		c0.2,0.1,0.5,0.2,0.7,0.2c0.8,0,1.6-0.5,1.9-1.3v0C186.7,69.1,186.2,68,185.2,67.6z"/>
</g>
<g>
	<path class="st4" d="M76.7,110.3l-0.1,0.2L76.7,110.3L76.7,110.3z M63.9,107.5c-0.3,0.1-0.5,0.2-0.8,0.3c-2.5,0.9-4.6,2.2-5.9,3.8
		c-1.2,1.4-1.8,3.2-1.7,5.3c0.9,0.2,1.7,0.3,2.5,0.3c2.3,0.2,4.3,0,6.1-0.5c5.8-1.4,9.2-5.3,10.9-7.7
		C72,106.8,68.3,106.1,63.9,107.5z"/>
</g>
<g>
	<path class="st5" d="M135.3,135.6c-2.3,1.9-4.8,3.5-7.4,4.6l6.6,10.3c3.8-1.9,7.3-4.3,10.4-7.2c-1.9-0.7-3.8-1.7-5.4-3
		C137.7,138.9,136.3,137.3,135.3,135.6L135.3,135.6z M158.1,117c-5.2-4.2-12.7-3.4-16.8,1.7c-0.5,0.7-1,1.4-1.4,2.1
		c-1.6,3.2-1.6,7-0.2,10.2c0.8,1.7,1.9,3.3,3.5,4.5c1.9,1.5,4.1,2.4,6.3,2.6c3.3,0.3,6.6-0.7,9.2-3c0.5-0.4,0.9-0.9,1.3-1.4
		C164.1,128.7,163.2,121.2,158.1,117z M55.6,52.7c-22.6,0-41,18.4-41,41c0,6.2,1.4,12,3.8,17.3l3.2-1.2c2.6,4.2,5.5,7.3,8.6,9.7
		c9.9,7.7,21.7,7.1,30.1,5.2c0.4-0.1,0.8-0.2,1.2-0.3l-0.1,0c0.2-0.1,0.4-0.1,0.6-0.2l0.3-0.1c1.5-0.6,2.3-2.1,1.8-3.3
		c-0.4-0.9-1.3-1.4-2.4-1.4l-0.1,0l0.3-0.1c-1,0.1-1.9,0.1-2.7,0.1h-0.6c-0.5,0-1.1-0.1-1.6-0.1c-0.8-0.1-1.5-0.2-2.3-0.3
		c-3.9-0.7-7.6-2.4-10.5-4.8c-3.7,1.4-8.3,2.1-13.8,1.5c0,0,8.5-3.3,9-10.5c0,0,0.9-13.6,16.6-10.9c0,0,1.2-3.6,4.9-5.7
		c2.2-1.2,5.2-1.9,9.4-0.9c0,0,0.9,0,2.2-0.1c3.2-0.3,9.1-1.2,12-4.7c0,0,0.1,2.6-0.7,5.8c-0.5,1.9-1.3,4.1-2.6,6
		c-0.3,0.5-0.7,1-1.2,1.5c0.7,5-0.4,10-3.2,14.1l-0.1,0.3l0,0l-0.1,0.2c-0.4,0.8-0.9,1.6-1.5,2.2l-0.3,0.3c-0.4,0.3-0.6,0.7-0.8,1
		l-0.1,0.1c-0.4,0.9-0.4,1.9,0.1,2.5c0.8,1,2.5,0.9,3.7-0.2l0,0l0.1-0.1c0.8-0.7,1.6-1.4,2.4-2.1c2.4-2.3,4.2-4.8,5.7-7.2
		c8.7-15,2.2-31.8,2.2-31.8l3.3-1.5C84.5,61.2,71,52.7,55.6,52.7L55.6,52.7z M38.9,96.7l-1.8-4.5c-1.3-3.6-4.5-5.1-8.2-3.4
		c-4.1,1.9-4.4,5.8-3.4,8.2l1.5,4.3l-4,1.5l-1.5-4.3c-2.2-5.6,0.6-11.9,6.2-14.1s11.9,0.6,14.1,6.2l1.7,4.3L38.9,96.7z M79.5,79.2
		l-1.8-4.5c-1.3-3.6-4.5-5.1-8.2-3.4c-4.1,1.9-4.3,5.8-3.4,8.2l1.7,4.3l-4,1.5L62.2,81c-2.2-5.6,0.6-11.9,6.2-14.1
		s11.9,0.6,14.1,6.2l1.7,4.3L79.5,79.2z M57.3,102.6c-0.4,0.7-0.8,1.4-1.3,2.1l1.2-0.6l6.5-3.1l1.2-0.6c-0.4,0-0.7-0.1-1.1-0.1
		c-1.5-0.2-3.2-0.6-5-1C58.8,99.2,58.4,100.6,57.3,102.6L57.3,102.6z"/>
</g>
<g>
	<path class="st6" d="M92.1,73.5l-0.6,0.3l-3.3,1.5c0,0,6.4,16.8-2.2,31.8c-1.4,2.5-3.3,4.9-5.7,7.2c-0.7,0.7-1.5,1.4-2.4,2.1
		l-0.1,0.1l0,0c-1.2,1.1-2.9,1.1-3.7,0.2c-0.6-0.7-0.6-1.6-0.1-2.5c-2.7,2.7-6,4.1-9.1,4.7c-0.6,0.1-1.2,0.2-1.8,0.3
		c-0.3,0-0.7,0.1-1,0.1l-0.3,0.1l0.1,0c1.1,0,2,0.5,2.4,1.4c0.5,1.2-0.3,2.7-1.8,3.3l-0.3,0.1c-0.2,0.1-0.4,0.2-0.6,0.2l0.1,0
		c-0.4,0.1-0.8,0.2-1.2,0.3c-8.4,1.9-20.2,2.5-30.1-5.2c-3.1-2.4-6-5.6-8.6-9.7l-3.2,1.2l0.2,0.4l0.1,0.2c0.2,0.3,0.4,0.8,0.7,1.4
		l0.3,0.5c0.2,0.4,0.4,0.7,0.6,1.1c0.1,0.2,0.2,0.4,0.3,0.5c1.1,1.8,2.5,3.9,4.4,6.1c7.1,8.5,20.1,18.3,40.1,12.9
		c1.1-0.3,2.3-0.6,3.4-1.1c0.8-0.3,1.7-0.6,2.5-0.9c2.2-0.9,4.4-1.9,6.8-3.1c0,0,2.9-1.6,6.4-4.9c1-1,2.1-2.1,3.2-3.3
		c0.4-0.5,0.8-0.9,1.2-1.4l0.1-0.1C96,110.4,102.2,95.2,92.1,73.5L92.1,73.5z M44.2,114c5.9-2.2,9.6-6.1,11.8-9.4
		c0.5-0.8,1-1.5,1.3-2.1c1.1-1.9,1.5-3.3,1.5-3.3c1.8,0.5,3.5,0.8,5,1c0.4,0.1,0.8,0.1,1.1,0.1c7.6,0.8,12.2-1.4,15.1-4.5
		c0.4-0.5,0.8-1,1.2-1.5c1.3-1.9,2.2-4.1,2.6-6c0.8-3.2,0.7-5.8,0.7-5.8c-2.9,3.5-8.8,4.4-12,4.7c-1.3,0.1-2.2,0.1-2.2,0.1
		c-4.2-1-7.2-0.3-9.4,0.9c-3.6,2.1-4.8,5.7-4.8,5.7c-15.7-2.7-16.6,10.9-16.6,10.9c-0.5,7.2-9,10.5-9,10.5
		C35.9,116.1,40.5,115.4,44.2,114L44.2,114z"/>
</g>
<path class="st7" d="M199.8,34.8C199.7,20,187.5,8,172.7,8.1l-52,0.4c-0.6,0-1.2,0-1.8,0.1c-14,1.1-25,12.8-24.9,27.1L94.1,63
	c-1.2-1.4-2.4-2.8-3.7-4.1C78.7,47.1,61,41.5,43.5,45.9c-1.8,0.5-3.7,1-5.3,1.7c-1.7,0.7-3.3,1.4-4.9,2.2
	C14.9,59.1,4,79.3,6.8,100.1c0.2,1.8,0.6,3.7,1.1,5.5c2.7,10.5,8.5,19.3,16.2,25.8c-5.7,3.3-17.3,11.5-17.6,23.2
	c-0.2,6.8,3.5,14.7,14.3,23.6l1.1-12l0.3-3.1l1.2-13.5c0.1-1.3,1.1-2.3,2.4-2.6c0.3-0.1,0.5-0.1,0.8-0.1c1.6,0.1,2.8,1.5,2.6,3.2
	L27.8,166l-3.1,34.2l-5.2,0.1v0l84.2-0.8l-0.2-0.9l-7.4-40.1c1.3,0.4,2.6,0.8,3.8,1.2c19.9,5.2,39.6-1,52.3-15.3
	c4.8-0.4,9.4-2.6,12.6-6.6c6.2-7.7,4.9-19.1-3-25.4s-19.3-5.1-25.4,2.6c-3.4,4.2-4.5,9.6-3.6,14.5c-7.4,7.3-18,8.8-26.7,6.5
	c-4.9-1.3-9.4-5-13.3-10.1c8.6-10,13.2-23.3,11.8-37.1c1.7,1.3,3.4,2.4,5.4,3.3c-1.5,7.9-3.5,11.9-3.5,12l-2.1,4.3l4.7-0.1
	c15.6-0.1,26.9-4.8,33.9-14l30.2-0.3c8.5-0.1,16.1-4.1,21-10.4c3.6-4.6,5.8-10.5,5.7-16.8L199.8,34.8L199.8,34.8z M173.2,88.1
	l-33.2,0.3l-0.9,1.3c-5.1,7.5-13.7,11.7-25.7,12.5c0.9-2.7,1.9-6.5,2.7-11.6l0.4-2.5l-2.3-0.8c-8.4-2.9-14.1-10.8-14.2-19.7l-0.2-32
	c-0.1-11.6,9.3-21.1,20.9-21.2l9.2-0.1l42.7-0.3c11.6-0.1,21.1,9.3,21.2,20.9l0.1,20.9l0.1,11.1C194.2,78.5,184.8,88,173.2,88.1
	L173.2,88.1z M141.2,118.7c4.1-5.1,11.6-5.9,16.8-1.7s6.1,11.7,2,16.8c-0.4,0.5-0.9,1-1.3,1.4c-2.5,2.3-5.9,3.3-9.2,3
	c-2.2-0.2-4.4-1.1-6.3-2.6c-1.6-1.3-2.7-2.8-3.5-4.5c-1.4-3.2-1.4-7,0.2-10.2C140.2,120.1,140.7,119.4,141.2,118.7L141.2,118.7z
	 M135.3,135.6c1.1,1.7,2.4,3.3,4.1,4.7c1.7,1.3,3.5,2.3,5.4,3c-3.1,2.9-6.6,5.3-10.4,7.2l-6.6-10.3
	C130.4,139.1,132.9,137.5,135.3,135.6L135.3,135.6z M88.8,119.3L88.8,119.3c-0.5,0.6-0.9,1.1-1.3,1.5c-1.1,1.3-2.2,2.3-3.2,3.3
	c-3.5,3.3-6.4,4.9-6.4,4.9c-2.3,1.2-4.6,2.3-6.8,3.1c-0.8,0.3-1.7,0.6-2.5,0.9c-1.2,0.4-2.3,0.8-3.4,1.1c-20.1,5.4-33-4.4-40.1-12.9
	c-1.9-2.2-3.3-4.4-4.4-6.1l-0.3-0.5c-0.2-0.4-0.4-0.8-0.6-1.1l-0.3-0.5c-0.3-0.6-0.6-1.1-0.7-1.4l-0.1-0.2l-0.2-0.4
	c-2.4-5.3-3.8-11.1-3.8-17.3c0-22.6,18.4-41,41-41c15.4,0,28.9,8.5,35.9,21.2l0.6-0.3C102.2,95.2,96,110.4,88.8,119.3L88.8,119.3z"
	/>
<path d="M27.8,84.4c-5.6,2.2-8.4,8.5-6.2,14.1l1.5,4.3l4-1.5L25.6,97c-0.9-2.4-0.6-6.3,3.4-8.2c3.7-1.7,6.8-0.2,8.2,3.4l1.8,4.5
	l4.6-1.8l-1.7-4.3C39.7,85,33.3,82.2,27.8,84.4z M63.9,85.3l4-1.5l-1.7-4.3c-0.9-2.4-0.7-6.3,3.4-8.2c3.7-1.7,6.8-0.2,8.2,3.4
	l1.8,4.5l4.6-1.8l-1.7-4.3c-2.2-5.6-8.5-8.3-14.1-6.2c-5.6,2.2-8.3,8.5-6.2,14.1L63.9,85.3L63.9,85.3z M64.9,100.4l-1.2,0.6
	l-6.5,3.1l-1.2,0.6c-2.2,3.3-5.9,7.2-11.8,9.4c2.9,2.5,6.5,4.1,10.5,4.8c0.8,0.2,1.5,0.3,2.3,0.3c0.5,0.1,1.1,0.1,1.6,0.1h0.6
	c0.8,0,1.8,0,2.7-0.1c0.3,0,0.7-0.1,1-0.1c0.6-0.1,1.2-0.2,1.8-0.3c3.1-0.6,6.4-2,9.1-4.7l0.1-0.1c0.2-0.4,0.5-0.7,0.8-1
	c0.1-0.1,0.2-0.2,0.3-0.3c0.5-0.7,1-1.4,1.5-2.2l0.1-0.2l0.1-0.3c2.8-4.1,3.9-9.1,3.2-14.1C77.2,99,72.5,101.2,64.9,100.4
	L64.9,100.4z M64.2,116.7c-1.8,0.4-3.8,0.6-6.1,0.5c-0.8-0.1-1.7-0.2-2.5-0.3c-0.1-2.1,0.5-3.8,1.7-5.3c1.4-1.7,3.4-2.9,5.9-3.8
	c0.3-0.1,0.5-0.2,0.8-0.3c4.4-1.3,8.1-0.7,11.1,1.5C73.5,111.4,70,115.3,64.2,116.7z M26.6,146.9c-0.3,0-0.6,0-0.8,0.1
	c-1.3,0.3-2.3,1.3-2.4,2.6L22.2,163l-0.3,3.1l-1.1,12l-1.9,21.7v0.3l0.6,0l5.2-0.1l3.1-34.2l1.4-15.9
	C29.4,148.4,28.2,147,26.6,146.9L26.6,146.9z"/>
</svg>
