<?xml version="1.0" encoding="utf-8"?>
<!-- Generator: Adobe Illustrator 22.1.0, SVG Export Plug-In . SVG Version: 6.00 Build 0)  -->
<svg version="1.1" id="Layer_1" xmlns="http://www.w3.org/2000/svg" xmlns:xlink="http://www.w3.org/1999/xlink" x="0px" y="0px"
	 viewBox="0 0 200 200" style="enable-background:new 0 0 200 200;" xml:space="preserve">
<style type="text/css">
	.st0{fill:#FCB017;}
	.st1{fill:#E6E7E8;}
	.st2{fill:#B1B3B3;}
	.st3{fill:#373737;}
	.st4{fill:#808184;}
	.st5{fill:#FFCE13;}
	.st6{fill:#6D6E70;}
	.st7{fill:#FFE99E;}
	.st8{fill:#FFFFFF;}
</style>
<g>
	<path class="st0" d="M134.2,5.8v23.2c2,2.5,3,5.2,2.9,8.1c-0.1,5-3.4,9.4-8.8,12.6l26,65c2.5-3.4,6.3-5.8,10.8-6.6
		c9.2-1.6,17.9,4.5,19.5,13.6c0.8,4.7-0.5,9.2-3.1,12.7c0.3,2.1,0.4,4.2,0.3,6.2c8-13.8,12.5-29.9,12.5-47
		C194.4,53.5,169.4,19.3,134.2,5.8L134.2,5.8z M158,42.6c2.4,0,4.3,1.9,4.3,4.3s-1.9,4.3-4.3,4.3s-4.3-1.9-4.3-4.3
		S155.6,42.6,158,42.6z M147.5,71.1l-1.4-11.7l-11.2-1.5l11.2-1.5l1.4-11.7l1.4,11.7l11.2,1.5l-11.2,1.5L147.5,71.1z M170.4,88.2
		l-2,16.7l-2-16.7l-15.8-2.1l15.8-2.1l2-16.7l2,16.7l15.9,2.1L170.4,88.2z M69.3,35.8c0-2.7,1-5.2,2.9-7.5V5.9
		c0.1-0.1,0.2-0.2,0.3-0.2c-0.2-0.6-0.3-1.2-0.3-1.8C34.2,15.9,6.6,51.5,6.6,93.6c0,8.6,1.2,17,3.3,24.9
		c2.8-7.3,10.5-11.9,18.6-10.5c5.7,1,10.2,4.6,12.5,9.4l0.8-1.6c-1-7.3,1.6-15.9,12.6-24.7l0.2-0.3c-3.5-4.2-6.6-1.4-8.1-3.3
		c-1.5-1.9,2.2-7.6,2.2-7.6c0.6-0.8,1.5-1.5,2.5-1.5c2.9-0.2,5.8,1.4,8.1,3.3l17.2-33.7c-1.2-0.8-2.2-1.7-3.1-2.6
		C70.7,42.4,69.2,39.1,69.3,35.8z M47.5,53.2c2.4,0,4.3,1.9,4.3,4.3s-1.9,4.3-4.3,4.3s-4.3-1.9-4.3-4.3S45.1,53.2,47.5,53.2z
		 M22.8,90.3c-2.4,0-4.3-1.9-4.3-4.3s1.9-4.3,4.3-4.3s4.3,1.9,4.3,4.3S25.2,90.3,22.8,90.3z M38.4,74.3l-2.7,22.4L33,74.3l-21.3-2.8
		L33,68.6l2.7-22.5l2.7,22.5l21.3,2.8L38.4,74.3z"/>
</g>
<g>
	<path class="st1" d="M28.8,140.9c-1.9,0.3-3.8,0.4-5.8,0c-1.6-0.3-3.1-0.8-4.4-1.4c-0.3-0.1-0.6-0.3-0.9-0.5
		c-0.1,3.9,0.4,7.8,1.4,11.5l5.6-0.9l0.5-0.1l5.1-0.8c-0.8-2.4-1.2-4.9-1.3-7.5C28.8,141.2,28.8,141,28.8,140.9L28.8,140.9z
		 M27.6,113.6c-6.1-1-11.9,3-12.9,9c-0.1,0.6-0.1,1.1-0.1,1.7c-0.1,3.2,1.3,6.2,3.7,8.3c1.5,1.4,3.5,2.4,5.7,2.8
		c1.8,0.3,3.6,0.2,5.3-0.4c1.5-0.5,2.8-1.2,3.9-2.2c1.3-1.1,2.4-2.5,3-4.2c0.3-0.7,0.5-1.5,0.7-2.3c0-0.3,0.1-0.6,0.1-1
		C37.4,119.7,33.4,114.5,27.6,113.6L27.6,113.6z M164.9,140.9c-0.1,2.8-0.6,5.5-1.4,8l4.8,0.7l6.3,1c1-3.7,1.5-7.6,1.4-11.5
		c-1.6,0.9-3.4,1.5-5.3,1.9C168.7,141.3,166.7,141.2,164.9,140.9z M179,122.6c-1-6-6.8-10.1-12.9-9c-4.4,0.8-7.8,4-8.9,8
		c-0.4,1.5-0.6,3.1-0.3,4.8c0.1,0.8,0.4,1.6,0.7,2.3c0.9,2.2,2.5,4,4.5,5.3c0.7,0.4,1.5,0.8,2.4,1.1c1.7,0.5,3.5,0.7,5.4,0.4
		c2.2-0.4,4.1-1.4,5.6-2.7c2.4-2.1,3.8-5.2,3.7-8.4C179.1,123.7,179.1,123.1,179,122.6L179,122.6z M126.9,135.7l-14.5-0.9
		c-1.7-0.1-3.3-0.5-4.9-1.4c-4.3-2.2-6.9-6.9-6.7-11.8l0-0.4l-2.7-0.2l0,0.6c-0.2,3.3-1.7,6.3-4.2,8.5s-5.7,3.2-8.9,3.1l-14.5-0.9
		c-1.7-0.1-3.3-0.6-4.9-1.4c-2.2-1.1-4-2.9-5.1-5c0,0.7-0.1,1.5-0.1,2.2c0,13,6.5,24.5,16.4,31.3c1.6,1.1,3.4,2.1,5.2,3
		c1.4,0.7,3,1.3,4.5,1.8c2.4,0.8,4.9,1.4,7.5,1.7c1.5,0.2,3,0.3,4.5,0.3l0.6,0c2.4,0,4.8-0.3,7.1-0.8c2.2-0.4,4.3-1.1,6.3-1.9
		c1.4-0.6,2.8-1.2,4.2-1.9l0,0c0.5-0.3,1-0.6,1.5-0.9c10-6.1,17-16.6,18.2-28.8c-0.2,0.3-0.5,0.5-0.8,0.7
		C133.4,134.8,130.2,135.9,126.9,135.7L126.9,135.7z M109,150.8L109,150.8l-0.3,0.2h0c-1.7,1.1-3.4,1.8-5.1,2.2
		c-0.4,0.1-0.7,0.1-1.1,0.2c-1,0.1-2.1,0.2-3.1,0.1c-1.6-0.1-3.1-0.4-4.5-0.8c-2-0.6-3.8-1.5-5.1-2.3c-1-0.6-2-1.3-2.9-2l-0.4-0.4
		c-3.6-3-6.2-7-7-11.4l38.9,1.8C117.2,143.7,113.7,148.2,109,150.8L109,150.8z M87.1,102.4c6.6,0.4,11.9,6.5,11.5,13.1l2.7,0.2
		l0-0.2c0.4-6.8,6.3-11.9,13.1-11.5l14.5,0.9l0.1,0c-7-9.2-18-15.1-30.4-15.1c-10.7,0-20.4,4.4-27.3,11.5c0.4,0,0.8,0,1.2,0
		L87.1,102.4z"/>
</g>
<g>
	<path class="st2" d="M108.8,150.9L108.8,150.9L108.8,150.9z M87.9,149l0.3,0.2L87.9,149L87.9,149z M103.7,144.6
		c-1.2-0.7-2.6-1.2-4.2-1.5c-3.7-0.7-7.1-0.3-9.3,1.7c-0.7,0.6-1.2,1.3-1.6,2.2c2.9,2.2,5.6,3.4,8.2,3.9l0.2,0
		c4.8,0.9,8.7-0.6,10.9-1.7l0.1-0.1c-0.5-0.9-1-1.8-1.7-2.5C105.6,145.8,104.7,145.1,103.7,144.6L103.7,144.6z"/>
</g>
<path d="M129.1,105l-0.1,0l-14.5-0.9c-6.8-0.4-12.7,4.7-13.1,11.5l0,0.2l-2.7-0.2c0.4-6.6-4.9-12.7-11.5-13.1l-14.5-0.9
	c-0.4,0-0.8,0-1.2,0c-2.8,0.1-5.5,1.1-7.6,3l-0.1,0.1c-2,1.7-3.3,4-3.9,6.5c-0.2,0.7-0.3,1.3-0.3,2l-0.4,6.1
	c-0.2,2.4,0.4,4.8,1.5,6.8c1.2,2.1,2.9,3.8,5.1,5c1.5,0.8,3.2,1.2,4.9,1.4l14.5,0.9c3.3,0.2,6.5-0.9,8.9-3.1
	c2.5-2.2,3.9-5.2,4.2-8.5l0-0.6l2.7,0.2l0,0.4c-0.3,4.9,2.3,9.5,6.7,11.8c1.5,0.8,3.2,1.3,4.9,1.4l14.5,0.9c3.3,0.2,6.5-0.9,8.9-3.1
	c0.3-0.2,0.5-0.5,0.8-0.7c2-2.1,3.2-4.8,3.4-7.8l0.4-6.1C140.9,111.6,135.6,105.5,129.1,105L129.1,105z M90.5,125.9
	c-1.3,1.2-3.1,1.8-4.9,1.7l-14.5-0.9c-3.8-0.2-6.7-3.6-6.4-7.2l0.4-6.1c0.1-1.8,0.9-3.5,2.3-4.7c1.3-1.2,3.1-1.8,4.9-1.7l14.5,0.9
	c0.9,0.1,1.9,0.3,2.7,0.8c2.4,1.3,3.9,3.8,3.7,6.5l-0.4,6.1C92.6,123,91.8,124.7,90.5,125.9z M135,117.8l-0.4,6.1
	c-0.1,1.8-0.9,3.5-2.3,4.7c-1.4,1.2-3.1,1.8-4.9,1.7l-14.5-0.9c-3.7-0.3-6.7-3.7-6.4-7.3l0.4-6.1c0.2-3.8,3.5-6.7,7.2-6.4l14.5,0.9
	c0.9,0.1,1.9,0.3,2.7,0.8c1.4,0.7,2.4,1.9,3.1,3.3c0.2,0.4,0.4,0.8,0.5,1.3C135,116.5,135,117.2,135,117.8L135,117.8z"/>
<g>
	<path class="st3" d="M184.6,121.6c-1.6-9.1-10.3-15.2-19.5-13.6c-4.5,0.8-8.3,3.2-10.8,6.6c-2.6,3.5-3.9,8.1-3.1,12.7
		c0.9,5,3.9,9.1,8,11.5c0.5,9.7-5,17.9-12,22.6c-4.3,2.8-10.4,3.6-17,2.8l-0.4-2.6c6.4-5.9,11.1-13.6,13.4-22.6
		c2.1-8.3,1.7-16.6-0.6-24.2c-3.1-10.3-9.8-19.3-19-25.2c-18.3-40-50.7-14.8-61.1-5.2c-0.8-0.9-1.9-2-3-2.9
		c-2.3-1.9-5.1-3.4-8.1-3.3c-1,0.1-1.9,0.7-2.5,1.5c0,0-3.8,5.7-2.2,7.6c1.5,2,4.5-0.9,8.1,3.3l0.1,0.1L54.5,91
		c-11,8.8-13.6,17.5-12.6,24.7c1.5,11.2,11.3,19,11.3,19l0.1-0.9c1.5,11.2,7,21.5,15.5,28.8l-0.2,0.6c-8.6,2-16.8,1.7-22.2-1.9
		c-7-4.7-12.5-12.9-12-22.6c4.1-2.4,7.1-6.5,8-11.5c0.6-3.5,0-6.9-1.4-9.9c-2.3-4.8-6.8-8.4-12.5-9.4c-8.1-1.4-15.9,3.2-18.6,10.5
		c-0.4,1-0.7,2-0.9,3.1c-0.8,4.7,0.5,9.2,3.1,12.8c-2.1,17.6,5.8,35.1,21.7,45.8c2.2,1.5,4.7,2.8,7.1,3.9c6.5,3,13.6,4.7,20.8,5.1
		l-2.7,10.2h77.1l-1.8-10.4c6.3-0.6,12.6-2.3,18.3-4.9c2.5-1.1,4.9-2.5,7.1-3.9c14.1-9.4,21.8-24.1,22-39.6c0-2.1-0.1-4.1-0.3-6.2
		C184.1,130.8,185.4,126.3,184.6,121.6z M25.1,149.6l-0.5,0.1l-5.6,0.9c-1-3.7-1.5-7.6-1.4-11.5c0.3,0.2,0.6,0.3,0.9,0.5
		c1.4,0.6,2.9,1.1,4.4,1.4c2,0.3,4,0.3,5.8,0l0,0.4c0.1,2.6,0.6,5.1,1.3,7.5L25.1,149.6L25.1,149.6z M33.1,132.8
		c-1.1,1-2.5,1.7-3.9,2.2c-1.7,0.5-3.5,0.7-5.3,0.4c-2.2-0.4-4.1-1.4-5.7-2.8c-2.3-2.1-3.7-5.1-3.7-8.3c0-0.6,0-1.1,0.1-1.7
		c1-6,6.8-10.1,12.9-9c5.8,1,9.8,6.2,9.3,11.8c0,0.3-0.1,0.6-0.1,1c-0.1,0.8-0.4,1.6-0.7,2.3C35.5,130.3,34.5,131.7,33.1,132.8z
		 M118.4,160.7c-0.5,0.3-1,0.6-1.5,0.9l0,0c-1.3,0.7-2.7,1.4-4.2,1.9c-2,0.8-4.2,1.4-6.3,1.9c-2.3,0.5-4.7,0.7-7.1,0.8l-0.6,0
		c-1.5,0-3-0.1-4.5-0.3c-2.6-0.3-5.1-0.9-7.5-1.7c-1.5-0.5-3.1-1.1-4.5-1.8c-1.8-0.9-3.5-1.9-5.2-3c-9.9-6.9-16.4-18.4-16.4-31.3
		c0-0.7,0-1.5,0.1-2.2c-1.1-2-1.7-4.4-1.5-6.8l0.4-6.1c0-0.7,0.2-1.3,0.3-2c0.6-2.5,1.9-4.8,3.9-6.5l0.1-0.1c2.1-1.8,4.8-2.9,7.6-3
		c6.9-7.1,16.6-11.5,27.3-11.5c12.4,0,23.4,5.9,30.4,15.1c6.6,0.5,11.8,6.6,11.4,13.1l-0.4,6.1c-0.2,2.9-1.4,5.6-3.4,7.8
		C135.4,144.1,128.4,154.6,118.4,160.7L118.4,160.7z M174.7,150.6l-6.3-1l-4.8-0.7c0.8-2.5,1.3-5.2,1.4-8v0c1.9,0.3,3.9,0.4,5.9,0
		c1.9-0.3,3.7-1,5.3-1.9C176.1,143,175.7,146.8,174.7,150.6z M175.4,132.6c-1.5,1.4-3.5,2.4-5.6,2.7c-1.9,0.3-3.7,0.2-5.4-0.4
		c-0.8-0.3-1.6-0.6-2.4-1.1c-2-1.2-3.6-3-4.5-5.3c-0.3-0.7-0.5-1.5-0.7-2.3c-0.3-1.7-0.2-3.3,0.3-4.8c1.1-4,4.5-7.2,8.9-8
		c6.1-1,11.9,3,12.9,9c0.1,0.6,0.1,1.1,0.1,1.6C179.2,127.5,177.8,130.5,175.4,132.6L175.4,132.6z M86.6,148l0.4,0.4
		c0.9,0.7,1.9,1.4,2.9,2c1.3,0.8,3.1,1.7,5.1,2.3c1.4,0.4,2.9,0.8,4.5,0.8c1,0.1,2,0,3.1-0.1c0.4-0.1,0.7-0.1,1.1-0.2
		c1.7-0.4,3.4-1.1,5.1-2.2l0,0l0.2-0.1l0.1,0c4.7-2.5,8.2-7,9.4-12.4l-38.9-1.8C80.4,141,83,145,86.6,148L86.6,148z M90.2,144.8
		c2.2-2,5.6-2.4,9.3-1.7c1.6,0.3,3,0.8,4.2,1.5c1,0.6,1.9,1.3,2.6,2c0.7,0.7,1.2,1.6,1.7,2.5l-0.1,0.1c-2.3,1.2-6.2,2.6-10.9,1.7
		l-0.2,0c-2.5-0.5-5.3-1.7-8.2-3.9C89,146.1,89.6,145.4,90.2,144.8L90.2,144.8z M87.9,149l0.3,0.3L87.9,149L87.9,149z M84.2,118.8
		l-0.5,4.5l4.5,0.5l0.5-4.3c0.6-5.5-3.3-10.5-8.8-11.2s-10.5,3.3-11.2,8.8l-0.6,4.2l3.9,0.5l0.6-4.2c0.2-2.3,2.2-5.5,6.3-5.2
		C82.8,112.7,84.6,115.3,84.2,118.8z M120.9,111.7c-5.5-0.7-10.5,3.3-11.2,8.8l-0.5,4.3l3.9,0.5l0.5-4.3c0.2-2.3,2.2-5.5,6.3-5.2
		c3.8,0.2,5.6,2.8,5.2,6.3l-0.5,4.5l4.5,0.5l0.5-4.3C130.3,117.3,126.4,112.3,120.9,111.7z"/>
</g>
<path class="st4" d="M134,5.7c-10.4-4-21.7-6.2-33.5-6.2c-7.9,0-15.5,1-22.9,2.8c-1.8,0.5-3.7,0.9-5.4,1.5c0,0.7,0.1,1.2,0.3,1.8
	c-0.1,0.1-0.2,0.1-0.3,0.2v22.4c1-1.2,2.1-2.4,3.5-3.4l0.9-0.6c6.2-4.3,15.6-6.7,25.9-6.7h1.1c9.1,0.2,17.8,2.3,23.9,5.9h0.4
	l0.7,0.6c2.3,1.5,4.2,3.1,5.6,4.9V5.8C134.2,5.7,134.1,5.7,134,5.7z"/>
<g>
	<path class="st5" d="M117.6,37.2c-1.9-1.1-6.9-2.5-14.7-2.5s-12.8,1.4-14.7,2.5c1.9,1.1,6.9,2.5,14.7,2.5
		C110.6,39.7,115.7,38.2,117.6,37.2z M125.9,29.4L125.9,29.4l-0.8-0.5c-5.3-3.3-13.2-5.3-21.7-5.4h-1c-9.4,0-18.1,2.3-23.2,6.1
		l-0.7,0.6c-2.3,1.9-3.3,3.9-3.4,5.8c-0.1,1.8,0.8,3.5,2.5,5.2c1.9,2,4.8,3.7,8.2,5.1c4.8,1.9,10.8,3,17.1,3.2h1.2
		c9.5,0,17.2-2.3,21.9-5.4c3.3-2.1,5.1-4.7,5.2-7.1C131.3,34.4,129.4,31.7,125.9,29.4z M81.8,37.2c0-6.2,11.3-8.4,21.1-8.4
		s21.1,2.2,21.1,8.4s-11.3,8.4-21.1,8.4C93.2,45.6,81.8,43.4,81.8,37.2z"/>
</g>
<path class="st6" d="M134.2,28.9c-1.4-1.8-3.3-3.4-5.6-4.9l-0.7-0.6h-0.4c-6.1-3.6-14.8-5.7-23.9-5.9h-1.1
	c-10.3,0-19.8,2.4-25.9,6.7l-0.9,0.6c-1.4,1.1-2.6,2.2-3.5,3.4c-1.8,2.3-2.8,4.9-2.9,7.5c-0.1,3.3,1.3,6.6,4.1,9.4
	c0.9,0.9,1.9,1.8,3.1,2.6c6.2,4.5,15.9,7.2,26.4,7.4h1.3c9.7,0,18.2-2.1,24.2-5.7c5.4-3.2,8.7-7.6,8.8-12.6
	C137.3,34.2,136.2,31.4,134.2,28.9z M102.9,49.4c-6.3-0.1-12.3-1.3-17.1-3.2c-3.4-1.3-6.3-3.1-8.2-5.1c-1.7-1.7-2.5-3.5-2.5-5.2
	c0.1-1.9,1.1-3.9,3.4-5.8l0.7-0.6c5.1-3.8,13.8-6.1,23.2-6.1h1c8.5,0.1,16.4,2.1,21.7,5.4l0.7,0.5h0.1c3.5,2.3,5.4,5,5.4,7.6
	c-0.1,2.4-1.9,5-5.2,7.1c-4.7,3.1-12.4,5.4-21.9,5.4H102.9z"/>
<g>
	<path class="st7" d="M159.2,138.8c-4.1-2.4-7.1-6.5-8-11.5c-0.8-4.7,0.5-9.2,3.1-12.7l-26-65c-5.9,3.5-14.4,5.7-24.2,5.7h-1.3
		c-10.5-0.2-20.2-3-26.4-7.4L59.3,81.6c1.2,0.9,2.2,2,3,2.9c10.4-9.6,42.8-34.9,61.1,5.2c9.2,5.9,15.9,14.9,19,25.2
		c2.4,7.6,2.7,15.9,0.6,24.2c-2.2,9-7,16.8-13.4,22.6l0.4,2.6c6.6,0.8,12.7,0.1,17-2.8C154.3,156.7,159.7,148.5,159.2,138.8
		L159.2,138.8z M53.3,133.9l-0.1,0.9c0,0-9.8-7.8-11.3-19l-0.8,1.6c1.4,3,2,6.4,1.4,9.9c-0.8,5-3.9,9.1-8,11.5
		c-0.5,9.7,5,17.9,12,22.6c5.4,3.6,13.6,3.9,22.2,1.9l0.2-0.6C60.3,155.3,54.7,145.1,53.3,133.9z M54.6,90.8l-0.2,0.3l0.2-0.2
		L54.6,90.8z M102.9,45.6c9.8,0,21.1-2.2,21.1-8.4s-11.3-8.4-21.1-8.4S81.8,31,81.8,37.2S93.2,45.6,102.9,45.6z M102.9,34.7
		c7.7,0,12.8,1.5,14.7,2.5c-1.9,1.1-7,2.5-14.7,2.5c-7.7,0-12.8-1.5-14.7-2.5C90.2,36.1,95.2,34.7,102.9,34.7z"/>
</g>
<g>
	<path class="st8" d="M89.5,108.7c-0.8-0.4-1.8-0.7-2.7-0.8l-14.5-0.9c-1.8-0.1-3.6,0.5-4.9,1.7c-1.3,1.2-2.2,2.9-2.3,4.7l-0.4,6.1
		c-0.2,3.7,2.7,7,6.4,7.2l14.5,0.9c1.8,0.1,3.6-0.5,4.9-1.7c1.3-1.2,2.2-2.9,2.3-4.7l0.4-6.1C93.4,112.5,91.9,109.9,89.5,108.7z
		 M88.8,119.5l-0.5,4.3l-4.5-0.5l0.5-4.5c0.4-3.5-1.4-6.2-5.2-6.3c-4.2-0.2-6.1,2.9-6.3,5.2l-0.6,4.2l-3.9-0.5l0.6-4.2
		c0.7-5.5,5.7-9.5,11.2-8.8C85.5,109,89.5,114,88.8,119.5z M134.4,114.5c-0.6-1.4-1.7-2.5-3.1-3.3c-0.8-0.4-1.8-0.7-2.7-0.8
		l-14.5-0.9c-3.8-0.2-7,2.7-7.2,6.4l-0.4,6.1c-0.2,3.7,2.7,7,6.4,7.3l14.5,0.9c1.8,0.1,3.6-0.5,4.9-1.7c1.4-1.2,2.2-2.9,2.3-4.7
		l0.4-6.1c0-0.7,0-1.3-0.2-2C134.7,115.4,134.5,115,134.4,114.5L134.4,114.5z M129.7,122.9l-0.5,4.3l-4.5-0.5l0.5-4.5
		c0.4-3.5-1.4-6.2-5.2-6.3c-4.2-0.2-6.1,2.9-6.3,5.2l-0.5,4.3l-3.9-0.5l0.5-4.3c0.7-5.5,5.7-9.5,11.2-8.8
		C126.4,112.4,130.4,117.4,129.7,122.9L129.7,122.9z M35.7,46.2L33,68.7l-21.3,2.8L33,74.3l2.7,22.4l2.7-22.4l21.3-2.8l-21.3-2.8
		L35.7,46.2z M170.4,84l-2-16.7l-2,16.7l-15.8,2.1l15.8,2.1l2,16.6l2-16.6l15.9-2.1L170.4,84z M148.9,56.4l-1.4-11.7l-1.4,11.7
		l-11.2,1.5l11.2,1.5l1.4,11.7l1.4-11.7l11.2-1.5L148.9,56.4z"/>
	<circle class="st8" cx="47.5" cy="57.5" r="4.3"/>
	<circle class="st8" cx="158" cy="46.9" r="4.3"/>
	<circle class="st8" cx="22.8" cy="86.1" r="4.3"/>
</g>
</svg>
