<svg width="379" height="122" fill="none" xmlns="http://www.w3.org/2000/svg"><path d="M62.719 0H16.745C8.912 0 1 5.037 1 16.119c0 20.82 14.984 21.156 23.577 20.82v-4.701c0-2.687 1.623-2.687 2.384-2.687H62.72c7.752 0 13.28-5.708 13.28-15.447C76 6.314 70.472 0 62.719 0z" fill="#6500E4"/><path d="M40.849 37H25v30h15.849C46.919 67 54 61.273 54 52s-7.081-15-13.151-15z" fill="url(#paint0_linear_205_38)"/><path d="M25 95.149V67C6.225 67 .624 81.244.17 88.366c-1.179 10.513 3.923 15.601 10.544 16.618C20.76 105.363 25 98.879 25 95.149z" fill="#C1157C"/><path d="M70.29 80.947H53.15c-1.035 0-1.816.264-2.343.791-.528.508-.791 1.26-.791 2.256V105h-7.618V83.994c0-1.308.166-2.48.498-3.516.332-1.035.772-1.943 1.319-2.724a9.096 9.096 0 011.933-2.022 10.919 10.919 0 012.256-1.376 11.4 11.4 0 012.403-.762c.82-.176 1.582-.264 2.285-.264h17.197v7.617zm12.772-14.12h-7.617V59.94h7.618v6.885zm0 38.173h-7.617V73.33h7.618V105zm41.397-21.182c0 1.055-.186 2.198-.557 3.428a10.245 10.245 0 01-1.816 3.398c-.82 1.036-1.904 1.905-3.252 2.608-1.328.703-2.949 1.055-4.863 1.055H100.23V87.07h13.741c1.035 0 1.836-.312 2.402-.937.566-.645.85-1.436.85-2.373 0-.996-.323-1.778-.967-2.344-.625-.566-1.387-.85-2.285-.85H100.23c-1.035 0-1.836.323-2.402.967-.566.625-.85 1.406-.85 2.344v10.635c0 1.015.313 1.806.938 2.373.645.566 1.436.85 2.373.85h13.682V105H100.23c-1.054 0-2.197-.186-3.427-.557a10.52 10.52 0 01-3.399-1.787c-1.035-.84-1.904-1.924-2.607-3.252-.703-1.347-1.055-2.978-1.055-4.892V83.818c0-1.054.186-2.187.557-3.398.37-1.23.967-2.363 1.787-3.398.84-1.055 1.924-1.934 3.252-2.637 1.348-.703 2.978-1.055 4.892-1.055h13.741c1.054 0 2.187.186 3.398.557a9.892 9.892 0 013.399 1.816c1.054.82 1.933 1.904 2.636 3.252.703 1.328 1.055 2.95 1.055 4.863zM164.684 105h-7.618V87.422c0-.996-.175-1.885-.527-2.666a6.018 6.018 0 00-1.377-2.05 5.839 5.839 0 00-2.08-1.29 6.8 6.8 0 00-2.549-.469h-13.33V105h-7.617V77.11c0-.528.098-1.016.293-1.466.195-.468.469-.869.82-1.2a3.84 3.84 0 012.725-1.113h17.168c.957 0 1.963.106 3.017.321a13.7 13.7 0 013.164 1.055 13.905 13.905 0 012.989 1.816 11.316 11.316 0 012.519 2.666c.742 1.036 1.328 2.237 1.758 3.604.43 1.367.645 2.91.645 4.629V105zm41.425-10.693c0 1.308-.166 2.49-.498 3.545-.332 1.035-.771 1.953-1.318 2.753a9.384 9.384 0 01-1.904 2.022c-.723.547-1.485.996-2.285 1.348-.782.351-1.583.615-2.403.791a11.96 11.96 0 01-2.285.234h-13.74c-1.309 0-2.481-.166-3.516-.498a10.613 10.613 0 01-2.754-1.318 10.027 10.027 0 01-2.021-1.934 11.703 11.703 0 01-1.348-2.256c-.351-.8-.615-1.601-.791-2.402a12.282 12.282 0 01-.234-2.285V83.994c0-1.953.351-3.603 1.054-4.951.723-1.367 1.612-2.47 2.666-3.31a10.2 10.2 0 013.487-1.846c1.25-.371 2.402-.557 3.457-.557h13.74v7.617h-13.682c-1.015 0-1.787.264-2.314.791-.527.508-.791 1.26-.791 2.256v10.254c0 1.035.254 1.816.762 2.344.527.527 1.289.79 2.285.79h13.74c1.035 0 1.807-.263 2.314-.79.508-.528.762-1.29.762-2.285V59.94h7.617v34.366zm37.881 0c0 1.308-.166 2.49-.498 3.545-.332 1.035-.771 1.953-1.318 2.753a9.384 9.384 0 01-1.904 2.022c-.723.547-1.485.996-2.286 1.348-.781.351-1.582.615-2.402.791a11.96 11.96 0 01-2.285.234h-20.625v-7.617h20.566c1.035 0 1.817-.264 2.344-.791.527-.528.791-1.29.791-2.285-.098-2.032-1.123-3.047-3.076-3.047H221.49c-1.679 0-3.105-.293-4.277-.88-1.172-.585-2.129-1.317-2.871-2.196a8.714 8.714 0 01-1.582-2.842c-.313-1.016-.469-1.963-.469-2.842 0-1.7.303-3.125.908-4.277.606-1.172 1.367-2.12 2.285-2.842a8.747 8.747 0 012.989-1.553c1.074-.332 2.08-.498 3.017-.498h18.721v7.617h-18.662c-.391 0-.703.05-.938.147a1.05 1.05 0 00-.498.351.978.978 0 00-.175.47c-.02.155-.03.312-.03.468.02.312.078.556.176.732a.958.958 0 00.352.381c.156.078.322.127.498.147h12.363c1.953 0 3.613.351 4.98 1.054 1.368.703 2.471 1.592 3.311 2.666a10.139 10.139 0 011.816 3.457c.391 1.25.586 2.412.586 3.487zM291.422 105h-7.617V94.687h-26.778V105h-7.617V83.994c0-3.066.528-5.888 1.582-8.467 1.055-2.578 2.52-4.795 4.395-6.65 1.875-1.855 4.092-3.3 6.65-4.336 2.559-1.035 5.352-1.553 8.379-1.553h17.168a3.847 3.847 0 012.725 1.114c.351.351.625.761.82 1.23.195.469.293.967.293 1.494V105zm-34.395-17.93h26.778V70.606h-13.389c-.234 0-.732.038-1.494.117-.742.058-1.611.224-2.608.498-.976.273-2.011.693-3.105 1.26-1.094.566-2.1 1.347-3.018 2.343-.918.996-1.679 2.246-2.285 3.75-.586 1.485-.879 3.291-.879 5.42v3.076zm77.168 7.237c0 1.308-.166 2.49-.498 3.545-.332 1.035-.771 1.953-1.318 2.753a9.384 9.384 0 01-1.904 2.022c-.723.547-1.485.996-2.286 1.348-.781.351-1.572.615-2.373.791-.8.156-1.562.234-2.285.234h-13.74v-7.617h13.74c1.016 0 1.778-.264 2.285-.791.508-.528.762-1.29.762-2.285V84.053c0-1.055-.264-1.836-.791-2.344-.508-.508-1.26-.762-2.256-.762H309.85c-1.036 0-1.817.264-2.344.791-.527.508-.791 1.26-.791 2.256v30.908h-7.617V83.994c0-1.308.166-2.48.498-3.516.332-1.035.771-1.943 1.318-2.724a9.08 9.08 0 011.934-2.022 10.883 10.883 0 012.256-1.376c.8-.352 1.601-.606 2.402-.762.82-.176 1.582-.264 2.285-.264h13.74c1.309 0 2.481.166 3.516.498 1.035.332 1.943.772 2.724 1.319a8.566 8.566 0 012.022 1.904 10.651 10.651 0 011.377 2.285c.351.781.605 1.572.762 2.373.175.8.263 1.563.263 2.285v10.313zm41.426 0c0 1.308-.166 2.49-.498 3.545-.332 1.035-.771 1.953-1.318 2.753a9.364 9.364 0 01-1.905 2.022c-.722.547-1.484.996-2.285 1.348-.781.351-1.572.615-2.373.791a11.96 11.96 0 01-2.285.234h-13.74v-7.617h13.74c1.016 0 1.777-.264 2.285-.791.508-.528.762-1.29.762-2.285V84.053c0-1.055-.264-1.836-.791-2.344-.508-.508-1.26-.762-2.256-.762h-13.682c-1.035 0-1.816.264-2.343.791-.528.508-.791 1.26-.791 2.256v30.908h-7.618V83.994c0-1.308.166-2.48.498-3.516.333-1.035.772-1.943 1.319-2.724a9.098 9.098 0 011.933-2.022 10.935 10.935 0 012.256-1.376 11.403 11.403 0 012.403-.762c.82-.176 1.582-.264 2.285-.264h13.74c1.309 0 2.481.166 3.516.498 1.035.332 1.943.772 2.724 1.319a8.566 8.566 0 012.022 1.904 10.651 10.651 0 011.377 2.285c.351.781.605 1.572.761 2.373.176.8.264 1.563.264 2.285v10.313z" fill="url(#paint1_linear_205_38)"/><defs><linearGradient id="paint0_linear_205_38" x1="39.5" y1="37" x2="39.5" y2="67" gradientUnits="userSpaceOnUse"><stop stop-color="#6500E4"/><stop offset="1" stop-color="#C1157C"/></linearGradient><linearGradient id="paint1_linear_205_38" x1="379" y1="84" x2="44" y2="89" gradientUnits="userSpaceOnUse"><stop stop-color="#6500E4"/><stop offset="1" stop-color="#C1157C"/></linearGradient></defs></svg>