<svg xmlns="http://www.w3.org/2000/svg" viewBox="0 0 183.18 34.71"><defs><style>.cls-1{fill:#82b541;}.cls-2{fill:#fff;}</style></defs><title>Ресурс 1</title><g id="Слой_2" data-name="Слой 2"><g id="Layer_1" data-name="Layer 1"><path class="cls-1" d="M23.49,3.5c-.92-.51-3.57-.2-6.74.78C11.2,8.08,6.51,13.68,6.18,22.66c-.06.21-.61,0-.71-.1a12.8,12.8,0,0,1-.85-10.27c.24-.39-.53-.86-.66-.73a16,16,0,0,0-2.19,2.82,13.68,13.68,0,0,0,23.91,13.3C29.93,20.06,26,4.89,23.49,3.5Z"/><path class="cls-2" d="M47.11,7.15C39.29,7.15,33.61,13,33.61,21s5.66,13.72,13.77,13.72a13.16,13.16,0,0,0,9.93-3.92,2.89,2.89,0,0,0,.85-1.94,2.2,2.2,0,0,0-2.31-2.25,2.65,2.65,0,0,0-1.89.85,9.06,9.06,0,0,1-6.58,2.75,8.13,8.13,0,0,1-8.27-7.61H56.78c1.92,0,2.85-.9,2.85-2.75a10.21,10.21,0,0,0-.11-1.71C58.57,11.26,53.93,7.15,47.11,7.15Zm0,4.3c4.25,0,7,2.7,7.14,7.06H39.11A7.89,7.89,0,0,1,47.11,11.45Z"/><path class="cls-2" d="M76.51,7.15A9.62,9.62,0,0,0,68.06,12V10.28c0-2.71-2.11-2.85-2.53-2.85A2.52,2.52,0,0,0,63,10.28V31.47a2.7,2.7,0,1,0,5.38,0V20.11c0-4.94,2.81-8.39,6.82-8.39s5.77,2.55,5.77,7.79v12a2.7,2.7,0,1,0,5.38,0V17.82C86.3,12.66,83.73,7.15,76.51,7.15Z"/><path class="cls-2" d="M110.66,7.43A2.8,2.8,0,0,0,108,9.58L100.61,28.1,93.3,9.58a2.85,2.85,0,0,0-2.74-2.15A2.64,2.64,0,0,0,87.87,10a3.67,3.67,0,0,0,.34,1.52l8.46,20c1,2.41,2.67,2.92,3.89,2.92s2.87-.51,3.88-2.92L113,11.42A4,4,0,0,0,113.3,10,2.53,2.53,0,0,0,110.66,7.43Z"/><path class="cls-2" d="M126.31,7.15a15.32,15.32,0,0,0-9,2.7,2.47,2.47,0,0,0-1.2,2.13,2.09,2.09,0,0,0,2.09,2.14,2.87,2.87,0,0,0,1.6-.57,10.57,10.57,0,0,1,6-2c4,0,6.27,2,6.27,5.56v.58c-8.94,0-18,1.09-18,8.87,0,5.59,4.79,8.1,9.52,8.1a10,10,0,0,0,8.72-4.33v1.36a2.48,2.48,0,0,0,2.53,2.75,2.43,2.43,0,0,0,2.42-2.75V17.44C137.25,11,133.16,7.15,126.31,7.15ZM131,21.66h1.13V22.9c0,4.53-2.89,7.47-7.36,7.47-1.21,0-5.17-.29-5.17-3.92C119.56,22.15,126.06,21.66,131,21.66Z"/><path class="cls-2" d="M151.27,12.32a2.17,2.17,0,0,0,2.48-2.2,2.2,2.2,0,0,0-2.48-2.26h-4.84V3a2.68,2.68,0,1,0-5.33,0V26.23c0,5.37,2.65,8.21,7.66,8.21a8.48,8.48,0,0,0,3.39-.62,2.42,2.42,0,0,0,1.49-2.13,2.09,2.09,0,0,0-2.15-2.15,3.74,3.74,0,0,0-1,.17,4.11,4.11,0,0,1-1.11.16c-2,0-3-1.33-3-4.19V12.32Z"/><path class="cls-2" d="M169.07,7.15c-8.14,0-14,5.78-14,13.73a13.72,13.72,0,0,0,4,9.93,14.19,14.19,0,0,0,10,3.9c8.05,0,14.11-5.95,14.11-13.83S177.25,7.15,169.07,7.15Zm0,23c-5.58,0-8.5-4.67-8.5-9.27,0-6.33,4.41-9.22,8.5-9.22s8.51,2.89,8.51,9.22S173.17,30.15,169.07,30.15Z"/></g></g></svg>