<svg xmlns="http://www.w3.org/2000/svg" viewBox="0 0 156.98 60.36"><defs><style>.cls-1,.cls-2,.cls-3{fill:none;}.cls-1,.cls-2,.cls-3,.cls-4{stroke:#fff;stroke-miterlimit:10;}.cls-1{stroke-width:4px;}.cls-2{stroke-width:2px;}.cls-3,.cls-4{stroke-width:0.75px;}.cls-4{fill:#262424;}</style></defs><title>Ресурс 1</title><g id="Слой_2" data-name="Слой 2"><g id="Layer_1" data-name="Layer 1"><path class="cls-1" d="M104.43,58.36h47.72L119.2,25.41,100.44,57.34A10,10,0,0,1,104.43,58.36Z"/><path class="cls-1" d="M98.64,57.51l.3,0L54.55,13.07,5.14,58.36h91.6A4.83,4.83,0,0,1,98.64,57.51Z"/><path class="cls-1" d="M100.17,57.34l14.72-25.06L85.69,2.83,65.23,23.29,99.34,57.4Z"/><polyline class="cls-2" points="38.45 27.83 47.01 35.72 54.78 27.83 59.85 31.77 66.5 25.02"/><polyline class="cls-2" points="74.81 11.17 82.82 16.47 87.21 11.17 92.96 16.47 96.47 11.17"/><polyline class="cls-2" points="113.14 35.72 120.66 39.78 127.79 34"/><rect class="cls-3" x="90.26" y="58.78" width="18.45" height="1.19"/><rect class="cls-3" x="91.58" y="57.58" width="15.91" height="1.05"/><rect class="cls-3" x="94.3" y="49.5" width="10.27" height="8.08"/><path class="cls-4" d="M97.83,57.07c0-1.72.74-3.1,1.65-3.1h0c.91,0,1.65,1.38,1.65,3.1Z"/><polygon class="cls-3" points="92.79 49.26 99.5 45.39 106.2 49.26 92.79 49.26"/></g></g></svg>