<svg xmlns="http://www.w3.org/2000/svg" viewBox="0 0 185.1 75.76"><defs><style>.cls-1{font-size:38.34px}.cls-1,.cls-4{fill:#e8e8e8}.cls-1{font-family:Dublon}.cls-3{fill:#d64045}</style></defs><g id="Слой_2" data-name="Слой 2"><g id="Слой_5" data-name="Слой 5"><text class="cls-1" transform="translate(0 43.46)">P</text><text class="cls-1" transform="translate(29.9 43.46)">H</text><text class="cls-1" transform="translate(121.22 43.46)">T</text><text class="cls-1" transform="translate(153.59 42.95)">O</text><text class="cls-1" transform="translate(153.59 43.46)">O</text><text transform="translate(38.23 69.7)" font-size="30" font-family="Dublon" fill="#e8e8e8">gallery</text><path class="cls-3" d="M74 6.3a7.18 7.18 0 011.29-.91 6.46 6.46 0 01.96-.39 5.79 5.79 0 011.07-.26 6.89 6.89 0 01.74-.05h9.32a14.21 14.21 0 01.71-1.35 10.84 10.84 0 01.8-1.17A6.5 6.5 0 0190 1a4.4 4.4 0 011.16-.75 4.73 4.73 0 01.91-.25h7.67a3 3 0 01.73.19 3.67 3.67 0 011.89 2.37l.26 1.81a11.37 11.37 0 012.59.39 7 7 0 014.29 2.5 5.11 5.11 0 01.76 1.91v.92a5.82 5.82 0 01.7 1 6 6 0 01.68 3v15.04a5.56 5.56 0 01-.22 1.19c-.87 3.07-3.92 4.61-4.73 5a10.66 10.66 0 01-1.9.75l-3.18.11a11.08 11.08 0 001.8-.93 11.22 11.22 0 004-4.67l.47-16a9.75 9.75 0 00-.64-1.62 9.9 9.9 0 00-5.14-4.54c-.87-.32-2.35-.87-3.56-.22a6.22 6.22 0 00-.88.68 7.56 7.56 0 01-2.85 1.34l-12.28-.43a2.17 2.17 0 01-.9-.61c-.46-.51-.33-.89-.75-1.36a2.6 2.6 0 00-1.4-.7 5.3 5.3 0 00-1.8-.12 10.12 10.12 0 00-4 .89 9.2 9.2 0 00-1.51.86 6.14 6.14 0 01.83-1.4 6.06 6.06 0 011-1.05z"/><path class="cls-3" d="M80.25 4.17V3a6.06 6.06 0 011.18-.67 7.49 7.49 0 015.79.27v1.59z"/><path class="cls-4" d="M96.69 12.48a1.46 1.46 0 01.9.1 1.68 1.68 0 01.72.66 2.2 2.2 0 01.36 1.21 1.71 1.71 0 01-.46 1.32 1.45 1.45 0 01-1.38.3 1.64 1.64 0 01-.93-.88 2 2 0 01-.2-1.69 1.55 1.55 0 01.99-1.02zm3.89.89a1.46 1.46 0 01.9.1 1.68 1.68 0 01.72.66 2.08 2.08 0 01.35 1.21 1.66 1.66 0 01-.45 1.32 1.46 1.46 0 01-1.38.3 1.61 1.61 0 01-.93-.88 2 2 0 01-.2-1.69 1.57 1.57 0 01.99-1.02z"/><path class="cls-3" d="M77.37 14.54a10.82 10.82 0 017.13-1.39l-2 1.78a16 16 0 00-2.48-.38 18.76 18.76 0 00-2.65-.01zm6.36.7l2.08-1.81a14.26 14.26 0 011.84.68 14.11 14.11 0 011.68.92L87 16.67a15.07 15.07 0 00-1.4-.73 14.91 14.91 0 00-1.87-.7zm3.94 1.89l2.42-1.58a17 17 0 011.38 1.1c.43.39.82.78 1.16 1.14l-2.52 1.47a11.77 11.77 0 00-1.11-1.1 13 13 0 00-1.33-1.03zm3 2.78l2.54-1.46c.28.36.58.78.88 1.25a12.32 12.32 0 01.91 1.73l-2.6 1.22a12.23 12.23 0 00-.69-1.25 13.72 13.72 0 00-1.04-1.49zm2.16 3.63l2.62-1c.12.37.23.77.33 1.19s.23 1 .3 1.49l-2.51.74c-.08-.36-.19-.74-.31-1.14s-.26-.89-.43-1.28zm1.03 3.69l2.41-.56v1.22c0 .43 0 .84-.09 1.21l-2.18.07c0-.37 0-.76-.08-1.16s-.03-.53-.06-.78zm-1.13 9.47a23.67 23.67 0 00.89-3.23l1.19.19a13.13 13.13 0 01-1 1.61 14.3 14.3 0 01-1.08 1.43zM94 30.54l1.92.1c-.06.28-.14.57-.23.88s-.2.6-.3.86l-1.54-.21c0-.29.08-.59.11-.91s.04-.49.04-.72zm-29.61-1.42a10 10 0 01.54-3.79 11.78 11.78 0 0110.52-7.45c4.62-.15 7.78 2.71 8.93 3.75a14.33 14.33 0 014.82 11.51 10.6 10.6 0 01-4.82 8.13 12.92 12.92 0 01-7.14 2.19 8.57 8.57 0 002.79-1 9.44 9.44 0 004-5.42 11.36 11.36 0 00-1.52-9.09 12.28 12.28 0 00-4.7-4.3 10.09 10.09 0 00-6.45-1.43 7.62 7.62 0 00-3.91 1.71 7.71 7.71 0 00-1.23 1.39 11.9 11.9 0 00-1.83 3.8z"/><path class="cls-3" d="M69.3 29.13a6.9 6.9 0 00-.45 3.19 7.2 7.2 0 002.26 4.46 6.06 6.06 0 003.13 1.81 5.18 5.18 0 003.88-.67A5.07 5.07 0 0080 35.45a6.15 6.15 0 00.21-3.58 7.24 7.24 0 00-1.86-3.51 6.55 6.55 0 00-3-2 6.42 6.42 0 00-2.66-.22 4.09 4.09 0 01.67 1.2 4.14 4.14 0 01.24 1.3 2.1 2.1 0 01-.31 1.36 1.59 1.59 0 01-1 .66c-.28 0-.48-.06-.64.08a.65.65 0 00-.16.51 6.88 6.88 0 00.11 2 5.42 5.42 0 00.5 1.2 8.8 8.8 0 00.9 1.33c.25.31.58.7 1 1.14a3.53 3.53 0 01-1.43-.72 4.71 4.71 0 01-1.09-1.51 7.79 7.79 0 01-.77-1.78 7.34 7.34 0 01-.27-2.15 6.34 6.34 0 01.06-.76z"/><path class="cls-4" d="M72.9 31.53a1.43 1.43 0 01.72-.76 1.49 1.49 0 011.13 0 2.13 2.13 0 011 1 3 3 0 01.4 1.31 1.74 1.74 0 01-.36 1.38 1.52 1.52 0 01-1.18.34 2 2 0 01-1.33-.92 2.72 2.72 0 01-.52-1.45 1.86 1.86 0 01.14-.9zm4.78-.1a.9.9 0 01.78.14 1.16 1.16 0 01.42.86 1 1 0 01-.24.87.9.9 0 01-.86.1 1.11 1.11 0 01-.64-.62 1.13 1.13 0 010-.85.92.92 0 01.54-.5z"/></g></g></svg>