<?xml version="1.0" encoding="utf-8"?>
<!-- Generator: Adobe Illustrator 22.1.0, SVG Export Plug-In . SVG Version: 6.00 Build 0)  -->
<svg version="1.1" id="Layer_1" xmlns="http://www.w3.org/2000/svg" xmlns:xlink="http://www.w3.org/1999/xlink" x="0px" y="0px"
	 viewBox="0 0 200 200" style="enable-background:new 0 0 200 200;" xml:space="preserve">
<style type="text/css">
	.st0{fill:#FF9D00;}
	.st1{fill:#FFCE13;}
	.st2{fill:#373737;}
	.st3{fill:#ECEFF0;}
	.st4{fill:#FFE994;}
	.st5{fill:#E6E7E8;}
</style>
<g>
	<path class="st0" d="M133.3,146.7l-5.1,16.6l27.8,12.2l-11.9-48.2C141.4,134.2,138.2,141.6,133.3,146.7L133.3,146.7z M135.5,82.9
		c10.1-0.1,17.9,6.6,17.6,16.8c0.1,3.3-0.6,6.7-1.7,10l34.1-35.3l-57.4-5.7c-1.7-0.2-3.1-1.2-3.8-2.7L99.5,14.5l-7.4,14.6
		c7.7,1.9,14.3,8.2,14.3,18.7c-0.1,9.1-0.6,18.3-0.9,27.4C115.8,67,131.1,69.8,135.5,82.9z M43.5,106.5C41.3,95,39.1,83.5,37,72
		l-22.4,2.3l29.1,33L43.5,106.5z M38.6,174.5l6.5-2.7c1.7-0.7,3.4-2.1,5-3.1c1-0.8,2.3-1.3,3.7-1.3h1.2l-5.8-30.5L38.6,174.5z"/>
</g>
<g>
	<path class="st1" d="M199.9,69.1l0.1,0.3L199.9,69.1z M199.9,69.1 M199.9,69.1c-0.6-1.7-2.2-2.8-3.9-3l-64.2-6.3L104.1,2.1
		c-1.6-3.4-6.7-3.5-8.5-0.2L81.5,29.2c0.8-0.2,1.7-0.4,2.5-0.5c2.4-0.4,4.8-0.3,7.1,0.2c0.3,0.1,0.6,0.1,0.9,0.2l0.2,0l7.4-14.6
		l24.8,51.5c0.7,1.5,2.2,2.5,3.8,2.7l57.3,5.7l-34.1,35.3c-1.4,4.3-3.3,8.4-4.9,12.3c-0.7,1.7-1.5,3.6-2.2,5.4l11.9,48.2l-27.8-12.2
		c-0.4,1.4-0.8,2.7-1.3,4.1h6.2c3.3,0,6,2.8,6,6H139v4.8l21.9,9.6c3.5,1.6,7.5-1.5,6.6-5.3l-14.9-60.7l46.4-47.9
		C200.2,72.6,200.5,70.8,199.9,69.1L199.9,69.1z M43.7,107.3L14.5,74.4L37,72c-0.6-3.1-1.2-6-1.4-9.2L4.6,66.1
		c-3.6,0.4-5.5,4.7-3.1,7.6l42.2,47.9l-16.9,59.7c-1.1,3.7,2.9,7,6.4,5.5l14.6-6v-7.4c0-0.2,0-0.5,0-0.7l0-0.3l0.1-0.4l0.1-0.4
		l0.1-0.2c0.1-0.4,0.3-0.8,0.5-1.1l-10.1,4.1l10.7-37.7C47.4,127,45.5,117.2,43.7,107.3z"/>
</g>
<path class="st2" d="M135.5,82.9c-4.4-13.1-19.6-15.9-30-7.6c0.3-9.1,0.7-18.3,0.9-27.4c0-10.5-6.5-16.8-14.3-18.7l-0.2,0
	c-0.3-0.1-0.6-0.1-0.9-0.2c-2.3-0.5-4.8-0.5-7.1-0.2c-0.8,0.1-1.7,0.3-2.5,0.5c-7.4,2-13.7,8.1-13.8,18.3L67.6,48
	c-0.4-0.4-0.9-0.8-1.3-1.2c-0.2-0.2-0.4-0.3-0.6-0.4L65.3,46L65,45.8c-0.2-0.1-0.4-0.3-0.6-0.4l-0.1,0c-4-2.5-8.7-3.3-13.2-2.4
	c-4.7,0.9-9.1,3.6-12,7.8c-0.2,0.3-0.4,0.6-0.6,0.9L38.2,52c-3.7,6.3-2.6,13-1.3,20l6.5,34.5l0.1,0.6l0,0.3
	c1.2,6.4,2.4,12.9,3.7,19.3l2,10.3l5.8,30.5h-1.2c-1.4,0-2.7,0.5-3.7,1.3c-0.9,0.7-1.6,1.7-2,2.8l-0.1,0.2L48,172l-0.1,0.4l0,0.3
	c0,0.2,0,0.5,0,0.7v20.1c0,3.3,2.7,6,6,6h79.2c3.3,0,6-2.7,6-6v-20.1h0.1c0-3.3-2.8-6-6-6h-6.2l1.3-4.1l5.1-16.6
	c0.2-0.2,0.4-0.4,0.6-0.7c4.5-5.1,7.6-12.2,10.3-18.7c0.8-1.9,1.5-3.7,2.2-5.4c1.6-3.9,3.6-8,4.9-12.3c1.1-3.3,1.8-6.6,1.7-10
	C153.3,89.5,145.5,82.8,135.5,82.9L135.5,82.9z"/>
<path class="st3" d="M123.1,177.4c-9,0-9,14,0,14S132.1,177.4,123.1,177.4z"/>
<g>
	<path class="st4" d="M38,52.4l0.2-0.4l0.2-0.3c0.2-0.3,0.4-0.6,0.6-0.9c2.9-4.2,7.3-6.9,12-7.8c4.4-0.9,9.2-0.1,13.2,2.4l0.1,0
		l0.6,0.4l0.3,0.3l0.4,0.3l0.6,0.4l0.1,0.1L76.7,5.4L17.9,52.4L38,52.4z M123.8,5.3l11.8,47.1h47.1L123.8,5.3z M16.8,167.4L37,123.2
		L0.2,93.9L16.8,167.4z M157.6,122.9l20.2,44.1l16.5-73.5L157.6,122.9z"/>
</g>
<g>
	<path class="st5" d="M119.3,151.9c-7.2-0.2-13-3.9-15.8-9.4c-7.1,0.7-26.7,6.4-31.5-0.6c12.6-1.6,25.2-3.1,37.8-4.7
		c0.3,0,0.7-0.1,1-0.1l0.3,0l0.8-0.1l0.2,0c0.3-0.1,0.6-0.1,0.8-0.2l0.1,0c8.3-1.7,15.6-7.7,14.6-16.8c0-0.3-0.1-0.7-0.1-1l-0.2-0.8
		c-1-4.9-3.2-7.9-6.2-9.8c-4.7-2.9-11.3-2.9-18-3.2l-3.6-0.1c-0.8,0-1.6-0.1-2.4-0.1c-6.3-0.3-12.6-0.6-18.9-0.8
		c-4.9-0.2-9.8-0.5-14.6-0.7c1.4-1.9,3.8-3.1,6.2-3.1c9.1,0.2,18.2,0.5,27.3,0.8c7.3,0.2,16.2-0.8,23,2.5l9.9-16.4
		c-0.6-10.7-12.6-14.8-20.1-7.3c-4.9,4.8-8.9,10.9-11.6,17.2c0.6-16.9,1.4-33.9,1.7-50.8c0-16.1-25.1-16.2-25.1,0
		c-0.9,13-1.8,26-2.7,39c-0.1,0.9-1.2,0.8-1.3,0.1l-6-26.5l-0.2,0.1c-0.1-0.5-0.2-0.9-0.3-1.3l-0.1-0.4c-0.1-0.3-0.2-0.6-0.3-0.9
		L63.6,56c-0.1-0.3-0.2-0.6-0.4-0.8l-0.1-0.2c-0.2-0.3-0.3-0.6-0.5-0.8L62.6,54c-3.1-4.6-9.2-5.8-14.1-4L48.2,50l-0.4,0.2
		c-4.3,1.7-7.7,5.8-7.2,11.7l0,0.3l0.1,0.6l-0.2,0.1l20.6,104.5h60.6c1.8-5.5,3.5-11.1,5.3-16.6c-2.1,0.8-4.4,1.1-6.6,1.1
		L119.3,151.9L119.3,151.9z M148.7,98.9l0-0.5l0-0.1c-0.4-4.2-3.3-7.3-7.2-8.4c-0.9-0.3-1.9-0.5-3-0.5l1.3,0.1c1,0.1,2,0.1,0,0
		l-1.3-0.1h0c-1.9-0.1-4,0.1-5.8,0.9l-9.3,15.4c7.8,6.1,10.8,17.8,5,26.3c-0.3,0.4-0.5,0.7-0.8,1.1c-0.2,0.2-0.3,0.4-0.5,0.5
		l-0.4,0.5l-0.5,0.6l-0.4,0.4l-0.6,0.5l-0.4,0.4l-0.6,0.4l-0.5,0.4l-0.5,0.3l-0.6,0.4l-0.4,0.2c-0.3,0.1-0.5,0.3-0.8,0.4l-0.2,0.1
		c-0.3,0.2-0.6,0.3-1,0.5l0,0c-0.8,0.4-1.5,0.7-2.3,1l-0.1,0.1c-0.7,0.3-1.5,0.5-2.3,0.8l-0.3,0.1c-0.7,0.2-1.4,0.4-2.2,0.6
		l-0.4,0.1c-0.7,0.2-1.5,0.3-2.2,0.4l-0.3,0.1c0.2,0.3,0.3,0.5,0.5,0.8l0.1,0.1c1,1.3,2.2,2.2,3.6,2.9c2.2,1.1,4.7,1.4,7.2,1.3
		c6.8-0.3,9.6-6.7,12.5-11.9c0.3-0.4,0.5-0.9,0.8-1.4c5.3-9.5,12-20.7,13.6-31.6c0.1-0.7,0.2-1.4,0.3-2.2
		C148.7,99.5,148.7,99.2,148.7,98.9L148.7,98.9z"/>
</g>
</svg>
