<svg xmlns="http://www.w3.org/2000/svg" viewBox="0 0 87.92 46.95"><defs><style>.cls-1{font-size:10.42px;font-family:Rotonda-Regular, Rotonda-Regular;}.cls-1,.cls-2{fill:#fff;}</style></defs><title>Ресурс 8</title><g id="Слой_2" data-name="Слой 2"><g id="Слой_1-2" data-name="Слой 1"><text class="cls-1" transform="translate(52.36 44.7)">portfolio</text><path class="cls-2" d="M2.15,1.48V38.15a1,1,0,0,0,2,0V1.48a1,1,0,0,0-2,0Z"/><path class="cls-2" d="M2,2c11.25-.19,26,2.1,26,16.5,0,13.68-14.55,21.19-26.68,18.94C0,37.21-.54,39.14.72,39.38c13,2.4,28.06-5.1,29.15-19.45C31.12,3.57,14.94-.21,2,0A1,1,0,0,0,2,2Z"/><path class="cls-2" d="M24.15,7.48V44.81a1,1,0,0,0,2,0V7.48a1,1,0,0,0-2,0Z"/><path class="cls-2" d="M26.14,27.48Q37.48,17.38,49.49,8.1c1-.77,0-2.51-1-1.72Q36.25,15.8,24.73,26.06c-1,.86.45,2.27,1.41,1.42Z"/><path class="cls-2" d="M25.78,24.34a169.54,169.54,0,0,1,22.5,20.17c.88.94,2.29-.48,1.41-1.42a172.54,172.54,0,0,0-22.9-20.48c-1-.77-2,1-1,1.73Z"/></g></g></svg>