<svg xmlns="http://www.w3.org/2000/svg" width="512" height="512"><g transform="translate(0 -540.362)"><circle style="isolation:auto;mix-blend-mode:normal;solid-color:#000;solid-opacity:1" cx="256" cy="796.362" r="256" color="#000" overflow="visible" fill="none"/><g fill="#4abc96"><path d="M254.96 702.8L109.62 822.616c0 .17-.042.418-.127.757-.084.337-.128.58-.128.754v121.327c0 4.381 1.602 8.177 4.804 11.374 3.201 3.199 6.992 4.809 11.374 4.809h97.059v-97.065h64.715v97.068h97.058c4.381 0 8.177-1.606 11.374-4.812 3.203-3.193 4.81-6.992 4.81-11.374V824.127c0-.672-.093-1.18-.256-1.51L254.96 702.8z"/><path d="M455.906 795.316l-55.353-46.004v-103.13c0-2.357-.758-4.296-2.279-5.813-1.508-1.516-3.447-2.274-5.81-2.274h-48.53c-2.36 0-4.299.758-5.817 2.274-1.515 1.517-2.272 3.457-2.272 5.813v49.29l-61.674-51.567c-5.386-4.381-11.791-6.571-19.207-6.571-7.414 0-13.818 2.19-19.21 6.571L54.01 795.316c-1.685 1.346-2.608 3.157-2.78 5.432-.171 2.274.418 4.26 1.768 5.944l15.671 18.705c1.35 1.516 3.117 2.443 5.309 2.782 2.023.17 4.046-.422 6.069-1.77l174.913-145.85 174.916 145.85c1.35 1.176 3.117 1.763 5.308 1.763h.76c2.187-.333 3.95-1.266 5.308-2.779l15.673-18.702c1.348-1.688 1.938-3.67 1.763-5.946-.173-2.27-1.1-4.08-2.781-5.429z"/></g><g fill="#4abc96"><path d="M257.042 696.55L111.703 816.367c0 .169-.042.418-.127.757-.083.336-.128.58-.128.754v121.327c0 4.38 1.602 8.177 4.804 11.374 3.201 3.199 6.992 4.808 11.374 4.808h97.06v-97.064H289.4v97.068h97.059c4.38 0 8.176-1.606 11.373-4.812 3.203-3.193 4.81-6.992 4.81-11.374V817.878c0-.673-.093-1.18-.255-1.511L257.042 696.55z"/><path d="M457.99 789.067l-55.354-46.004v-103.13c0-2.357-.758-4.296-2.279-5.814-1.508-1.516-3.447-2.273-5.81-2.273h-48.53c-2.36 0-4.299.757-5.817 2.273-1.515 1.518-2.272 3.457-2.272 5.814v49.29l-61.674-51.567c-5.386-4.381-11.79-6.572-19.206-6.572-7.415 0-13.819 2.19-19.21 6.572L56.092 789.066c-1.685 1.346-2.608 3.158-2.78 5.433-.17 2.274.418 4.26 1.768 5.943l15.671 18.706c1.35 1.515 3.118 2.442 5.309 2.781 2.023.17 4.046-.421 6.069-1.768l174.913-145.852 174.916 145.85c1.35 1.176 3.117 1.763 5.308 1.763h.76c2.187-.333 3.95-1.266 5.308-2.778l15.673-18.703c1.348-1.687 1.938-3.67 1.763-5.945-.173-2.27-1.1-4.08-2.78-5.43z"/></g></g></svg>