<svg xmlns="http://www.w3.org/2000/svg" viewBox="0 0 496.158 496.158"><path d="M496.158 248.085C496.158 111.063 385.088.003 248.082.003 111.07.003 0 111.063 0 248.085c0 137.001 111.07 248.07 248.082 248.07 137.006 0 248.076-111.069 248.076-248.07z" fill="#4abc96"/><path d="M248.082 496.155c70.204 0 133.589-29.171 178.719-76.042-2.755-15.131-5.644-28.901-8.284-37.38-8.494-27.279-81.197-49.333-170.825-49.333S86.133 355.454 77.64 382.733c-2.64 8.479-5.529 22.247-8.283 37.377 45.129 46.873 108.517 76.045 178.725 76.045z" fill="#1d1d1e"/><path d="M343.079 450.709h-76.5v44.752c26.923-1.985 52.65-8.261 76.5-18.159v-26.593z" fill="#d6e7f2"/><path d="M266.579 449.849h76.5v6.223h-76.5zm68.836 15.996h-31.182a1.585 1.585 0 110-3.171h31.182a1.586 1.586 0 110 3.171zm0 11.891h-31.182a1.586 1.586 0 010-3.171h31.182a1.586 1.586 0 110 3.171zm-31.182 8.72a1.585 1.585 0 000 3.171h.554a245.24 245.24 0 0012.175-3.171h-12.729zm-31.714-25.367h23.387v29.728h-23.387z" fill="#556877"/><g fill="#d4d6d8"><path d="M248.163 443.412c19.558 0 41.748-108 41.748-108l-42.154 26.74-41.512-26.74s22.359 108 41.918 108z"/><path d="M210.167 335.412l37.62 28.073 38.204-28.073 1.861-13.166-40.023-5.25-39.523 5.25z"/></g><path d="M286.969 282.118h-77.78c12.136 36.588.978 53.294.978 53.294l26.912 6.063h22l26.912-6.062c0-.001-11.158-16.707.978-53.295z" fill="#e2a379"/><g fill="#f3faff"><path d="M282.079 358.746l5.773-36.5 17.893 15.546zm-68 0l-5.773-36.5-17.894 15.546z"/><path d="M305.745 337.792l-17.893-15.547-39.794 19.229s34.03 17.28 34.198 17.113l23.489-20.795z"/><path d="M190.412 337.792l17.894-15.547 39.753 19.229s-33.989 17.28-34.157 17.113l-23.49-20.795z"/></g><g fill="#86b4d1"><path d="M248.048 341.475l-15.719 7.942 15.719 25.6 15.719-25.6z"/><path d="M248.155 443.412c5.087 0 10.371-11.511 15.318-27.895l-11.363-53.605h-8.141l-11.263 53.289c4.994 16.557 10.328 28.211 15.449 28.211z"/></g><g fill="#4a4a54"><path d="M196.579 332.371l-12.5 6.438 8 55.27 16.334-3.667-12 14.667 51.666 53.416-.021-15.083s-33.989-84.657-34.157-84.824l-17.322-26.217z"/><path d="M299.579 332.371l12.5 6.438-8 55.27-16.333-3.667 12 14.667-51.667 53.416.021-15.083s33.989-84.657 34.156-84.824l17.323-26.217z"/></g><path d="M336.332 175.175c0-92.429-39.513-113.596-88.252-113.596-48.741 0-88.254 21.167-88.254 113.596 0 31.266 6.19 55.765 15.462 74.673 20.396 41.598 55.7 56.136 72.792 56.136s52.396-14.538 72.79-56.136c9.271-18.908 15.462-43.407 15.462-74.673z" fill="#f4b382"/><path d="M274.078 265.236c0 2.296-11.64 8.578-25.999 8.578s-25.999-6.281-25.999-8.578c0-1.415 8.251-5.467 13.796-6.218 3.461-.469 12.203 2.579 12.203 2.579s8.621-3.056 12.055-2.599c5.628.748 13.944 6.238 13.944 6.238z" fill="#d89364"/><path d="M274.078 265.236c0 2.296-11.64 11.177-25.999 11.177s-25.999-8.88-25.999-11.177c0 0 10.591 1.146 25.999 1.146s25.999-1.146 25.999-1.146z" fill="#ce8757"/><path d="M170.413 238.639c-8.439 1.443-14.352.148-19.112-27.698s1.657-31.479 10.096-32.922l9.016 60.62z" fill="#f4b382"/><g fill="#51250d"><path d="M336.332 178.246c11.414-22.762 8.423-43.121 2.747-56.5-9.333-22-21.117-28.587-21.117-28.587-7.551-24.748-41.44-33.08-69.882-33.08-48.741 0-95.001 25.738-88.254 118.167l20.253-3.417c0-2.629 97-58.75 97-58.75 9.667 5.667 25 2 25 2 0-3.804 14.099 56.75 14.099 56.75l20.154 3.417z"/><path d="M165.454 140.767c-4.25 10.875-5.628 24.359-5.628 37.479 0 0 8.753-1.917 8.753 2.583l2.75 27.625 3.875-1.875c-.25-23 4.875-31.75 4.875-31.75l-14.625-34.062z"/></g><path d="M325.845 238.639c8.438 1.443 14.35.148 19.111-27.698s-1.658-31.479-10.096-32.922l-9.015 60.62z" fill="#f4b382"/><path d="M330.803 140.767c4.25 10.875 5.628 24.359 5.628 37.479 0 0-8.753-1.917-8.753 2.583l-2.75 27.625-3.875-1.875c.25-23-4.875-31.75-4.875-31.75l14.625-34.062z" fill="#51250d"/></svg>